# Wavefront OBJ file
# Creator: Ultimate Unwrap3D v2.29
# Time: Tue Mar 20 18:29:48 2007
# num_vertices: 106
# num_vertex_normals: 106
# num_uvs: 540
# num_faces: 180
# num_groups: 1

mtllib well.mtl

v -1.541140 0.089330 -1.196510
v 1.520340 0.089330 -1.196510
v 1.520340 0.000000 -1.196510
v -1.541140 0.000000 -1.196510
v -1.541140 0.089330 1.140640
v 1.520340 0.089330 1.140640
v 1.520340 0.000000 1.140640
v -1.541140 0.000000 1.140640
v -1.356870 0.089330 -1.055840
v -1.356870 0.089330 0.999970
v 1.336070 0.089330 0.999970
v 1.336070 0.089330 -1.055840
v -1.541140 1.877417 -1.196510
v 1.520340 1.877417 -1.196510
v -1.541140 1.877417 1.140640
v 1.520340 1.877417 1.140640
v -1.356870 1.877417 -1.055840
v -1.356870 1.877417 0.999970
v 1.336070 1.877417 -1.055840
v 1.336070 1.877417 0.999970
v -0.162940 4.267580 0.850230
v 0.165030 4.267580 0.850230
v 0.165030 0.050840 0.850230
v -0.162940 0.050840 0.850230
v -0.162940 4.267580 1.002090
v 0.165030 4.267580 1.002090
v 0.165030 0.050840 1.002090
v -0.162940 0.050840 1.002090
v -0.162940 4.267580 -1.054590
v 0.165030 4.267580 -1.054590
v 0.165030 0.050840 -1.054590
v -0.162940 0.050840 -1.054590
v -0.162940 4.267580 -0.892050
v 0.165030 4.267580 -0.892050
v 0.165030 0.050840 -0.892050
v -0.162940 0.050840 -0.892050
v 1.476840 4.472940 1.140640
v 1.476840 4.472940 -1.196510
v -1.523150 4.472940 -1.196510
v -1.523150 4.472940 1.140640
v -1.557040 4.472940 1.001100
v -1.557040 4.472940 0.999970
v -1.532230 4.472940 0.999970
v -1.506090 4.472940 -1.055840
v 1.336170 4.472940 -1.055840
v 1.336170 4.472940 0.999970
v 1.277390 4.472940 0.999970
v 1.277390 4.472940 1.001100
v 1.604510 4.210920 1.140640
v 1.604510 4.210920 -1.196510
v -1.847570 4.210920 -1.196510
v -1.847570 4.210920 1.140640
v -1.661660 4.210920 -1.020180
v -1.661660 4.210920 1.001100
v 1.277390 4.210920 1.001100
v 1.277390 4.210920 -1.020180
v -1.706900 4.300240 -1.055840
v -1.706900 4.300240 0.999970
v 1.336170 4.300240 -1.055840
v 1.336170 4.300240 0.999970
v 1.277390 4.300240 0.999970
v -1.661660 4.300240 0.999970
v -1.661660 4.300240 -1.020180
v 1.277390 4.300240 -1.020180
v -1.523150 4.472940 -1.055840
v -1.523150 4.472940 1.001100
v -0.991620 4.788270 1.043410
v 0.991620 4.788270 1.043410
v 1.063040 4.555690 1.043410
v -1.071270 4.555690 1.043410
v -0.991620 4.788270 1.149580
v 0.991620 4.788270 1.149580
v 1.063040 4.555690 1.149580
v -1.071270 4.555690 1.149580
v -0.991620 4.788270 -1.250590
v 0.991620 4.788270 -1.250590
v 1.063040 4.555690 -1.250590
v -1.071270 4.555690 -1.250590
v -0.991620 4.788270 -1.144420
v 0.991620 4.788270 -1.144420
v 1.063040 4.555690 -1.144420
v -1.071270 4.555690 -1.144420
v 2.105570 4.169490 1.464940
v 2.105570 4.169490 -1.464940
v 0.039450 5.460080 -1.464940
v 0.039450 5.460080 1.464940
v -2.105570 4.169490 1.464940
v -2.105570 4.169490 -1.464940
v -1.868370 4.169490 1.372360
v -1.868370 4.169490 -1.372370
v 0.037370 5.379770 -1.372370
v 0.037370 5.379770 1.372360
v 1.873010 4.169490 -1.372370
v 1.873010 4.169490 1.372360
v 1.577710 4.169490 -1.464940
v 0.035320 5.245580 -1.464940
v -1.565980 4.169490 -1.464940
v 1.577710 4.169490 1.464940
v 1.577710 4.169490 1.372360
v 1.577710 4.169490 -1.372370
v -1.565980 4.169490 1.464940
v 0.035320 5.245580 1.464940
v 0.035320 5.245580 1.372360
v -1.565980 4.169490 1.372360
v -1.565980 4.169490 -1.372370
v 0.035320 5.245580 -1.372370
# num_vertices: 106

vn -0.800000 0.000000 -0.600000
vn 0.554700 0.000000 -0.832050
vn 0.666667 -0.333333 -0.666667
vn -0.408248 -0.816497 -0.408248
vn -0.554700 0.000000 0.832050
vn 0.800000 0.000000 0.600000
vn 0.408248 -0.816497 0.408248
vn -0.666667 -0.333333 0.666667
vn 0.408248 0.408248 0.816497
vn 0.666667 0.666667 -0.333333
vn -0.408248 0.408248 -0.816497
vn -0.666667 0.666667 0.333333
vn -0.267261 0.801784 -0.534522
vn 0.534522 0.801784 -0.267261
vn -0.534522 0.801784 0.267261
vn 0.267261 0.801784 0.534522
vn 0.534522 0.801784 0.267261
vn 0.267261 0.801784 -0.534522
vn -0.267261 0.801784 0.534522
vn -0.534522 0.801784 -0.267261
vn -0.666667 0.333333 -0.666667
vn 0.408248 0.816497 -0.408248
vn 0.707107 0.000000 -0.707107
vn -0.707107 0.000000 -0.707107
vn -0.408248 0.816497 0.408248
vn 0.666667 0.333333 0.666667
vn 0.707107 0.000000 0.707107
vn -0.707107 0.000000 0.707107
vn -0.666667 0.333333 -0.666667
vn 0.408248 0.816497 -0.408248
vn 0.707107 0.000000 -0.707107
vn -0.707107 0.000000 -0.707107
vn -0.408248 0.816497 0.408248
vn 0.666667 0.333333 0.666667
vn 0.707107 0.000000 0.707107
vn -0.707107 0.000000 0.707107
vn 0.339726 0.921348 0.188954
vn 0.243514 0.931302 -0.270883
vn -0.361083 0.734414 -0.574679
vn -0.180541 0.798216 0.574679
vn 0.396484 0.209747 -0.893760
vn 0.610348 0.343864 0.713606
vn 0.251023 -0.967976 0.003192
vn 0.452924 -0.825312 0.337223
vn -0.267261 0.801784 0.534522
vn -0.534522 0.801784 -0.267261
vn -0.408248 0.408248 -0.816497
vn -0.408248 0.816497 -0.408248
vn 0.214919 -0.851577 0.478149
vn 0.616836 -0.385608 -0.686163
vn -0.249690 -0.883025 -0.397393
vn -0.581844 -0.668636 0.463015
vn 0.534522 -0.801784 0.267261
vn 0.235833 -0.688672 -0.685648
vn -0.666667 -0.666667 -0.333333
vn -0.408248 -0.816497 0.408248
vn 0.266926 0.508359 0.818731
vn 0.769623 0.301433 -0.562866
vn -0.534522 0.801784 0.267261
vn -0.333333 0.666667 -0.666667
vn -0.942809 0.235702 -0.235702
vn 0.934025 0.151808 -0.323343
vn 0.218218 0.872872 0.436436
vn -0.301511 0.904534 0.301511
vn 0.000000 1.000000 0.000000
vn 0.000000 1.000000 0.000000
vn -0.589679 0.513592 -0.623299
vn 0.356900 0.856291 -0.373348
vn 0.683436 -0.147599 -0.714933
vn -0.436198 -0.772754 -0.461067
vn -0.350250 0.860385 0.370219
vn 0.599394 0.497569 0.627018
vn 0.435159 -0.776800 0.455213
vn -0.681694 -0.126826 0.720561
vn -0.589679 0.513592 -0.623299
vn 0.356900 0.856291 -0.373348
vn 0.683436 -0.147599 -0.714933
vn -0.436198 -0.772754 -0.461067
vn -0.350250 0.860385 0.370219
vn 0.599394 0.497569 0.627018
vn 0.435159 -0.776800 0.455213
vn -0.681694 -0.126826 0.720561
vn 0.158197 -0.941173 0.298608
vn 0.711946 -0.204085 -0.671924
vn 0.003274 0.392111 -0.919912
vn 0.005417 0.648742 0.760989
vn -0.212992 -0.885411 0.413137
vn -0.534765 -0.667113 -0.518639
vn 0.205850 -0.900104 -0.383978
vn 0.133754 -0.959095 0.249494
vn -0.005495 -0.642963 0.765877
vn -0.005495 -0.642963 -0.765877
vn -0.110803 -0.973243 0.201297
vn -0.254724 -0.849100 -0.462758
vn -0.265622 -0.844949 -0.464226
vn -0.005560 -0.636401 -0.771338
vn 0.317817 -0.757837 -0.569803
vn -0.326555 -0.753420 0.570718
vn -0.187823 -0.925727 -0.328257
vn -0.207005 -0.658488 0.723563
vn 0.158909 -0.806271 0.569803
vn 0.168113 -0.767349 0.618800
vn -0.123814 -0.521398 -0.844283
vn 0.365406 -0.871311 -0.327561
vn 0.158909 -0.806271 0.569803
vn -0.007471 -0.855191 0.518259
# num_vertex_normals: 106

vt 0.750116 0.066956
vt 0.286515 0.066956
vt 0.750116 0.053450
vt 0.286515 0.066956
vt 0.286515 0.053450
vt 0.750116 0.053450
vt 0.759580 0.329669
vt 0.759580 0.066981
vt 0.279580 0.329669
vt 0.759580 0.066981
vt 0.279580 0.066981
vt 0.279580 0.329669
vt 0.750116 0.053450
vt 0.286515 0.053450
vt 0.750116 0.066956
vt 0.286515 0.053450
vt 0.286515 0.066956
vt 0.750116 0.066956
vt 0.255809 0.052273
vt 0.255809 0.066838
vt 0.768391 0.052273
vt 0.255809 0.066838
vt 0.768391 0.066838
vt 0.768391 0.052273
vt 0.768391 0.052273
vt 0.768391 0.066838
vt 0.255809 0.052273
vt 0.768391 0.066838
vt 0.255809 0.066838
vt 0.255809 0.052273
vt 0.735936 0.167942
vt 0.765803 0.216094
vt 0.299456 0.167942
vt 0.765803 0.216094
vt 0.269589 0.216094
vt 0.299456 0.167942
vt 0.344249 0.122635
vt 0.321714 0.093067
vt 0.673579 0.122635
vt 0.321714 0.093067
vt 0.696114 0.093067
vt 0.673579 0.122635
vt 0.297248 0.214246
vt 0.267382 0.166094
vt 0.733728 0.214246
vt 0.267382 0.166094
vt 0.763595 0.166094
vt 0.733728 0.214246
vt 0.673579 0.090461
vt 0.696114 0.120029
vt 0.344249 0.090461
vt 0.696114 0.120029
vt 0.321714 0.120029
vt 0.344249 0.090461
vt 0.308471 0.313858
vt 0.308471 0.082792
vt 0.730689 0.313858
vt 0.308471 0.082792
vt 0.730689 0.082792
vt 0.730689 0.313858
vt 0.768391 0.066838
vt 0.255809 0.066838
vt 0.255809 0.337441
vt 0.768391 0.066838
vt 0.255809 0.337441
vt 0.768391 0.337441
vt 0.750116 0.066956
vt 0.286515 0.066956
vt 0.286515 0.337333
vt 0.750116 0.066956
vt 0.286515 0.337333
vt 0.750116 0.337333
vt 0.286515 0.066956
vt 0.750116 0.066956
vt 0.750116 0.337333
vt 0.286515 0.066956
vt 0.750116 0.337333
vt 0.286515 0.337333
vt 0.255809 0.066838
vt 0.768391 0.066838
vt 0.768391 0.337441
vt 0.255809 0.066838
vt 0.768391 0.337441
vt 0.255809 0.337441
vt 0.254946 0.060147
vt 0.755525 0.060147
vt 0.755525 0.326824
vt 0.254946 0.060147
vt 0.755525 0.326824
vt 0.254947 0.326824
vt 0.284941 0.066838
vt 0.739259 0.066838
vt 0.739259 0.337441
vt 0.284941 0.066838
vt 0.739259 0.337441
vt 0.284941 0.337441
vt 0.739259 0.066838
vt 0.284941 0.066838
vt 0.284941 0.337441
vt 0.739259 0.066838
vt 0.284941 0.337441
vt 0.739259 0.337441
vt 0.722211 0.066956
vt 0.314419 0.066956
vt 0.314419 0.337333
vt 0.722211 0.066956
vt 0.314419 0.337333
vt 0.722211 0.337333
vt 0.733349 0.201174
vt 0.715371 0.201174
vt 0.733349 0.129617
vt 0.715371 0.201174
vt 0.715371 0.129617
vt 0.733349 0.129617
vt 0.756749 0.274222
vt 0.756749 0.307355
vt 0.257549 0.274222
vt 0.756749 0.307355
vt 0.257549 0.307355
vt 0.257549 0.274222
vt 0.257549 0.268576
vt 0.257549 0.235444
vt 0.756749 0.268576
vt 0.257549 0.235444
vt 0.756749 0.235444
vt 0.756749 0.268576
vt 0.257549 0.081038
vt 0.756749 0.081038
vt 0.257549 0.152595
vt 0.756749 0.081038
vt 0.756749 0.152595
vt 0.257549 0.152595
vt 0.257549 0.158241
vt 0.756749 0.158241
vt 0.257549 0.229798
vt 0.756749 0.158241
vt 0.756749 0.229798
vt 0.257549 0.229798
vt 0.664936 0.222328
vt 0.645694 0.222328
vt 0.664936 0.160462
vt 0.645694 0.222328
vt 0.645694 0.160462
vt 0.664936 0.160462
vt 0.762993 0.289717
vt 0.762993 0.320376
vt 0.263793 0.289717
vt 0.762993 0.320376
vt 0.263793 0.320376
vt 0.263793 0.289717
vt 0.263793 0.284836
vt 0.263793 0.254176
vt 0.762993 0.284836
vt 0.263793 0.254176
vt 0.762993 0.254176
vt 0.762993 0.284836
vt 0.263793 0.120683
vt 0.762993 0.120683
vt 0.263793 0.182548
vt 0.762993 0.120683
vt 0.762993 0.182548
vt 0.263793 0.182548
vt 0.263793 0.187429
vt 0.762993 0.187429
vt 0.263793 0.249295
vt 0.762993 0.187429
vt 0.762993 0.249295
vt 0.263793 0.249295
vt 0.642584 0.186679
vt 0.377483 0.190050
vt 0.642584 0.176474
vt 0.377483 0.180845
vt 0.642584 0.176474
vt 0.377483 0.190050
vt 0.642584 0.176474
vt 0.377483 0.180845
vt 0.377337 0.176474
vt 0.377337 0.180845
vt 0.377337 0.176474
vt 0.377483 0.180845
vt 0.341203 0.193387
vt 0.642584 0.193387
vt 0.624444 0.211527
vt 0.341203 0.193387
vt 0.624444 0.211527
vt 0.359343 0.211527
vt 0.341203 0.193387
vt 0.359343 0.211527
vt 0.359197 0.219107
vt 0.295699 0.201060
vt 0.321419 0.183065
vt 0.682556 0.201060
vt 0.287887 0.192647
vt 0.674743 0.192647
vt 0.674743 0.210787
vt 0.287887 0.192647
vt 0.674743 0.210787
vt 0.306027 0.210787
vt 0.359197 0.219107
vt 0.359343 0.211527
vt 0.359343 0.219107
vt 0.682556 0.201060
vt 0.321419 0.183065
vt 0.682556 0.183065
vt 0.651306 0.205841
vt 0.349924 0.205841
vt 0.651306 0.172053
vt 0.349924 0.205841
vt 0.349924 0.172053
vt 0.651306 0.172053
vt 0.772569 0.209930
vt 0.726090 0.181836
vt 0.282068 0.209930
vt 0.308485 0.181836
vt 0.282068 0.209930
vt 0.726090 0.181836
vt 0.693360 0.202700
vt 0.668305 0.173079
vt 0.361277 0.202700
vt 0.381105 0.173079
vt 0.361277 0.202700
vt 0.668305 0.173079
vt 0.273052 0.181315
vt 0.299468 0.203548
vt 0.763553 0.181315
vt 0.717073 0.203548
vt 0.763553 0.181315
vt 0.299468 0.203548
vt 0.352261 0.168325
vt 0.372088 0.220442
vt 0.659288 0.220442
vt 0.659288 0.220442
vt 0.684343 0.168325
vt 0.352261 0.168325
vt 0.654334 0.213783
vt 0.352953 0.213783
vt 0.654334 0.171948
vt 0.352953 0.213783
vt 0.352953 0.171948
vt 0.654334 0.171948
vt 0.767831 0.725646
vt 0.267831 0.725646
vt 0.314821 0.761144
vt 0.767831 0.725646
vt 0.314821 0.761144
vt 0.749340 0.761144
vt 0.267831 0.725646
vt 0.767831 0.725646
vt 0.314821 0.761144
vt 0.767831 0.725646
vt 0.749340 0.761144
vt 0.314821 0.761144
vt 0.370579 0.200428
vt 0.370579 0.178159
vt 0.635681 0.200428
vt 0.370579 0.178159
vt 0.635681 0.178159
vt 0.635681 0.200428
vt 0.764690 0.185188
vt 0.764690 0.226048
vt 0.264690 0.185188
vt 0.764690 0.226048
vt 0.281879 0.226048
vt 0.264690 0.185188
vt 0.616508 0.185018
vt 0.616508 0.207287
vt 0.351407 0.185018
vt 0.616508 0.207287
vt 0.351407 0.207287
vt 0.351407 0.185018
vt 0.447878 0.197037
vt 0.447878 0.219306
vt 0.440298 0.197037
vt 0.447878 0.219306
vt 0.440298 0.219306
vt 0.440298 0.197037
vt 0.369640 0.214942
vt 0.369640 0.207363
vt 0.630142 0.214942
vt 0.634741 0.207363
vt 0.630142 0.214942
vt 0.369640 0.207363
vt 0.297723 0.208995
vt 0.290144 0.204397
vt 0.676721 0.208995
vt 0.682556 0.204397
vt 0.676721 0.208995
vt 0.290144 0.204397
vt 0.641861 0.183784
vt 0.646460 0.189618
vt 0.381358 0.189618
vt 0.641861 0.183784
vt 0.381358 0.189618
vt 0.381358 0.183784
vt 0.502991 0.214149
vt 0.480722 0.200658
vt 0.502991 0.204943
vt 0.480722 0.200658
vt 0.480722 0.194824
vt 0.502991 0.204943
vt 0.762622 0.172491
vt 0.252622 0.172491
vt 0.762622 0.244702
vt 0.243608 0.172491
vt 0.261761 0.244702
vt 0.753607 0.244702
vt 0.531503 0.202645
vt 0.553772 0.202645
vt 0.553772 0.202791
vt 0.480119 0.290326
vt 0.466629 0.312595
vt 0.480119 0.278807
vt 0.294714 0.211667
vt 0.294485 0.169685
vt 0.704485 0.169685
vt 0.294714 0.211667
vt 0.704485 0.169685
vt 0.704485 0.211667
vt 0.755032 0.185188
vt 0.272123 0.185188
vt 0.755032 0.164053
vt 0.272123 0.185188
vt 0.272123 0.164053
vt 0.755032 0.164053
vt 0.294714 0.211667
vt 0.704485 0.211667
vt 0.704485 0.169685
vt 0.294714 0.211667
vt 0.704485 0.169685
vt 0.294485 0.169685
vt 0.547158 0.202522
vt 0.535640 0.202376
vt 0.569428 0.202376
vt 0.547158 0.202522
vt 0.569428 0.202376
vt 0.569428 0.202522
vt 0.298042 0.182162
vt 0.298042 0.160653
vt 0.699816 0.182162
vt 0.298042 0.160653
vt 0.699816 0.160653
vt 0.699816 0.182162
vt 0.441686 0.209969
vt 0.441686 0.231478
vt 0.394569 0.209969
vt 0.441686 0.231478
vt 0.394569 0.231478
vt 0.394569 0.209969
vt 0.717631 0.160653
vt 0.717631 0.182162
vt 0.285252 0.160653
vt 0.717631 0.182162
vt 0.285252 0.182162
vt 0.285252 0.160653
vt 0.394569 0.204727
vt 0.394569 0.183218
vt 0.441686 0.204727
vt 0.394569 0.183218
vt 0.441686 0.183218
vt 0.441686 0.204727
vt 0.748235 0.187404
vt 0.732100 0.234521
vt 0.315856 0.187404
vt 0.732100 0.234521
vt 0.330325 0.234521
vt 0.315856 0.187404
vt 0.730420 0.187404
vt 0.715951 0.234521
vt 0.298042 0.187404
vt 0.715951 0.234521
vt 0.314176 0.234521
vt 0.298042 0.187404
vt 0.299738 0.211210
vt 0.299738 0.187229
vt 0.706130 0.211210
vt 0.299738 0.187229
vt 0.706130 0.187229
vt 0.706130 0.211210
vt 0.464551 0.232134
vt 0.464551 0.256115
vt 0.416892 0.232134
vt 0.464551 0.256115
vt 0.416892 0.256115
vt 0.416892 0.232134
vt 0.715358 0.187229
vt 0.715358 0.211210
vt 0.278009 0.187229
vt 0.715358 0.211210
vt 0.278009 0.211210
vt 0.278009 0.187229
vt 0.416892 0.226290
vt 0.416892 0.202309
vt 0.464551 0.226290
vt 0.416892 0.202309
vt 0.464551 0.202309
vt 0.464551 0.226290
vt 0.746313 0.217054
vt 0.729993 0.269587
vt 0.308965 0.217054
vt 0.729993 0.269587
vt 0.323601 0.269587
vt 0.308965 0.217054
vt 0.737086 0.217055
vt 0.722451 0.269587
vt 0.299738 0.217055
vt 0.722451 0.269587
vt 0.316058 0.269587
vt 0.299738 0.217055
vt 0.263224 0.050986
vt 0.760024 0.050986
vt 0.263224 0.318958
vt 0.760024 0.050986
vt 0.760024 0.318958
vt 0.263224 0.318958
vt 0.757361 0.060764
vt 0.757361 0.339086
vt 0.267950 0.060764
vt 0.757361 0.339086
vt 0.267950 0.339086
vt 0.267950 0.060764
vt 0.741897 0.091543
vt 0.283413 0.091543
vt 0.283413 0.338817
vt 0.741897 0.091543
vt 0.283413 0.338817
vt 0.741897 0.338817
vt 0.744327 0.319227
vt 0.744327 0.081148
vt 0.278921 0.081148
vt 0.744327 0.319227
vt 0.278921 0.081148
vt 0.278921 0.319227
vt 0.517102 0.948215
vt 0.872902 0.737640
vt 0.821504 0.725464
vt 0.517102 0.948215
vt 0.821504 0.725464
vt 0.516367 0.898853
vt 0.517102 0.948215
vt 0.516367 0.898853
vt 0.222046 0.729523
vt 0.517102 0.948215
vt 0.222046 0.729523
vt 0.164501 0.743727
vt 0.716525 0.181639
vt 0.646402 0.181639
vt 0.646402 0.203623
vt 0.716525 0.181639
vt 0.646402 0.203623
vt 0.771749 0.203623
vt 0.744327 0.081148
vt 0.760024 0.050986
vt 0.263224 0.050986
vt 0.744327 0.081148
vt 0.263224 0.050986
vt 0.278921 0.081148
vt 0.694960 0.285399
vt 0.752016 0.285399
vt 0.796949 0.255439
vt 0.694960 0.285399
vt 0.796949 0.255439
vt 0.694960 0.255439
vt 0.517102 0.948215
vt 0.164501 0.743727
vt 0.222047 0.729523
vt 0.517102 0.948215
vt 0.222047 0.729523
vt 0.516367 0.898853
vt 0.517102 0.948215
vt 0.516367 0.898853
vt 0.821504 0.725464
vt 0.517102 0.948215
vt 0.821504 0.725464
vt 0.872902 0.737640
vt 0.797551 0.254798
vt 0.392660 0.244124
vt 0.339430 0.302025
vt 0.797551 0.254798
vt 0.339430 0.302025
vt 0.813252 0.293969
vt 0.356218 0.259175
vt 0.340257 0.300152
vt 0.818812 0.308577
vt 0.356218 0.259175
vt 0.818812 0.308577
vt 0.765524 0.248373
vt 0.715361 0.208588
vt 0.277254 0.203313
vt 0.327020 0.152054
vt 0.715361 0.208588
vt 0.327020 0.152054
vt 0.701223 0.172534
vt 0.711036 0.213043
vt 0.697574 0.176293
vt 0.333065 0.145828
vt 0.711036 0.213043
vt 0.333065 0.145828
vt 0.284465 0.195885
vt 0.487596 0.288219
vt 0.487596 0.259247
vt 0.431099 0.288219
vt 0.386780 0.259247
vt 0.431099 0.288219
vt 0.487596 0.259247
vt 0.741897 0.091543
vt 0.757361 0.060764
vt 0.283413 0.091543
vt 0.267950 0.060764
vt 0.283413 0.091543
vt 0.757361 0.060764
vt 0.305842 0.181639
vt 0.249513 0.203623
vt 0.377648 0.181639
vt 0.377648 0.203623
vt 0.377648 0.181639
vt 0.249513 0.203623
vt 0.646402 0.203623
vt 0.646402 0.181639
vt 0.280136 0.181639
vt 0.646402 0.203623
vt 0.280136 0.181639
vt 0.280136 0.203623
vt 0.377648 0.181639
vt 0.377648 0.203623
vt 0.757901 0.181639
vt 0.377648 0.203623
vt 0.757901 0.203623
vt 0.757901 0.181639
vt 0.487596 0.259247
vt 0.487596 0.288219
vt 0.786780 0.259247
vt 0.487596 0.288219
vt 0.786780 0.288219
vt 0.786780 0.259247
vt 0.694960 0.285399
vt 0.694960 0.255439
vt 0.396949 0.285399
vt 0.694960 0.255439
vt 0.396949 0.255438
vt 0.396949 0.285399
# num_uvs: 540

g well
s 1

usemtl well
f 2/1/2 6/2/6 3/3/3 
f 6/4/6 7/5/7 3/6/3 
f 3/7/3 7/8/7 4/9/4 
f 7/10/7 8/11/8 4/12/4 
f 4/13/4 8/14/8 1/15/1 
f 8/16/8 5/17/5 1/18/1 
f 4/19/4 1/20/1 3/21/3 
f 1/22/1 2/23/2 3/24/3 
f 7/25/7 6/26/6 8/27/8 
f 6/28/6 5/29/5 8/30/8 
f 17/31/17 13/32/13 18/33/18 
f 13/34/13 15/35/15 18/36/18 
f 18/37/18 15/38/15 20/39/20 
f 15/40/15 16/41/16 20/42/20 
f 20/43/20 16/44/16 19/45/19 
f 16/46/16 14/47/14 19/48/19 
f 19/49/19 14/50/14 17/51/17 
f 14/52/14 13/53/13 17/54/17 
f 9/55/9 10/56/10 12/57/12 
f 10/58/10 11/59/11 12/60/12 
f 2/61/2 1/62/1 13/63/13 
f 2/64/2 13/65/13 14/66/14 
f 1/67/1 5/68/5 15/69/15 
f 1/70/1 15/71/15 13/72/13 
f 6/73/6 2/74/2 14/75/14 
f 6/76/6 14/77/14 16/78/16 
f 5/79/5 6/80/6 16/81/16 
f 5/82/5 16/83/16 15/84/15 
f 10/85/10 9/86/9 17/87/17 
f 10/88/10 17/89/17 18/90/18 
f 9/91/9 12/92/12 19/93/19 
f 9/94/9 19/95/19 17/96/17 
f 11/97/11 10/98/10 18/99/18 
f 11/100/11 18/101/18 20/102/20 
f 12/103/12 11/104/11 20/105/20 
f 12/106/12 20/107/20 19/108/19 
f 21/109/21 25/110/25 22/111/22 
f 25/112/25 26/113/26 22/114/22 
f 22/115/22 26/116/26 23/117/23 
f 26/118/26 27/119/27 23/120/23 
f 24/121/24 28/122/28 21/123/21 
f 28/124/28 25/125/25 21/126/21 
f 24/127/24 21/128/21 23/129/23 
f 21/130/21 22/131/22 23/132/23 
f 27/133/27 26/134/26 28/135/28 
f 26/136/26 25/137/25 28/138/28 
f 29/139/29 33/140/33 30/141/30 
f 33/142/33 34/143/34 30/144/30 
f 30/145/30 34/146/34 31/147/31 
f 34/148/34 35/149/35 31/150/31 
f 32/151/32 36/152/36 29/153/29 
f 36/154/36 33/155/33 29/156/29 
f 32/157/32 29/158/29 31/159/31 
f 29/160/29 30/161/30 31/162/31 
f 35/163/35 34/164/34 36/165/36 
f 34/166/34 33/167/33 36/168/36 
f 44/169/44 43/170/43 65/171/65 
f 42/172/42 65/173/65 43/174/43 
f 65/175/65 42/176/42 66/177/66 
f 41/178/41 66/179/66 42/180/42 
f 37/181/37 38/182/38 45/183/45 
f 37/184/37 45/185/45 46/186/46 
f 37/187/37 46/188/46 48/189/48 
f 37/190/37 48/191/48 40/192/40 
f 38/193/38 39/194/39 65/195/65 
f 38/196/38 65/197/65 45/198/45 
f 48/199/48 46/200/46 47/201/47 
f 40/202/40 48/203/48 66/204/66 
f 49/205/49 50/206/50 37/207/37 
f 50/208/50 38/209/38 37/210/37 
f 50/211/50 56/212/56 51/213/51 
f 53/214/53 51/215/51 56/216/56 
f 51/217/51 53/218/53 52/219/52 
f 54/220/54 52/221/52 53/222/53 
f 52/223/52 54/224/54 49/225/49 
f 55/226/55 49/227/49 54/228/54 
f 49/229/49 55/230/55 56/231/56 
f 56/232/56 50/233/50 49/234/49 
f 51/235/51 52/236/52 39/237/39 
f 52/238/52 40/239/40 39/240/39 
f 50/241/50 51/242/51 39/243/39 
f 50/244/50 39/245/39 38/246/38 
f 52/247/52 49/248/49 40/249/40 
f 49/250/49 37/251/37 40/252/40 
f 57/253/57 44/254/44 58/255/58 
f 44/256/44 43/257/43 58/258/58 
f 59/259/59 45/260/45 57/261/57 
f 45/262/45 44/263/44 57/264/57 
f 60/265/60 46/266/46 59/267/59 
f 46/268/46 45/269/45 59/270/59 
f 61/271/61 47/272/47 60/273/60 
f 47/274/47 46/275/46 60/276/60 
f 61/277/61 60/278/60 64/279/64 
f 59/280/59 64/281/64 60/282/60 
f 64/283/64 59/284/59 63/285/63 
f 57/286/57 63/287/63 59/288/59 
f 63/289/63 57/290/57 58/291/58 
f 63/292/63 58/293/58 62/294/62 
f 42/295/42 62/296/62 43/297/43 
f 62/298/62 58/299/58 43/300/43 
f 55/301/55 54/302/54 48/303/48 
f 54/304/54 41/305/41 48/306/48 
f 62/307/62 42/308/42 41/309/41 
f 62/310/62 41/311/41 54/312/54 
f 62/313/62 54/314/54 53/315/53 
f 62/316/62 53/317/53 63/318/63 
f 64/319/64 63/320/63 56/321/56 
f 63/322/63 53/323/53 56/324/56 
f 61/325/61 64/326/64 56/327/56 
f 61/328/61 56/329/56 55/330/55 
f 61/331/61 55/332/55 48/333/48 
f 61/334/61 48/335/48 47/336/47 
f 67/337/67 71/338/71 68/339/68 
f 71/340/71 72/341/72 68/342/68 
f 68/343/68 72/344/72 69/345/69 
f 72/346/72 73/347/73 69/348/69 
f 69/349/69 73/350/73 70/351/70 
f 73/352/73 74/353/74 70/354/70 
f 70/355/70 74/356/74 67/357/67 
f 74/358/74 71/359/71 67/360/67 
f 70/361/70 67/362/67 69/363/69 
f 67/364/67 68/365/68 69/366/69 
f 73/367/73 72/368/72 74/369/74 
f 72/370/72 71/371/71 74/372/74 
f 75/373/75 79/374/79 76/375/76 
f 79/376/79 80/377/80 76/378/76 
f 76/379/76 80/380/80 77/381/77 
f 80/382/80 81/383/81 77/384/77 
f 77/385/77 81/386/81 78/387/78 
f 81/388/81 82/389/82 78/390/78 
f 78/391/78 82/392/82 75/393/75 
f 82/394/82 79/395/79 75/396/75 
f 78/397/78 75/398/75 77/399/77 
f 75/400/75 76/401/76 77/402/77 
f 81/403/81 80/404/80 82/405/82 
f 80/406/80 79/407/79 82/408/82 
f 83/409/83 84/410/84 86/411/86 
f 84/412/84 85/413/85 86/414/86 
f 87/415/87 86/416/86 88/417/88 
f 86/418/86 85/419/85 88/420/88 
f 89/421/89 90/422/90 91/423/91 
f 89/424/89 91/425/91 92/426/92 
f 91/427/91 93/428/93 94/429/94 
f 91/430/91 94/431/94 92/432/92 
f 85/433/85 84/434/84 95/435/95 
f 85/436/85 95/437/95 96/438/96 
f 85/439/85 96/440/96 97/441/97 
f 85/442/85 97/443/97 88/444/88 
f 93/445/93 100/446/100 95/447/95 
f 93/448/93 95/449/95 84/450/84 
f 93/451/93 84/452/84 83/453/83 
f 93/454/93 83/455/83 94/456/94 
f 99/457/99 94/458/94 83/459/83 
f 99/460/99 83/461/83 98/462/98 
f 86/463/86 87/464/87 101/465/101 
f 86/466/86 101/467/101 102/468/102 
f 86/469/86 102/470/102 98/471/98 
f 86/472/86 98/473/98 83/474/83 
f 103/475/103 104/476/104 89/477/89 
f 103/478/103 89/479/89 92/480/92 
f 103/481/103 92/482/92 94/483/94 
f 103/484/103 94/485/94 99/486/99 
f 91/487/91 90/488/90 105/489/105 
f 91/490/91 105/491/105 106/492/106 
f 91/493/91 106/494/106 100/495/100 
f 91/496/91 100/497/100 93/498/93 
f 104/499/104 101/500/101 89/501/89 
f 87/502/87 89/503/89 101/504/101 
f 89/505/89 87/506/87 90/507/90 
f 88/508/88 90/509/90 87/510/87 
f 90/511/90 88/512/88 105/513/105 
f 97/514/97 105/515/105 88/516/88 
f 95/517/95 100/518/100 106/519/106 
f 95/520/95 106/521/106 96/522/96 
f 105/523/105 97/524/97 106/525/106 
f 97/526/97 96/527/96 106/528/106 
f 101/529/101 104/530/104 102/531/102 
f 104/532/104 103/533/103 102/534/102 
f 99/535/99 98/536/98 103/537/103 
f 98/538/98 102/539/102 103/540/103 
# num_faces: 180

