# Wavefront OBJ file
# Creator: Ultimate Unwrap3D v2.28
# Time: Thu Nov 09 00:11:42 2006
# num_vertices: 96
# num_vertex_normals: 96
# num_uvs: 336
# num_faces: 84
# num_groups: 2

mtllib fence3.mtl

v -1.900885 0.004686 -0.049444
v -1.900886 3.626587 -0.049444
v -1.631443 3.626587 -0.049444
v -1.631443 0.004686 -0.049444
v -1.900885 0.004686 0.120506
v -1.900886 3.626587 0.120512
v -1.631443 3.626587 0.120512
v -1.631443 0.004686 0.120506
v -1.790770 3.764812 0.020013
v -1.741559 3.764812 0.020013
v -1.790770 3.764812 0.051056
v -1.741559 3.764812 0.051056
v -1.648300 3.699982 0.109881
v -1.884028 3.699982 0.109881
v -1.884028 3.699982 -0.038812
v -1.648300 3.699982 -0.038812
v -1.698523 3.743176 0.078200
v -1.833806 3.743176 0.078200
v -1.833806 3.743176 -0.007138
v -1.698523 3.743176 -0.007138
v -1.641225 3.367558 -0.120512
v 1.900886 3.367558 -0.120512
v 1.900886 3.184719 -0.120512
v -1.641225 3.184719 -0.120512
v -1.641225 3.367558 0.097856
v 1.900886 3.367558 0.097856
v 1.900886 3.184719 0.097856
v -1.641225 3.184719 0.097856
v -0.868696 0.000000 -0.049444
v -1.111352 3.703224 -0.049444
v -0.842490 3.720844 -0.049444
v -0.599833 0.017612 -0.049444
v -0.868696 0.000000 0.120506
v -1.111352 3.703224 0.120512
v -0.842490 3.720844 0.120512
v -0.599833 0.017612 0.120506
v -1.010514 3.848354 0.020013
v -0.961408 3.851566 0.020013
v -1.010514 3.848354 0.051056
v -0.961408 3.851566 0.051056
v -0.864108 3.792973 0.109881
v -1.099333 3.777561 0.109881
v -1.099333 3.777561 -0.038812
v -0.864108 3.792973 -0.038812
v -0.917046 3.832794 0.078200
v -1.052040 3.823948 0.078200
v -1.052040 3.823948 -0.007138
v -0.917046 3.832794 -0.007138
v -0.112790 0.011311 -0.049444
v 0.030248 3.935390 -0.049444
v 0.299485 3.925007 -0.049444
v 0.156448 0.000923 -0.049444
v -0.112790 0.011311 0.120506
v 0.030248 3.935390 0.120512
v 0.299485 3.925007 0.120512
v 0.156448 0.000923 0.120506
v 0.145604 4.069267 0.020013
v 0.194779 4.067375 0.020013
v 0.145604 4.069267 0.051056
v 0.194779 4.067375 0.051056
v 0.285473 3.998997 0.109881
v 0.049917 4.008080 0.109881
v 0.049917 4.008080 -0.038812
v 0.285473 3.998997 -0.038812
v 0.236954 4.044094 0.078200
v 0.101767 4.049305 0.078200
v 0.101767 4.049305 -0.007138
v 0.236954 4.044094 -0.007138
v 0.922454 0.004686 -0.049444
v 0.922454 3.626587 -0.049444
v 1.191898 3.626587 -0.049444
v 1.191898 0.004686 -0.049444
v 0.922454 0.004686 0.120506
v 0.922454 3.626587 0.120512
v 1.191898 3.626587 0.120512
v 1.191898 0.004686 0.120506
v 1.032567 3.764812 0.020013
v 1.081779 3.764812 0.020013
v 1.032567 3.764812 0.051056
v 1.081779 3.764812 0.051056
v 1.175042 3.699982 0.109881
v 0.939310 3.699982 0.109881
v 0.939310 3.699982 -0.038812
v 1.175042 3.699982 -0.038812
v 1.124817 3.743176 0.078200
v 0.989536 3.743176 0.078200
v 0.989536 3.743176 -0.007138
v 1.124817 3.743176 -0.007138
v -1.641225 0.804531 -0.120512
v 1.900886 0.804531 -0.120512
v 1.900886 0.621693 -0.120512
v -1.641225 0.621693 -0.120512
v -1.641225 0.804531 0.097856
v 1.900886 0.804531 0.097856
v 1.900886 0.621693 0.097856
v -1.641225 0.621693 0.097856
# num_vertices: 96

vn -0.577350 -0.577350 -0.577350
vn -0.698451 0.129885 -0.703773
vn 0.698451 0.129884 -0.703773
vn 0.577350 -0.577350 -0.577350
vn -0.577350 -0.577351 0.577350
vn -0.698451 0.129884 0.703773
vn 0.698451 0.129883 0.703773
vn 0.577350 -0.577351 0.577350
vn -0.161372 0.961161 -0.223896
vn 0.161370 0.961161 -0.223896
vn -0.161375 0.961152 0.223932
vn 0.161373 0.961152 0.223932
vn 0.547757 0.578102 0.604780
vn -0.547757 0.578103 0.604780
vn -0.547759 0.578080 -0.604801
vn 0.547759 0.578079 -0.604801
vn 0.312640 0.858788 0.405881
vn -0.312642 0.858787 0.405881
vn -0.312643 0.858790 -0.405873
vn 0.312642 0.858791 -0.405873
vn -0.577350 0.577350 -0.577350
vn 0.577350 0.577350 -0.577350
vn 0.577350 -0.577350 -0.577350
vn -0.577350 -0.577350 -0.577350
vn -0.577350 0.577350 0.577350
vn 0.577350 0.577350 0.577350
vn 0.577350 -0.577350 0.577350
vn -0.577350 -0.577350 0.577350
vn -0.538372 -0.613862 -0.577347
vn -0.705451 0.083928 -0.703772
vn 0.688462 0.175282 -0.703773
vn 0.613858 -0.538369 -0.577354
vn -0.538371 -0.613863 0.577346
vn -0.705451 0.083930 0.703772
vn 0.688462 0.175284 0.703773
vn 0.613858 -0.538369 0.577353
vn -0.223858 0.948552 -0.223912
vn 0.098179 0.969653 -0.223905
vn -0.223858 0.948553 0.223906
vn 0.098179 0.969655 0.223899
vn 0.508802 0.612663 0.604785
vn -0.584385 0.541039 0.604790
vn -0.584386 0.541018 -0.604808
vn 0.508805 0.612643 -0.604802
vn 0.255804 0.877403 0.405868
vn -0.368140 0.836507 0.405867
vn -0.368143 0.836496 -0.405888
vn 0.255808 0.877392 -0.405889
vn -0.598801 -0.555496 -0.576941
vn -0.693026 0.155958 -0.703841
vn 0.702900 0.103593 -0.703704
vn 0.555103 -0.598377 -0.577760
vn -0.598801 -0.555497 0.576941
vn -0.693026 0.155956 0.703841
vn 0.702900 0.103592 0.703705
vn 0.555102 -0.598377 0.577760
vn -0.124247 0.966663 -0.223888
vn 0.198248 0.954238 -0.223890
vn -0.124253 0.966648 0.223948
vn 0.198252 0.954223 0.223950
vn 0.569640 0.556546 0.604786
vn -0.525078 0.598772 0.604786
vn -0.525080 0.598754 -0.604801
vn 0.569641 0.556529 -0.604802
vn 0.345501 0.846095 0.405897
vn -0.279318 0.870190 0.405895
vn -0.279316 0.870205 -0.405864
vn 0.345501 0.846110 -0.405866
vn -0.577350 -0.577350 -0.577350
vn -0.698451 0.129882 -0.703773
vn 0.698452 0.129881 -0.703773
vn 0.577350 -0.577350 -0.577350
vn -0.577350 -0.577351 0.577350
vn -0.698451 0.129881 0.703773
vn 0.698452 0.129880 0.703773
vn 0.577350 -0.577351 0.577350
vn -0.161385 0.961158 -0.223897
vn 0.161366 0.961162 -0.223896
vn -0.161388 0.961149 0.223933
vn 0.161369 0.961153 0.223932
vn 0.547753 0.578106 0.604781
vn -0.547752 0.578106 0.604781
vn -0.547754 0.578083 -0.604802
vn 0.547755 0.578082 -0.604802
vn 0.312632 0.858792 0.405880
vn -0.312647 0.858786 0.405881
vn -0.312648 0.858789 -0.405873
vn 0.312633 0.858795 -0.405872
vn -0.577350 0.577350 -0.577350
vn 0.577350 0.577350 -0.577350
vn 0.577350 -0.577350 -0.577350
vn -0.577350 -0.577350 -0.577350
vn -0.577350 0.577350 0.577350
vn 0.577350 0.577350 0.577350
vn 0.577350 -0.577350 0.577350
vn -0.577350 -0.577350 0.577350
# num_vertex_normals: 96

vt 0.530701 0.431228
vt 0.526067 0.431228
vt 0.526067 0.419972
vt 0.530701 0.419972
vt 0.516944 0.530275
vt 0.542313 0.530275
vt 0.542313 0.591903
vt 0.516944 0.591903
vt 0.329622 0.015354
vt 0.291212 0.015354
vt 0.291211 0.892680
vt 0.329622 0.892680
vt 0.331759 0.869227
vt 0.292023 0.869227
vt 0.292024 0.059391
vt 0.331759 0.059391
vt 0.249029 0.042306
vt 0.219199 0.042306
vt 0.213748 0.909993
vt 0.241762 0.909993
vt 0.236928 0.907157
vt 0.212414 0.907157
vt 0.217865 0.039475
vt 0.244195 0.039475
vt 0.327771 0.879904
vt 0.325669 0.897064
vt 0.296275 0.897064
vt 0.294173 0.879904
vt 0.291211 0.892680
vt 0.293613 0.910030
vt 0.327220 0.910030
vt 0.329622 0.892680
vt 0.295507 0.882740
vt 0.297828 0.899900
vt 0.330284 0.899900
vt 0.332605 0.882740
vt 0.331759 0.869227
vt 0.329273 0.885243
vt 0.294508 0.885243
vt 0.292023 0.869227
vt 0.325669 0.897064
vt 0.319407 0.907163
vt 0.302537 0.907163
vt 0.296275 0.897064
vt 0.293613 0.910030
vt 0.300774 0.920241
vt 0.320061 0.920241
vt 0.327220 0.910030
vt 0.297828 0.899900
vt 0.304743 0.909999
vt 0.323369 0.909999
vt 0.330284 0.899900
vt 0.329273 0.885243
vt 0.321868 0.894668
vt 0.301915 0.894668
vt 0.294508 0.885243
vt 0.319407 0.907163
vt 0.314040 0.912222
vt 0.307904 0.912222
vt 0.302537 0.907163
vt 0.300774 0.920241
vt 0.306908 0.925356
vt 0.313925 0.925356
vt 0.320061 0.920241
vt 0.304743 0.909999
vt 0.310668 0.915058
vt 0.317444 0.915058
vt 0.323369 0.909999
vt 0.321868 0.894668
vt 0.315520 0.899390
vt 0.308262 0.899390
vt 0.301915 0.894668
vt 0.530701 0.431228
vt 0.526067 0.431228
vt 0.526067 0.419972
vt 0.530701 0.419972
vt 0.516944 0.530275
vt 0.542313 0.530275
vt 0.542313 0.591903
vt 0.516944 0.591903
vt 0.329622 0.015354
vt 0.291212 0.015354
vt 0.291211 0.892680
vt 0.329622 0.892680
vt 0.331759 0.869227
vt 0.292023 0.869227
vt 0.292024 0.059391
vt 0.331759 0.059391
vt 0.763992 0.027499
vt 0.729491 0.027499
vt 0.729491 0.895186
vt 0.763992 0.895186
vt 0.327771 0.879904
vt 0.294173 0.879904
vt 0.294173 0.012222
vt 0.327771 0.012222
vt 0.327771 0.879904
vt 0.325669 0.897064
vt 0.296275 0.897064
vt 0.294173 0.879904
vt 0.291211 0.892680
vt 0.293613 0.910030
vt 0.327220 0.910030
vt 0.329622 0.892680
vt 0.295507 0.882740
vt 0.297828 0.899900
vt 0.330284 0.899900
vt 0.332605 0.882740
vt 0.331759 0.869227
vt 0.329273 0.885243
vt 0.294508 0.885243
vt 0.292023 0.869227
vt 0.325669 0.897064
vt 0.319407 0.907163
vt 0.302537 0.907163
vt 0.296275 0.897064
vt 0.293613 0.910030
vt 0.300774 0.920241
vt 0.320061 0.920241
vt 0.327220 0.910030
vt 0.297828 0.899900
vt 0.304743 0.909999
vt 0.323369 0.909999
vt 0.330284 0.899900
vt 0.329273 0.885243
vt 0.321868 0.894668
vt 0.301915 0.894668
vt 0.294508 0.885243
vt 0.319407 0.907163
vt 0.314040 0.912222
vt 0.307904 0.912222
vt 0.302537 0.907163
vt 0.300774 0.920241
vt 0.306908 0.925356
vt 0.313925 0.925356
vt 0.320061 0.920241
vt 0.304743 0.909999
vt 0.310668 0.915058
vt 0.317444 0.915058
vt 0.323369 0.909999
vt 0.321868 0.894668
vt 0.315520 0.899390
vt 0.308262 0.899390
vt 0.301915 0.894668
vt 0.530701 0.431228
vt 0.526067 0.431228
vt 0.526067 0.419972
vt 0.530701 0.419972
vt 0.516944 0.530275
vt 0.542313 0.530275
vt 0.542313 0.591903
vt 0.516944 0.591903
vt 0.329622 0.015354
vt 0.291212 0.015354
vt 0.291211 0.892680
vt 0.329622 0.892680
vt 0.331759 0.869227
vt 0.292023 0.869227
vt 0.292024 0.059391
vt 0.331759 0.059391
vt 0.913983 0.009602
vt 0.883934 0.009602
vt 0.883934 0.877289
vt 0.913983 0.877289
vt 0.910068 0.874453
vt 0.882853 0.874453
vt 0.882853 0.006771
vt 0.910068 0.006771
vt 0.327771 0.879904
vt 0.325669 0.897064
vt 0.296275 0.897064
vt 0.294173 0.879904
vt 0.291211 0.892680
vt 0.293613 0.910030
vt 0.327220 0.910030
vt 0.329622 0.892680
vt 0.295507 0.882740
vt 0.297828 0.899900
vt 0.330284 0.899900
vt 0.332605 0.882740
vt 0.331759 0.869227
vt 0.329273 0.885243
vt 0.294508 0.885243
vt 0.292023 0.869227
vt 0.325669 0.897064
vt 0.319407 0.907163
vt 0.302537 0.907163
vt 0.296275 0.897064
vt 0.293613 0.910030
vt 0.300774 0.920241
vt 0.320061 0.920241
vt 0.327220 0.910030
vt 0.297828 0.899900
vt 0.304743 0.909999
vt 0.323369 0.909999
vt 0.330284 0.899900
vt 0.329273 0.885243
vt 0.321868 0.894668
vt 0.301915 0.894668
vt 0.294508 0.885243
vt 0.319407 0.907163
vt 0.314040 0.912222
vt 0.307904 0.912222
vt 0.302537 0.907163
vt 0.300774 0.920241
vt 0.306908 0.925356
vt 0.313925 0.925356
vt 0.320061 0.920241
vt 0.304743 0.909999
vt 0.310668 0.915058
vt 0.317444 0.915058
vt 0.323369 0.909999
vt 0.321868 0.894668
vt 0.315520 0.899390
vt 0.308262 0.899390
vt 0.301915 0.894668
vt 0.530701 0.431228
vt 0.526067 0.431228
vt 0.526067 0.419972
vt 0.530701 0.419972
vt 0.516944 0.530275
vt 0.542313 0.530275
vt 0.542313 0.591903
vt 0.516944 0.591903
vt 0.329622 0.015354
vt 0.291212 0.015354
vt 0.291211 0.892680
vt 0.329622 0.892680
vt 0.331759 0.869227
vt 0.292023 0.869227
vt 0.292024 0.059391
vt 0.331759 0.059391
vt 0.332605 0.015053
vt 0.295507 0.015053
vt 0.295507 0.882740
vt 0.332605 0.882740
vt 0.327771 0.879904
vt 0.294173 0.879904
vt 0.294173 0.012222
vt 0.327771 0.012222
vt 0.327771 0.879904
vt 0.325669 0.897064
vt 0.296275 0.897064
vt 0.294173 0.879904
vt 0.291211 0.892680
vt 0.293613 0.910030
vt 0.327220 0.910030
vt 0.329622 0.892680
vt 0.295507 0.882740
vt 0.297828 0.899900
vt 0.330284 0.899900
vt 0.332605 0.882740
vt 0.331759 0.869227
vt 0.329273 0.885243
vt 0.294508 0.885243
vt 0.292023 0.869227
vt 0.325669 0.897064
vt 0.319407 0.907163
vt 0.302537 0.907163
vt 0.296275 0.897064
vt 0.293613 0.910030
vt 0.300774 0.920241
vt 0.320061 0.920241
vt 0.327220 0.910030
vt 0.297828 0.899900
vt 0.304743 0.909999
vt 0.323369 0.909999
vt 0.330284 0.899900
vt 0.329273 0.885243
vt 0.321868 0.894668
vt 0.301915 0.894668
vt 0.294508 0.885243
vt 0.319407 0.907163
vt 0.314040 0.912222
vt 0.307904 0.912222
vt 0.302537 0.907163
vt 0.300774 0.920241
vt 0.306908 0.925356
vt 0.313925 0.925356
vt 0.320061 0.920241
vt 0.304743 0.909999
vt 0.310668 0.915058
vt 0.317444 0.915058
vt 0.323369 0.909999
vt 0.321868 0.894668
vt 0.315520 0.899390
vt 0.308262 0.899390
vt 0.301915 0.894668
vt 0.549714 0.711365
vt 0.517117 0.711365
vt 0.517117 0.238867
vt 0.549714 0.238867
vt 0.545370 0.470789
vt 0.545370 0.520734
vt 0.518077 0.520734
vt 0.518077 0.470789
vt 0.517117 0.234128
vt 0.549714 0.234128
vt 0.549714 0.706627
vt 0.517117 0.706627
vt 0.519037 0.653250
vt 0.519037 0.603304
vt 0.546329 0.603304
vt 0.546329 0.653250
vt 0.804442 0.282472
vt 0.831735 0.282472
vt 0.831735 0.754970
vt 0.804442 0.754970
vt 0.805141 0.280899
vt 0.832434 0.280899
vt 0.832434 0.753397
vt 0.805141 0.753397
vt 0.549714 0.711365
vt 0.517117 0.711365
vt 0.517117 0.238867
vt 0.549714 0.238867
vt 0.545370 0.470789
vt 0.545370 0.520734
vt 0.518077 0.520734
vt 0.518077 0.470789
vt 0.517117 0.234128
vt 0.549714 0.234128
vt 0.549714 0.706627
vt 0.517117 0.706627
vt 0.519037 0.653250
vt 0.519037 0.603304
vt 0.546329 0.603304
vt 0.546329 0.653250
vt 0.517378 0.238867
vt 0.544671 0.238867
vt 0.544671 0.711365
vt 0.517378 0.711365
vt 0.518077 0.237294
vt 0.545370 0.237294
vt 0.545370 0.709792
vt 0.518077 0.709792
# num_uvs: 336

g Form7
s 1

usemtl fence
f 9/1/9 11/2/11 12/3/12 10/4/10 
f 4/5/4 8/6/8 5/7/5 1/8/1 
f 1/9/1 5/10/5 6/11/6 2/12/2 
f 3/13/3 7/14/7 8/15/8 4/16/4 
f 4/17/4 1/18/1 2/19/2 3/20/3 
f 7/21/7 6/22/6 5/23/5 8/24/8 
f 7/25/7 13/26/13 14/27/14 6/28/6 
f 6/29/6 14/30/14 15/31/15 2/32/2 
f 2/33/2 15/34/15 16/35/16 3/36/3 
f 3/37/3 16/38/16 13/39/13 7/40/7 
f 13/41/13 17/42/17 18/43/18 14/44/14 
f 14/45/14 18/46/18 19/47/19 15/48/15 
f 15/49/15 19/50/19 20/51/20 16/52/16 
f 16/53/16 20/54/20 17/55/17 13/56/13 
f 17/57/17 12/58/12 11/59/11 18/60/18 
f 18/61/18 11/62/11 9/63/9 19/64/19 
f 19/65/19 9/66/9 10/67/10 20/68/20 
f 20/69/20 10/70/10 12/71/12 17/72/17 
f 37/73/37 39/74/39 40/75/40 38/76/38 
f 32/77/32 36/78/36 33/79/33 29/80/29 
f 29/81/29 33/82/33 34/83/34 30/84/30 
f 31/85/31 35/86/35 36/87/36 32/88/32 
f 32/89/32 29/90/29 30/91/30 31/92/31 
f 35/93/35 34/94/34 33/95/33 36/96/36 
f 35/97/35 41/98/41 42/99/42 34/100/34 
f 34/101/34 42/102/42 43/103/43 30/104/30 
f 30/105/30 43/106/43 44/107/44 31/108/31 
f 31/109/31 44/110/44 41/111/41 35/112/35 
f 41/113/41 45/114/45 46/115/46 42/116/42 
f 42/117/42 46/118/46 47/119/47 43/120/43 
f 43/121/43 47/122/47 48/123/48 44/124/44 
f 44/125/44 48/126/48 45/127/45 41/128/41 
f 45/129/45 40/130/40 39/131/39 46/132/46 
f 46/133/46 39/134/39 37/135/37 47/136/47 
f 47/137/47 37/138/37 38/139/38 48/140/48 
f 48/141/48 38/142/38 40/143/40 45/144/45 
f 57/145/57 59/146/59 60/147/60 58/148/58 
f 52/149/52 56/150/56 53/151/53 49/152/49 
f 49/153/49 53/154/53 54/155/54 50/156/50 
f 51/157/51 55/158/55 56/159/56 52/160/52 
f 52/161/52 49/162/49 50/163/50 51/164/51 
f 55/165/55 54/166/54 53/167/53 56/168/56 
f 55/169/55 61/170/61 62/171/62 54/172/54 
f 54/173/54 62/174/62 63/175/63 50/176/50 
f 50/177/50 63/178/63 64/179/64 51/180/51 
f 51/181/51 64/182/64 61/183/61 55/184/55 
f 61/185/61 65/186/65 66/187/66 62/188/62 
f 62/189/62 66/190/66 67/191/67 63/192/63 
f 63/193/63 67/194/67 68/195/68 64/196/64 
f 64/197/64 68/198/68 65/199/65 61/200/61 
f 65/201/65 60/202/60 59/203/59 66/204/66 
f 66/205/66 59/206/59 57/207/57 67/208/67 
f 67/209/67 57/210/57 58/211/58 68/212/68 
f 68/213/68 58/214/58 60/215/60 65/216/65 
f 77/217/77 79/218/79 80/219/80 78/220/78 
f 72/221/72 76/222/76 73/223/73 69/224/69 
f 69/225/69 73/226/73 74/227/74 70/228/70 
f 71/229/71 75/230/75 76/231/76 72/232/72 
f 72/233/72 69/234/69 70/235/70 71/236/71 
f 75/237/75 74/238/74 73/239/73 76/240/76 
f 75/241/75 81/242/81 82/243/82 74/244/74 
f 74/245/74 82/246/82 83/247/83 70/248/70 
f 70/249/70 83/250/83 84/251/84 71/252/71 
f 71/253/71 84/254/84 81/255/81 75/256/75 
f 81/257/81 85/258/85 86/259/86 82/260/82 
f 82/261/82 86/262/86 87/263/87 83/264/83 
f 83/265/83 87/266/87 88/267/88 84/268/84 
f 84/269/84 88/270/88 85/271/85 81/272/81 
f 85/273/85 80/274/80 79/275/79 86/276/86 
f 86/277/86 79/278/79 77/279/77 87/280/87 
f 87/281/87 77/282/77 78/283/78 88/284/88 
f 88/285/88 78/286/78 80/287/80 85/288/85 
# num_faces: 72

g Form9
s 2

usemtl fence
f 21/289/21 25/290/25 26/291/26 22/292/22 
f 22/293/22 26/294/26 27/295/27 23/296/23 
f 23/297/23 27/298/27 28/299/28 24/300/24 
f 24/301/24 28/302/28 25/303/25 21/304/21 
f 24/305/24 21/306/21 22/307/22 23/308/23 
f 27/309/27 26/310/26 25/311/25 28/312/28 
f 89/313/89 93/314/93 94/315/94 90/316/90 
f 90/317/90 94/318/94 95/319/95 91/320/91 
f 91/321/91 95/322/95 96/323/96 92/324/92 
f 92/325/92 96/326/96 93/327/93 89/328/89 
f 92/329/92 89/330/89 90/331/90 91/332/91 
f 95/333/95 94/334/94 93/335/93 96/336/96 
# num_faces: 12

