# Wavefront OBJ file
# Creator: Ultimate Unwrap3D v2.29
# Time: Tue Apr 17 20:26:12 2007
# num_vertices: 8
# num_vertex_normals: 8
# num_uvs: 24
# num_faces: 6
# num_groups: 1

mtllib wildwestpack_skycube.mtl

v -2.000000 2.000000 2.000000
v 2.000000 2.000000 2.000000
v -2.000000 -2.000000 2.000000
v 2.000000 -2.000000 2.000000
v -2.000000 2.000000 -2.000000
v 2.000000 2.000000 -2.000000
v -2.000000 -2.000000 -2.000000
v 2.000000 -2.000000 -2.000000
# num_vertices: 8

vn 0.577350 -0.577350 -0.577350
vn -0.577350 -0.577350 -0.577350
vn 0.577350 0.577350 -0.577350
vn -0.577350 0.577350 -0.577350
vn 0.577350 -0.577350 0.577350
vn -0.577350 -0.577350 0.577350
vn 0.577350 0.577350 0.577350
vn -0.577350 0.577350 0.577350
# num_vertex_normals: 8

vt 0.000412 0.999539
vt 0.999454 0.999513
vt 0.999054 -0.000185
vt -0.000264 0.000274
vt 0.999705 0.999795
vt 0.999193 0.000794
vt 0.000027 -0.000123
vt 0.000417 0.999795
vt 0.999192 0.999379
vt 0.999354 0.000600
vt 0.000199 0.000370
vt 0.000887 0.999141
vt 0.998982 0.999036
vt 0.999373 0.001074
vt 0.000667 -0.000068
vt 0.000351 0.999748
vt 0.999197 0.998937
vt 0.999755 0.000257
vt 0.000245 0.000315
vt 0.000322 0.999720
vt 0.001232 0.998918
vt 0.999333 0.999782
vt 0.999956 0.000222
vt 0.000251 0.000282
# num_uvs: 24

g sky
s 1

usemtl top
f 5/1/5 6/2/6 2/3/2 1/4/1 
usemtl 1
f 2/5/2 4/6/4 3/7/3 1/8/1 
usemtl 2
f 5/9/5 7/10/7 8/11/8 6/12/6 
usemtl 3
f 6/13/6 8/14/8 4/15/4 2/16/2 
usemtl 4
f 1/17/1 3/18/3 7/19/7 5/20/5 
usemtl bottom
f 3/21/3 4/22/4 8/23/8 7/24/7 
# num_faces: 6

