0
SECTION
2
HEADER
0
ENDSEC
0
SECTION
2
ENTITIES
0
3DFACE
8
0
62
1
10
-25.253599
20
22.249800
30
-1.877980
11
-25.253599
21
27.524599
31
-1.683600
12
-25.253599
22
22.281799
32
4.266050
13
-25.253599
23
22.281799
33
4.266050
0
3DFACE
8
0
62
1
10
-25.253599
20
27.524599
30
-1.683600
11
-25.253599
21
27.556601
31
4.460430
12
-25.253599
22
22.281799
32
4.266050
13
-25.253599
23
22.281799
33
4.266050
0
3DFACE
8
0
62
1
10
-29.395399
20
26.899900
30
-1.078310
11
-29.395399
21
22.881100
31
-1.226410
12
-29.395399
22
26.925400
32
3.808860
13
-29.395399
23
26.925400
33
3.808860
0
3DFACE
8
0
62
1
10
-29.395399
20
22.881100
30
-1.226410
11
-29.395399
21
22.906500
31
3.660760
12
-29.395399
22
26.925400
32
3.808860
13
-29.395399
23
26.925400
33
3.808860
0
3DFACE
8
0
62
1
10
-25.253599
20
27.524599
30
-1.683600
11
-30.135500
21
27.524599
31
-1.683600
12
-25.253599
22
27.556601
32
4.460430
13
-25.253599
23
27.556601
33
4.460430
0
3DFACE
8
0
62
1
10
-30.135500
20
27.524599
30
-1.683600
11
-30.135500
21
27.556601
31
4.460430
12
-25.253599
22
27.556601
32
4.460430
13
-25.253599
23
27.556601
33
4.460430
0
3DFACE
8
0
62
1
10
-30.135500
20
22.249800
30
-1.877980
11
-25.253599
21
22.249800
31
-1.877980
12
-30.135500
22
22.281799
32
4.266050
13
-30.135500
23
22.281799
33
4.266050
0
3DFACE
8
0
62
1
10
-25.253599
20
22.249800
30
-1.877980
11
-25.253599
21
22.281799
31
4.266050
12
-30.135500
22
22.281799
32
4.266050
13
-30.135500
23
22.281799
33
4.266050
0
3DFACE
8
0
62
1
10
-25.253599
20
22.249800
30
-1.877980
11
-30.135500
21
22.249800
31
-1.877980
12
-25.253599
22
27.524599
32
-1.683600
13
-25.253599
23
27.524599
33
-1.683600
0
3DFACE
8
0
62
1
10
-30.135500
20
22.249800
30
-1.877980
11
-30.135500
21
27.524599
31
-1.683600
12
-25.253599
22
27.524599
32
-1.683600
13
-25.253599
23
27.524599
33
-1.683600
0
3DFACE
8
0
62
1
10
-30.135500
20
22.281799
30
4.266050
11
-25.253599
21
22.281799
31
4.266050
12
-30.135500
22
27.556601
32
4.460430
13
-30.135500
23
27.556601
33
4.460430
0
3DFACE
8
0
62
1
10
-25.253599
20
22.281799
30
4.266050
11
-25.253599
21
27.556601
31
4.460430
12
-30.135500
22
27.556601
32
4.460430
13
-30.135500
23
27.556601
33
4.460430
0
3DFACE
8
0
62
1
10
-30.135500
20
22.906500
30
3.660760
11
-30.135500
21
22.881100
31
-1.226410
12
-30.135500
22
22.281799
32
4.266050
13
-30.135500
23
22.281799
33
4.266050
0
3DFACE
8
0
62
1
10
-30.135500
20
22.881100
30
-1.226410
11
-30.135500
21
22.249800
31
-1.877980
12
-30.135500
22
22.281799
32
4.266050
13
-30.135500
23
22.281799
33
4.266050
0
3DFACE
8
0
62
1
10
-30.135500
20
26.925400
30
3.808860
11
-30.135500
21
22.906500
31
3.660760
12
-30.135500
22
27.556601
32
4.460430
13
-30.135500
23
27.556601
33
4.460430
0
3DFACE
8
0
62
1
10
-30.135500
20
22.906500
30
3.660760
11
-30.135500
21
22.281799
31
4.266050
12
-30.135500
22
27.556601
32
4.460430
13
-30.135500
23
27.556601
33
4.460430
0
3DFACE
8
0
62
1
10
-30.135500
20
26.899900
30
-1.078310
11
-30.135500
21
26.925400
31
3.808860
12
-30.135500
22
27.524599
32
-1.683600
13
-30.135500
23
27.524599
33
-1.683600
0
3DFACE
8
0
62
1
10
-30.135500
20
26.925400
30
3.808860
11
-30.135500
21
27.556601
31
4.460430
12
-30.135500
22
27.524599
32
-1.683600
13
-30.135500
23
27.524599
33
-1.683600
0
3DFACE
8
0
62
1
10
-30.135500
20
22.881100
30
-1.226410
11
-30.135500
21
26.899900
31
-1.078310
12
-30.135500
22
22.249800
32
-1.877980
13
-30.135500
23
22.249800
33
-1.877980
0
3DFACE
8
0
62
1
10
-30.135500
20
26.899900
30
-1.078310
11
-30.135500
21
27.524599
31
-1.683600
12
-30.135500
22
22.249800
32
-1.877980
13
-30.135500
23
22.249800
33
-1.877980
0
3DFACE
8
0
62
1
10
-29.395399
20
26.925400
30
3.808860
11
-30.135500
21
26.925400
31
3.808860
12
-29.395399
22
26.899900
32
-1.078310
13
-29.395399
23
26.899900
33
-1.078310
0
3DFACE
8
0
62
1
10
-30.135500
20
26.925400
30
3.808860
11
-30.135500
21
26.899900
31
-1.078310
12
-29.395399
22
26.899900
32
-1.078310
13
-29.395399
23
26.899900
33
-1.078310
0
3DFACE
8
0
62
1
10
-29.395399
20
26.899900
30
-1.078310
11
-30.135500
21
26.899900
31
-1.078310
12
-29.395399
22
22.881100
32
-1.226410
13
-29.395399
23
22.881100
33
-1.226410
0
3DFACE
8
0
62
1
10
-30.135500
20
26.899900
30
-1.078310
11
-30.135500
21
22.881100
31
-1.226410
12
-29.395399
22
22.881100
32
-1.226410
13
-29.395399
23
22.881100
33
-1.226410
0
3DFACE
8
0
62
1
10
-29.395399
20
22.906500
30
3.660760
11
-30.135500
21
22.906500
31
3.660760
12
-29.395399
22
26.925400
32
3.808860
13
-29.395399
23
26.925400
33
3.808860
0
3DFACE
8
0
62
1
10
-30.135500
20
22.906500
30
3.660760
11
-30.135500
21
26.925400
31
3.808860
12
-29.395399
22
26.925400
32
3.808860
13
-29.395399
23
26.925400
33
3.808860
0
3DFACE
8
0
62
1
10
-29.395399
20
22.881100
30
-1.226410
11
-30.135500
21
22.881100
31
-1.226410
12
-29.395399
22
22.906500
32
3.660760
13
-29.395399
23
22.906500
33
3.660760
0
3DFACE
8
0
62
1
10
-30.135500
20
22.881100
30
-1.226410
11
-30.135500
21
22.906500
31
3.660760
12
-29.395399
22
22.906500
32
3.660760
13
-29.395399
23
22.906500
33
3.660760
0
3DFACE
8
0
62
1
10
8.030900
20
18.463800
30
-17.510099
11
-32.650501
21
18.463800
31
-17.510099
12
4.199550
22
24.328699
32
-14.790400
13
4.199550
23
24.328699
33
-14.790400
0
3DFACE
8
0
62
1
10
-32.650501
20
18.463800
30
-17.510099
11
-28.819201
21
24.328699
31
-14.790400
12
4.199550
22
24.328699
32
-14.790400
13
4.199550
23
24.328699
33
-14.790400
0
3DFACE
8
0
62
1
10
-26.826599
20
26.676100
30
-13.239800
11
2.206990
21
26.676100
31
-13.239800
12
-28.819201
22
24.328699
32
-14.790400
13
-28.819201
23
24.328699
33
-14.790400
0
3DFACE
8
0
62
1
10
2.206990
20
26.676100
30
-13.239800
11
4.199550
21
24.328699
31
-14.790400
12
-28.819201
22
24.328699
32
-14.790400
13
-28.819201
23
24.328699
33
-14.790400
0
3DFACE
8
0
62
1
10
-29.297899
20
26.286699
30
12.782000
11
-26.601700
21
29.563000
31
10.773600
12
-26.826599
22
26.237200
32
12.782300
13
-26.826599
23
26.237200
33
12.782300
0
3DFACE
8
0
62
1
10
-26.601700
20
29.563000
30
10.773600
11
-24.130400
21
29.513500
31
10.773800
12
-26.826599
22
26.237200
32
12.782300
13
-26.826599
23
26.237200
33
12.782300
0
3DFACE
8
0
62
1
10
-26.601700
20
29.563000
30
10.773600
11
-24.684401
21
32.517601
31
4.346040
12
-24.130400
22
29.513500
32
10.773800
13
-24.130400
23
29.513500
33
10.773800
0
3DFACE
8
0
62
1
10
-24.684401
20
32.517601
30
4.346040
11
-22.213200
21
32.468102
31
4.346280
12
-24.130400
22
29.513500
32
10.773800
13
-24.130400
23
29.513500
33
10.773800
0
3DFACE
8
0
62
1
10
-24.684401
20
32.517601
30
4.346040
11
-22.034599
21
33.982101
31
0.053659
12
-22.213200
22
32.468102
32
4.346280
13
-22.213200
23
32.468102
33
4.346280
0
3DFACE
8
0
62
1
10
-22.034599
20
33.982101
30
0.053659
11
-19.563299
21
33.932598
31
0.053904
12
-22.213200
22
32.468102
32
4.346280
13
-22.213200
23
32.468102
33
4.346280
0
3DFACE
8
0
62
1
10
-31.290400
20
23.939199
30
14.332600
11
-29.297899
21
26.286699
31
12.782000
12
-28.819201
22
23.889799
32
14.332900
13
-28.819201
23
23.889799
33
14.332900
0
3DFACE
8
0
62
1
10
-29.297899
20
26.286699
30
12.782000
11
-26.826599
21
26.237200
31
12.782300
12
-28.819201
22
23.889799
32
14.332900
13
-28.819201
23
23.889799
33
14.332900
0
3DFACE
8
0
62
1
10
-29.297899
20
26.685801
30
13.198000
11
-26.601700
21
29.962099
31
11.189500
12
-29.297899
22
26.286699
32
12.782000
13
-29.297899
23
26.286699
33
12.782000
0
3DFACE
8
0
62
1
10
-26.601700
20
29.962099
30
11.189500
11
-26.601700
21
29.563000
31
10.773600
12
-29.297899
22
26.286699
32
12.782000
13
-29.297899
23
26.286699
33
12.782000
0
3DFACE
8
0
62
1
10
-26.601700
20
29.962099
30
11.189500
11
-24.684401
21
32.916698
31
4.762000
12
-26.601700
22
29.563000
32
10.773600
13
-26.601700
23
29.563000
33
10.773600
0
3DFACE
8
0
62
1
10
-24.684401
20
32.916698
30
4.762000
11
-24.684401
21
32.517601
31
4.346040
12
-26.601700
22
29.563000
32
10.773600
13
-26.601700
23
29.563000
33
10.773600
0
3DFACE
8
0
62
1
10
-22.034599
20
33.982101
30
0.053659
11
-24.684401
21
32.517601
31
4.346040
12
-24.684401
22
32.916698
32
4.762000
13
-24.684401
23
32.916698
33
4.762000
0
3DFACE
8
0
62
1
10
-22.034599
20
33.982101
30
0.053659
11
-24.684401
21
32.916698
31
4.762000
12
-22.034599
22
34.381199
32
0.034756
13
-22.034599
23
34.381199
33
0.034756
0
3DFACE
8
0
62
1
10
-22.034599
20
33.982101
30
0.053659
11
-24.684401
21
32.517601
31
-4.346530
12
-19.563299
22
33.932598
32
0.053904
13
-19.563299
23
33.932598
33
0.053904
0
3DFACE
8
0
62
1
10
-24.684401
20
32.517601
30
-4.346530
11
-22.213200
21
32.468102
31
-4.346280
12
-19.563299
22
33.932598
32
0.053904
13
-19.563299
23
33.932598
33
0.053904
0
3DFACE
8
0
62
1
10
-22.034599
20
33.982101
30
0.053659
11
-22.034599
21
34.381199
31
0.034756
12
-24.684401
22
32.956501
32
-4.804010
13
-24.684401
23
32.956501
33
-4.804010
0
3DFACE
8
0
62
1
10
-31.290400
20
24.338400
30
14.748600
11
-29.297899
21
26.685801
31
13.198000
12
-31.290400
22
23.939199
32
14.332600
13
-31.290400
23
23.939199
33
14.332600
0
3DFACE
8
0
62
1
10
-29.297899
20
26.685801
30
13.198000
11
-29.297899
21
26.286699
31
12.782000
12
-31.290400
22
23.939199
32
14.332600
13
-31.290400
23
23.939199
33
14.332600
0
3DFACE
8
0
62
1
10
-35.121799
20
18.074301
30
17.052299
11
-31.290400
21
23.939199
31
14.332600
12
-32.650501
22
18.024799
32
17.052601
13
-32.650501
23
18.024799
33
17.052601
0
3DFACE
8
0
62
1
10
-31.290400
20
23.939199
30
14.332600
11
-28.819201
21
23.889799
31
14.332900
12
-32.650501
22
18.024799
32
17.052601
13
-32.650501
23
18.024799
33
17.052601
0
3DFACE
8
0
62
1
10
-35.121799
20
18.473400
30
17.468300
11
-31.290400
21
24.338400
31
14.748600
12
-35.121799
22
18.074301
32
17.052299
13
-35.121799
23
18.074301
33
17.052299
0
3DFACE
8
0
62
1
10
-31.290400
20
24.338400
30
14.748600
11
-31.290400
21
23.939199
31
14.332600
12
-35.121799
22
18.074301
32
17.052299
13
-35.121799
23
18.074301
33
17.052299
0
3DFACE
8
0
62
1
10
-24.684401
20
32.517601
30
-4.346530
11
-22.034599
21
33.982101
31
0.053659
12
-24.684401
22
32.956501
32
-4.804010
13
-24.684401
23
32.956501
33
-4.804010
0
3DFACE
8
0
62
1
10
-35.121799
20
15.631700
30
18.718201
11
-35.121799
21
16.749399
31
17.960300
12
-35.121799
22
14.773800
32
19.760599
13
-35.121799
23
14.773800
33
19.760599
0
3DFACE
8
0
62
1
10
-35.121799
20
16.749399
30
17.960300
11
-35.121799
21
18.473400
31
17.468300
12
-35.121799
22
14.773800
32
19.760599
13
-35.121799
23
14.773800
33
19.760599
0
3DFACE
8
0
62
1
10
-35.121799
20
14.773800
30
19.760599
11
-35.121799
21
18.473400
31
17.468300
12
-35.121799
22
14.329500
32
19.393400
13
-35.121799
23
14.329500
33
19.393400
0
3DFACE
8
0
62
1
10
-35.121799
20
18.473400
30
17.468300
11
-35.121799
21
18.074301
31
17.052299
12
-35.121799
22
14.329500
32
19.393400
13
-35.121799
23
14.329500
33
19.393400
0
3DFACE
8
0
62
1
10
-35.121799
20
14.329500
30
19.393400
11
-35.121799
21
18.074301
31
17.052299
12
-35.121799
22
15.244100
32
18.291500
13
-35.121799
23
15.244100
33
18.291500
0
3DFACE
8
0
62
1
10
-35.121799
20
18.074301
30
17.052299
11
-35.121799
21
16.510300
31
17.435801
12
-35.121799
22
15.244100
32
18.291500
13
-35.121799
23
15.244100
33
18.291500
0
3DFACE
8
0
62
1
10
-35.121799
20
16.510300
30
17.435801
11
-35.121799
21
18.074301
31
17.052299
12
-32.650501
22
16.460800
32
17.436001
13
-32.650501
23
16.460800
33
17.436001
0
3DFACE
8
0
62
1
10
-35.121799
20
18.074301
30
17.052299
11
-32.650501
21
18.024799
31
17.052601
12
-32.650501
22
16.460800
32
17.436001
13
-32.650501
23
16.460800
33
17.436001
0
3DFACE
8
0
62
1
10
-26.601700
20
29.563000
30
-10.774100
11
-29.297899
21
26.286699
31
-12.782500
12
-24.130400
22
29.513500
32
-10.773800
13
-24.130400
23
29.513500
33
-10.773800
0
3DFACE
8
0
62
1
10
-29.297899
20
26.286699
30
-12.782500
11
-26.826599
21
26.237200
31
-12.782300
12
-24.130400
22
29.513500
32
-10.773800
13
-24.130400
23
29.513500
33
-10.773800
0
3DFACE
8
0
62
1
10
-29.297899
20
26.286699
30
-12.782500
11
-31.290400
21
23.939199
31
-14.333100
12
-26.826599
22
26.237200
32
-12.782300
13
-26.826599
23
26.237200
33
-12.782300
0
3DFACE
8
0
62
1
10
-31.290400
20
23.939199
30
-14.333100
11
-28.819201
21
23.889799
31
-14.332900
12
-26.826599
22
26.237200
32
-12.782300
13
-26.826599
23
26.237200
33
-12.782300
0
3DFACE
8
0
62
1
10
-26.601700
20
29.563000
30
-10.774100
11
-24.130400
21
29.513500
31
-10.773800
12
-24.684401
22
32.517601
32
-4.346530
13
-24.684401
23
32.517601
33
-4.346530
0
3DFACE
8
0
62
1
10
-24.130400
20
29.513500
30
-10.773800
11
-22.213200
21
32.468102
31
-4.346280
12
-24.684401
22
32.517601
32
-4.346530
13
-24.684401
23
32.517601
33
-4.346530
0
3DFACE
8
0
62
1
10
-26.601700
20
29.563000
30
-10.774100
11
-24.684401
21
32.517601
31
-4.346530
12
-26.601700
22
30.002001
32
-11.231500
13
-26.601700
23
30.002001
33
-11.231500
0
3DFACE
8
0
62
1
10
-24.684401
20
32.517601
30
-4.346530
11
-24.684401
21
32.956501
31
-4.804010
12
-26.601700
22
30.002001
32
-11.231500
13
-26.601700
23
30.002001
33
-11.231500
0
3DFACE
8
0
62
1
10
-26.601700
20
30.002001
30
-11.231500
11
-29.297899
21
26.725599
31
-13.240000
12
-26.601700
22
29.563000
32
-10.774100
13
-26.601700
23
29.563000
33
-10.774100
0
3DFACE
8
0
62
1
10
-29.297899
20
26.725599
30
-13.240000
11
-29.297899
21
26.286699
31
-12.782500
12
-26.601700
22
29.563000
32
-10.774100
13
-26.601700
23
29.563000
33
-10.774100
0
3DFACE
8
0
62
1
10
-29.297899
20
26.725599
30
-13.240000
11
-26.601700
21
30.002001
31
-11.231500
12
-26.826599
22
26.676100
32
-13.239800
13
-26.826599
23
26.676100
33
-13.239800
0
3DFACE
8
0
62
1
10
-26.601700
20
30.002001
30
-11.231500
11
-24.130400
21
29.952499
31
-11.231300
12
-26.826599
22
26.676100
32
-13.239800
13
-26.826599
23
26.676100
33
-13.239800
0
3DFACE
8
0
62
1
10
-26.601700
20
30.002001
30
-11.231500
11
-24.684401
21
32.956501
31
-4.804010
12
-24.130400
22
29.952499
32
-11.231300
13
-24.130400
23
29.952499
33
-11.231300
0
3DFACE
8
0
62
1
10
-24.684401
20
32.956501
30
-4.804010
11
-22.213200
21
32.907101
31
-4.803760
12
-24.130400
22
29.952499
32
-11.231300
13
-24.130400
23
29.952499
33
-11.231300
0
3DFACE
8
0
62
1
10
-22.213200
20
32.907101
30
-4.803760
11
-24.684401
21
32.956501
31
-4.804010
12
-19.563299
22
34.331699
32
0.035000
13
-19.563299
23
34.331699
33
0.035000
0
3DFACE
8
0
62
1
10
-24.684401
20
32.956501
30
-4.804010
11
-22.034599
21
34.381199
31
0.034756
12
-19.563299
22
34.331699
32
0.035000
13
-19.563299
23
34.331699
33
0.035000
0
3DFACE
8
0
62
1
10
-31.290400
20
24.378201
30
-14.790600
11
-29.297899
21
26.725599
31
-13.240000
12
-28.819201
22
24.328699
32
-14.790400
13
-28.819201
23
24.328699
33
-14.790400
0
3DFACE
8
0
62
1
10
-29.297899
20
26.725599
30
-13.240000
11
-26.826599
21
26.676100
31
-13.239800
12
-28.819201
22
24.328699
32
-14.790400
13
-28.819201
23
24.328699
33
-14.790400
0
3DFACE
8
0
62
1
10
-31.290400
20
24.378201
30
-14.790600
11
-28.819201
21
24.328699
31
-14.790400
12
-35.121799
22
18.513300
32
-17.510300
13
-35.121799
23
18.513300
33
-17.510300
0
3DFACE
8
0
62
1
10
-28.819201
20
24.328699
30
-14.790400
11
-32.650501
21
18.463800
31
-17.510099
12
-35.121799
22
18.513300
32
-17.510300
13
-35.121799
23
18.513300
33
-17.510300
0
3DFACE
8
0
62
1
10
-19.563299
20
34.331699
30
0.035000
11
-22.034599
21
34.381199
31
0.034756
12
-22.213200
22
32.867199
32
4.762250
13
-22.213200
23
32.867199
33
4.762250
0
3DFACE
8
0
62
1
10
-22.034599
20
34.381199
30
0.034756
11
-24.684401
21
32.916698
31
4.762000
12
-22.213200
22
32.867199
32
4.762250
13
-22.213200
23
32.867199
33
4.762250
0
3DFACE
8
0
62
1
10
-35.121799
20
18.074301
30
-17.052799
11
-35.121799
21
16.501101
31
-17.705900
12
-32.650501
22
18.024799
32
-17.052601
13
-32.650501
23
18.024799
33
-17.052601
0
3DFACE
8
0
62
1
10
-35.121799
20
16.501101
30
-17.705900
11
-32.650501
21
16.451700
31
-17.705601
12
-32.650501
22
18.024799
32
-17.052601
13
-32.650501
23
18.024799
33
-17.052601
0
3DFACE
8
0
62
1
10
-31.290400
20
23.939199
30
-14.333100
11
-35.121799
21
18.074301
31
-17.052799
12
-28.819201
22
23.889799
32
-14.332900
13
-28.819201
23
23.889799
33
-14.332900
0
3DFACE
8
0
62
1
10
-35.121799
20
18.074301
30
-17.052799
11
-32.650501
21
18.024799
31
-17.052601
12
-28.819201
22
23.889799
32
-14.332900
13
-28.819201
23
23.889799
33
-14.332900
0
3DFACE
8
0
62
1
10
-31.290400
20
23.939199
30
-14.333100
11
-29.297899
21
26.286699
31
-12.782500
12
-31.290400
22
24.378201
32
-14.790600
13
-31.290400
23
24.378201
33
-14.790600
0
3DFACE
8
0
62
1
10
-29.297899
20
26.286699
30
-12.782500
11
-29.297899
21
26.725599
31
-13.240000
12
-31.290400
22
24.378201
32
-14.790600
13
-31.290400
23
24.378201
33
-14.790600
0
3DFACE
8
0
62
1
10
-31.290400
20
24.378201
30
-14.790600
11
-35.121799
21
18.513300
31
-17.510300
12
-31.290400
22
23.939199
32
-14.333100
13
-31.290400
23
23.939199
33
-14.333100
0
3DFACE
8
0
62
1
10
-35.121799
20
18.513300
30
-17.510300
11
-35.121799
21
18.074301
31
-17.052799
12
-31.290400
22
23.939199
32
-14.333100
13
-31.290400
23
23.939199
33
-14.333100
0
3DFACE
8
0
62
1
10
-35.121799
20
16.810301
30
-18.259399
11
-35.121799
21
18.513300
31
-17.510300
12
-32.650501
22
16.760799
32
-18.259100
13
-32.650501
23
16.760799
33
-18.259100
0
3DFACE
8
0
62
1
10
-35.121799
20
18.513300
30
-17.510300
11
-32.650501
21
18.463800
31
-17.510099
12
-32.650501
22
16.760799
32
-18.259100
13
-32.650501
23
16.760799
33
-18.259100
0
3DFACE
8
0
62
1
10
-35.121799
20
13.654000
30
-19.031500
11
-35.121799
21
16.501101
31
-17.705900
12
-35.121799
22
13.628400
32
-19.836000
13
-35.121799
23
13.628400
33
-19.836000
0
3DFACE
8
0
62
1
10
-35.121799
20
16.501101
30
-17.705900
11
-35.121799
21
18.074301
31
-17.052799
12
-35.121799
22
13.628400
32
-19.836000
13
-35.121799
23
13.628400
33
-19.836000
0
3DFACE
8
0
62
1
10
-35.121799
20
13.628400
30
-19.836000
11
-35.121799
21
18.074301
31
-17.052799
12
-35.121799
22
15.290900
32
-19.827299
13
-35.121799
23
15.290900
33
-19.827299
0
3DFACE
8
0
62
1
10
-35.121799
20
18.074301
30
-17.052799
11
-35.121799
21
18.513300
31
-17.510300
12
-35.121799
22
15.290900
32
-19.827299
13
-35.121799
23
15.290900
33
-19.827299
0
3DFACE
8
0
62
1
10
-35.121799
20
15.290900
30
-19.827299
11
-35.121799
21
18.513300
31
-17.510300
12
-35.121799
22
15.247400
32
-19.319401
13
-35.121799
23
15.247400
33
-19.319401
0
3DFACE
8
0
62
1
10
-35.121799
20
18.513300
30
-17.510300
11
-35.121799
21
16.810301
31
-18.259399
12
-35.121799
22
15.247400
32
-19.319401
13
-35.121799
23
15.247400
33
-19.319401
0
3DFACE
8
0
62
1
10
-35.121799
20
15.290900
30
-19.827299
11
-35.121799
21
15.247400
31
-19.319401
12
-32.650501
22
15.241400
32
-19.827101
13
-32.650501
23
15.241400
33
-19.827101
0
3DFACE
8
0
62
1
10
-35.121799
20
15.247400
30
-19.319401
11
-32.650501
21
15.197900
31
-19.319099
12
-32.650501
22
15.241400
32
-19.827101
13
-32.650501
23
15.241400
33
-19.827101
0
3DFACE
8
0
62
1
10
-35.121799
20
13.654000
30
-19.031500
11
-32.650501
21
13.026000
31
-19.031200
12
-35.121799
22
16.501101
32
-17.705900
13
-35.121799
23
16.501101
33
-17.705900
0
3DFACE
8
0
62
1
10
-32.650501
20
13.026000
30
-19.031200
11
-32.650501
21
16.451700
31
-17.705601
12
-35.121799
22
16.501101
32
-17.705900
13
-35.121799
23
16.501101
33
-17.705900
0
3DFACE
8
0
62
1
10
-35.121799
20
15.247400
30
-19.319401
11
-35.121799
21
16.810301
31
-18.259399
12
-32.650501
22
15.197900
32
-19.319099
13
-32.650501
23
15.197900
33
-19.319099
0
3DFACE
8
0
62
1
10
-35.121799
20
16.810301
30
-18.259399
11
-32.650501
21
16.760799
31
-18.259100
12
-32.650501
22
15.197900
32
-19.319099
13
-32.650501
23
15.197900
33
-19.319099
0
3DFACE
8
0
62
1
10
-35.121799
20
13.628400
30
-19.836000
11
-35.121799
21
15.290900
31
-19.827299
12
-32.650501
22
13.000400
32
-19.835800
13
-32.650501
23
13.000400
33
-19.835800
0
3DFACE
8
0
62
1
10
-35.121799
20
15.290900
30
-19.827299
11
-32.650501
21
15.241400
31
-19.827101
12
-32.650501
22
13.000400
32
-19.835800
13
-32.650501
23
13.000400
33
-19.835800
0
3DFACE
8
0
62
1
10
-35.121799
20
13.654000
30
-19.031500
11
-35.121799
21
13.628400
31
-19.836000
12
-32.650501
22
13.026000
32
-19.031200
13
-32.650501
23
13.026000
33
-19.031200
0
3DFACE
8
0
62
1
10
-35.121799
20
13.628400
30
-19.836000
11
-32.650501
21
13.000400
31
-19.835800
12
-32.650501
22
13.026000
32
-19.031200
13
-32.650501
23
13.026000
33
-19.031200
0
3DFACE
8
0
62
1
10
-32.650501
20
16.460800
30
17.436001
11
-32.650501
21
15.194600
31
18.291800
12
-35.121799
22
16.510300
32
17.435801
13
-35.121799
23
16.510300
33
17.435801
0
3DFACE
8
0
62
1
10
-32.650501
20
15.194600
30
18.291800
11
-35.121799
21
15.244100
31
18.291500
12
-35.121799
22
16.510300
32
17.435801
13
-35.121799
23
16.510300
33
17.435801
0
3DFACE
8
0
62
1
10
-32.650501
20
15.194600
30
18.291800
11
-32.650501
21
14.280000
31
19.393600
12
-35.121799
22
15.244100
32
18.291500
13
-35.121799
23
15.244100
33
18.291500
0
3DFACE
8
0
62
1
10
-32.650501
20
14.280000
30
19.393600
11
-35.121799
21
14.329500
31
19.393400
12
-35.121799
22
15.244100
32
18.291500
13
-35.121799
23
15.244100
33
18.291500
0
3DFACE
8
0
62
1
10
-32.650501
20
16.699900
30
17.960600
11
-32.650501
21
18.423901
31
17.468599
12
-35.121799
22
16.749399
32
17.960300
13
-35.121799
23
16.749399
33
17.960300
0
3DFACE
8
0
62
1
10
-32.650501
20
18.423901
30
17.468599
11
-35.121799
21
18.473400
31
17.468300
12
-35.121799
22
16.749399
32
17.960300
13
-35.121799
23
16.749399
33
17.960300
0
3DFACE
8
0
62
1
10
-28.819201
20
24.288900
30
14.748900
11
-31.290400
21
24.338400
31
14.748600
12
-32.650501
22
18.423901
32
17.468599
13
-32.650501
23
18.423901
33
17.468599
0
3DFACE
8
0
62
1
10
-31.290400
20
24.338400
30
14.748600
11
-35.121799
21
18.473400
31
17.468300
12
-32.650501
22
18.423901
32
17.468599
13
-32.650501
23
18.423901
33
17.468599
0
3DFACE
8
0
62
1
10
-28.819201
20
24.288900
30
14.748900
11
-26.826599
21
26.636299
31
13.198200
12
-31.290400
22
24.338400
32
14.748600
13
-31.290400
23
24.338400
33
14.748600
0
3DFACE
8
0
62
1
10
-26.826599
20
26.636299
30
13.198200
11
-29.297899
21
26.685801
31
13.198000
12
-31.290400
22
24.338400
32
14.748600
13
-31.290400
23
24.338400
33
14.748600
0
3DFACE
8
0
62
1
10
-26.826599
20
26.636299
30
13.198200
11
-24.130400
21
29.912600
31
11.189800
12
-29.297899
22
26.685801
32
13.198000
13
-29.297899
23
26.685801
33
13.198000
0
3DFACE
8
0
62
1
10
-24.130400
20
29.912600
30
11.189800
11
-26.601700
21
29.962099
31
11.189500
12
-29.297899
22
26.685801
32
13.198000
13
-29.297899
23
26.685801
33
13.198000
0
3DFACE
8
0
62
1
10
-32.650501
20
15.582200
30
18.718399
11
-32.650501
21
16.699900
31
17.960600
12
-35.121799
22
15.631700
32
18.718201
13
-35.121799
23
15.631700
33
18.718201
0
3DFACE
8
0
62
1
10
-32.650501
20
16.699900
30
17.960600
11
-35.121799
21
16.749399
31
17.960300
12
-35.121799
22
15.631700
32
18.718201
13
-35.121799
23
15.631700
33
18.718201
0
3DFACE
8
0
62
1
10
-26.940001
20
15.582200
30
18.718399
11
-0.783427
21
15.582200
31
18.718399
12
-32.650501
22
15.582200
32
18.718399
13
-32.650501
23
15.582200
33
18.718399
0
3DFACE
8
0
62
1
10
-0.783427
20
15.582200
30
18.718399
11
8.030900
21
15.582200
31
18.718399
12
-32.650501
22
15.582200
32
18.718399
13
-32.650501
23
15.582200
33
18.718399
0
3DFACE
8
0
62
1
10
-32.650501
20
15.582200
30
18.718399
11
8.030900
21
15.582200
31
18.718399
12
-32.650501
22
16.699900
32
17.960600
13
-32.650501
23
16.699900
33
17.960600
0
3DFACE
8
0
62
1
10
8.030900
20
15.582200
30
18.718399
11
8.030900
21
16.699900
31
17.960600
12
-32.650501
22
16.699900
32
17.960600
13
-32.650501
23
16.699900
33
17.960600
0
3DFACE
8
0
62
1
10
-22.213200
20
32.867199
30
4.762250
11
-24.684401
21
32.916698
31
4.762000
12
-24.130400
22
29.912600
32
11.189800
13
-24.130400
23
29.912600
33
11.189800
0
3DFACE
8
0
62
1
10
-24.684401
20
32.916698
30
4.762000
11
-26.601700
21
29.962099
31
11.189500
12
-24.130400
22
29.912600
32
11.189800
13
-24.130400
23
29.912600
33
11.189800
0
3DFACE
8
0
62
1
10
-5.056270
20
34.331699
30
0.035000
11
-19.563299
21
34.331699
31
0.035000
12
-2.406440
22
32.867199
32
4.762250
13
-2.406440
23
32.867199
33
4.762250
0
3DFACE
8
0
62
1
10
-19.563299
20
34.331699
30
0.035000
11
-22.213200
21
32.867199
31
4.762250
12
-2.406440
22
32.867199
32
4.762250
13
-2.406440
23
32.867199
33
4.762250
0
3DFACE
8
0
62
1
10
-32.650501
20
14.280000
30
19.393600
11
-32.650501
21
14.724300
31
19.760900
12
-35.121799
22
14.329500
32
19.393400
13
-35.121799
23
14.329500
33
19.393400
0
3DFACE
8
0
62
1
10
-32.650501
20
14.724300
30
19.760900
11
-35.121799
21
14.773800
31
19.760599
12
-35.121799
22
14.329500
32
19.393400
13
-35.121799
23
14.329500
33
19.393400
0
3DFACE
8
0
62
1
10
-32.650501
20
14.724300
30
19.760900
11
-32.650501
21
15.582200
31
18.718399
12
-35.121799
22
14.773800
32
19.760599
13
-35.121799
23
14.773800
33
19.760599
0
3DFACE
8
0
62
1
10
-32.650501
20
15.582200
30
18.718399
11
-35.121799
21
15.631700
31
18.718201
12
-35.121799
22
14.773800
32
19.760599
13
-35.121799
23
14.773800
33
19.760599
0
3DFACE
8
0
62
1
10
-32.650501
20
14.280000
30
19.393600
11
-32.650501
21
15.194600
31
18.291800
12
-26.949800
22
15.194600
32
18.291800
13
-26.949800
23
15.194600
33
18.291800
0
3DFACE
8
0
62
1
10
-32.650501
20
15.582200
30
18.718399
11
-32.650501
21
14.724300
31
19.760900
12
-26.940001
22
15.582200
32
18.718399
13
-26.940001
23
15.582200
33
18.718399
0
3DFACE
8
0
62
1
10
-32.650501
20
14.724300
30
19.760900
11
-26.940001
21
13.962000
31
19.760900
12
-26.940001
22
15.582200
32
18.718399
13
-26.940001
23
15.582200
33
18.718399
0
3DFACE
8
0
62
1
10
-32.650501
20
16.460800
30
17.436001
11
8.030900
21
16.460800
31
17.436001
12
-32.650501
22
15.194600
32
18.291800
13
-32.650501
23
15.194600
33
18.291800
0
3DFACE
8
0
62
1
10
8.030900
20
16.460800
30
17.436001
11
8.030900
21
15.194600
31
18.291800
12
-32.650501
22
15.194600
32
18.291800
13
-32.650501
23
15.194600
33
18.291800
0
3DFACE
8
0
62
1
10
-32.650501
20
15.194600
30
18.291800
11
8.030900
21
15.194600
31
18.291800
12
-26.949800
22
15.194600
32
18.291800
13
-26.949800
23
15.194600
33
18.291800
0
3DFACE
8
0
62
1
10
8.030900
20
15.194600
30
18.291800
11
-0.846954
21
15.194600
31
18.291800
12
-26.949800
22
15.194600
32
18.291800
13
-26.949800
23
15.194600
33
18.291800
0
3DFACE
8
0
62
1
10
-26.949800
20
15.194600
30
18.291800
11
-0.846954
21
15.194600
31
18.291800
12
-18.590799
22
15.194600
32
18.291800
13
-18.590799
23
15.194600
33
18.291800
0
3DFACE
8
0
62
1
10
-26.940001
20
13.517700
30
19.393600
11
-32.650501
21
14.280000
31
19.393600
12
-26.949800
22
15.194600
32
18.291800
13
-26.949800
23
15.194600
33
18.291800
0
3DFACE
8
0
62
1
10
8.030900
20
15.194600
30
18.291800
11
8.030900
21
13.219900
31
19.393600
12
-0.846954
22
15.194600
32
18.291800
13
-0.846954
23
15.194600
33
18.291800
0
3DFACE
8
0
62
1
10
-26.940001
20
13.517700
30
19.393600
11
-26.949800
21
15.194600
31
18.291800
12
-18.590799
22
15.194600
32
18.291800
13
-18.590799
23
15.194600
33
18.291800
0
3DFACE
8
0
62
1
10
-26.940001
20
13.962000
30
19.760900
11
-32.650501
21
14.724300
31
19.760900
12
-26.940001
22
13.517700
32
19.393600
13
-26.940001
23
13.517700
33
19.393600
0
3DFACE
8
0
62
1
10
-32.650501
20
14.724300
30
19.760900
11
-32.650501
21
14.280000
31
19.393600
12
-26.940001
22
13.517700
32
19.393600
13
-26.940001
23
13.517700
33
19.393600
0
3DFACE
8
0
62
1
10
-26.940001
20
13.962000
30
19.760900
11
-18.716000
21
14.724300
31
19.760900
12
-26.940001
22
15.582200
32
18.718399
13
-26.940001
23
15.582200
33
18.718399
0
3DFACE
8
0
62
1
10
3.051570
20
29.665899
30
10.773100
11
5.155880
21
26.389500
31
12.781500
12
0.102684
22
29.513500
32
10.773800
13
0.102684
23
29.513500
33
10.773800
0
3DFACE
8
0
62
1
10
5.155880
20
26.389500
30
12.781500
11
2.206990
21
26.237200
31
12.782300
12
0.102684
22
29.513500
32
10.773800
13
0.102684
23
29.513500
33
10.773800
0
3DFACE
8
0
62
1
10
5.155880
20
26.389500
30
12.781500
11
7.148440
21
24.042101
31
14.332100
12
2.206990
22
26.237200
32
12.782300
13
2.206990
23
26.237200
33
12.782300
0
3DFACE
8
0
62
1
10
7.148440
20
24.042101
30
14.332100
11
4.199550
21
23.889799
31
14.332900
12
2.206990
22
26.237200
32
12.782300
13
2.206990
23
26.237200
33
12.782300
0
3DFACE
8
0
62
1
10
3.051570
20
29.665899
30
10.773100
11
0.102684
21
29.513500
31
10.773800
12
0.542447
22
32.620399
32
4.345520
13
0.542447
23
32.620399
33
4.345520
0
3DFACE
8
0
62
1
10
0.102684
20
29.513500
30
10.773800
11
-2.406440
21
32.468102
31
4.346280
12
0.542447
22
32.620399
32
4.345520
13
0.542447
23
32.620399
33
4.345520
0
3DFACE
8
0
62
1
10
0.542447
20
32.620399
30
4.345520
11
-2.406440
21
32.468102
31
4.346280
12
-2.107380
22
34.084900
32
0.053140
13
-2.107380
23
34.084900
33
0.053140
0
3DFACE
8
0
62
1
10
-2.406440
20
32.468102
30
4.346280
11
-5.056270
21
33.932598
31
0.053904
12
-2.107380
22
34.084900
32
0.053140
13
-2.107380
23
34.084900
33
0.053140
0
3DFACE
8
0
62
1
10
3.051570
20
30.065001
30
11.189000
11
5.155880
21
26.788601
31
13.197500
12
3.051570
22
29.665899
32
10.773100
13
3.051570
23
29.665899
33
10.773100
0
3DFACE
8
0
62
1
10
5.155880
20
26.788601
30
13.197500
11
5.155880
21
26.389500
31
12.781500
12
3.051570
22
29.665899
32
10.773100
13
3.051570
23
29.665899
33
10.773100
0
3DFACE
8
0
62
1
10
3.051570
20
30.065001
30
11.189000
11
3.051570
21
29.665899
31
10.773100
12
0.542447
22
33.019501
32
4.761480
13
0.542447
23
33.019501
33
4.761480
0
3DFACE
8
0
62
1
10
3.051570
20
29.665899
30
10.773100
11
0.542447
21
32.620399
31
4.345520
12
0.542447
22
33.019501
32
4.761480
13
0.542447
23
33.019501
33
4.761480
0
3DFACE
8
0
62
1
10
0.542447
20
32.620399
30
4.345520
11
-2.107380
21
34.084900
31
0.053140
12
0.542447
22
33.019501
32
4.761480
13
0.542447
23
33.019501
33
4.761480
0
3DFACE
8
0
62
1
10
-2.107380
20
34.084900
30
0.053140
11
-2.107380
21
34.484100
31
0.034237
12
0.542447
22
33.019501
32
4.761480
13
0.542447
23
33.019501
33
4.761480
0
3DFACE
8
0
62
1
10
-2.107380
20
34.084900
30
0.053140
11
0.542446
21
33.059399
31
-4.804520
12
-2.107380
22
34.484100
32
0.034237
13
-2.107380
23
34.484100
33
0.034237
0
3DFACE
8
0
62
1
10
7.148440
20
24.042101
30
14.332100
11
5.155880
21
26.389500
31
12.781500
12
7.148440
22
24.441200
32
14.748100
13
7.148440
23
24.441200
33
14.748100
0
3DFACE
8
0
62
1
10
5.155880
20
26.389500
30
12.781500
11
5.155880
21
26.788601
31
13.197500
12
7.148440
22
24.441200
32
14.748100
13
7.148440
23
24.441200
33
14.748100
0
3DFACE
8
0
62
1
10
10.979800
20
18.177099
30
17.051800
11
8.030900
21
18.024799
31
17.052601
12
7.148440
22
24.042101
32
14.332100
13
7.148440
23
24.042101
33
14.332100
0
3DFACE
8
0
62
1
10
8.030900
20
18.024799
30
17.052601
11
4.199550
21
23.889799
31
14.332900
12
7.148440
22
24.042101
32
14.332100
13
7.148440
23
24.042101
33
14.332100
0
3DFACE
8
0
62
1
10
10.979800
20
18.177099
30
17.051800
11
10.979800
21
16.613100
31
17.435301
12
8.030900
22
18.024799
32
17.052601
13
8.030900
23
18.024799
33
17.052601
0
3DFACE
8
0
62
1
10
10.979800
20
16.613100
30
17.435301
11
8.030900
21
16.460800
31
17.436001
12
8.030900
22
18.024799
32
17.052601
13
8.030900
23
18.024799
33
17.052601
0
3DFACE
8
0
62
1
10
7.148440
20
24.441200
30
14.748100
11
10.979800
21
18.576300
31
17.467800
12
7.148440
22
24.042101
32
14.332100
13
7.148440
23
24.042101
33
14.332100
0
3DFACE
8
0
62
1
10
10.979800
20
18.576300
30
17.467800
11
10.979800
21
18.177099
31
17.051800
12
7.148440
22
24.042101
32
14.332100
13
7.148440
23
24.042101
33
14.332100
0
3DFACE
8
0
62
1
10
-2.107380
20
34.084900
30
0.053140
11
0.542447
21
32.620399
31
-4.347050
12
0.542446
22
33.059399
32
-4.804520
13
0.542446
23
33.059399
33
-4.804520
0
3DFACE
8
0
62
1
10
0.542446
20
33.059399
30
-4.804520
11
-2.635750
21
33.551800
31
-4.470660
12
-2.107380
22
34.484100
32
0.034237
13
-2.107380
23
34.484100
33
0.034237
0
3DFACE
8
0
62
1
10
-2.635750
20
33.551800
30
-4.470660
11
-5.056270
21
34.331699
31
0.035000
12
-2.107380
22
34.484100
32
0.034237
13
-2.107380
23
34.484100
33
0.034237
0
3DFACE
8
0
62
1
10
0.542447
20
32.620399
30
-4.347050
11
-2.107380
21
34.084900
31
0.053140
12
-2.406440
22
32.468102
32
-4.346280
13
-2.406440
23
32.468102
33
-4.346280
0
3DFACE
8
0
62
1
10
-2.107380
20
34.084900
30
0.053140
11
-5.056270
21
33.932598
31
0.053904
12
-2.406440
22
32.468102
32
-4.346280
13
-2.406440
23
32.468102
33
-4.346280
0
3DFACE
8
0
62
1
10
10.979800
20
14.876600
30
19.760099
11
10.979800
21
14.432300
31
19.392799
12
10.979800
22
15.734500
32
18.717699
13
10.979800
23
15.734500
33
18.717699
0
3DFACE
8
0
62
1
10
10.979800
20
14.432300
30
19.392799
11
10.979800
21
15.346900
31
18.291000
12
10.979800
22
15.734500
32
18.717699
13
10.979800
23
15.734500
33
18.717699
0
3DFACE
8
0
62
1
10
10.979800
20
15.734500
30
18.717699
11
10.979800
21
15.346900
31
18.291000
12
10.979800
22
16.852200
32
17.959801
13
10.979800
23
16.852200
33
17.959801
0
3DFACE
8
0
62
1
10
10.979800
20
15.346900
30
18.291000
11
10.979800
21
16.613100
31
17.435301
12
10.979800
22
16.852200
32
17.959801
13
10.979800
23
16.852200
33
17.959801
0
3DFACE
8
0
62
1
10
10.979800
20
16.852200
30
17.959801
11
10.979800
21
16.613100
31
17.435301
12
10.979800
22
18.576300
32
17.467800
13
10.979800
23
18.576300
33
17.467800
0
3DFACE
8
0
62
1
10
10.979800
20
16.613100
30
17.435301
11
10.979800
21
18.177099
31
17.051800
12
10.979800
22
18.576300
32
17.467800
13
10.979800
23
18.576300
33
17.467800
0
3DFACE
8
0
62
1
10
8.030900
20
13.664200
30
19.760900
11
10.979800
21
14.876600
31
19.760099
12
10.979800
22
15.734500
32
18.717699
13
10.979800
23
15.734500
33
18.717699
0
3DFACE
8
0
62
1
10
8.030900
20
15.194600
30
18.291800
11
10.979800
21
15.346900
31
18.291000
12
10.979800
22
14.432300
32
19.392799
13
10.979800
23
14.432300
33
19.392799
0
3DFACE
8
0
62
1
10
10.979800
20
16.613100
30
17.435301
11
10.979800
21
15.346900
31
18.291000
12
8.030900
22
16.460800
32
17.436001
13
8.030900
23
16.460800
33
17.436001
0
3DFACE
8
0
62
1
10
10.979800
20
15.346900
30
18.291000
11
8.030900
21
15.194600
31
18.291800
12
8.030900
22
16.460800
32
17.436001
13
8.030900
23
16.460800
33
17.436001
0
3DFACE
8
0
62
1
10
8.030900
20
13.664200
30
19.760900
11
8.030900
21
13.219900
31
19.393600
12
10.979800
22
14.876600
32
19.760099
13
10.979800
23
14.876600
33
19.760099
0
3DFACE
8
0
62
1
10
8.030900
20
13.219900
30
19.393600
11
10.979800
21
14.432300
31
19.392799
12
10.979800
22
14.876600
32
19.760099
13
10.979800
23
14.876600
33
19.760099
0
3DFACE
8
0
62
1
10
8.030900
20
15.582200
30
18.718399
11
8.030900
21
13.664200
31
19.760900
12
10.979800
22
15.734500
32
18.717699
13
10.979800
23
15.734500
33
18.717699
0
3DFACE
8
0
62
1
10
8.030900
20
13.219900
30
19.393600
11
8.030900
21
15.194600
31
18.291800
12
10.979800
22
14.432300
32
19.392799
13
10.979800
23
14.432300
33
19.392799
0
3DFACE
8
0
62
1
10
8.030900
20
13.664200
30
19.760900
11
8.030900
21
15.582200
31
18.718399
12
-0.783427
22
15.582200
32
18.718399
13
-0.783427
23
15.582200
33
18.718399
0
3DFACE
8
0
62
1
10
3.051570
20
29.665899
30
-10.774600
11
0.542447
21
32.620399
31
-4.347050
12
0.102684
22
29.513500
32
-10.773800
13
0.102684
23
29.513500
33
-10.773800
0
3DFACE
8
0
62
1
10
0.542447
20
32.620399
30
-4.347050
11
-2.406440
21
32.468102
31
-4.346280
12
0.102684
22
29.513500
32
-10.773800
13
0.102684
23
29.513500
33
-10.773800
0
3DFACE
8
0
62
1
10
5.155880
20
26.389500
30
-12.783000
11
3.051570
21
29.665899
31
-10.774600
12
2.206990
22
26.237200
32
-12.782300
13
2.206990
23
26.237200
33
-12.782300
0
3DFACE
8
0
62
1
10
3.051570
20
29.665899
30
-10.774600
11
0.102684
21
29.513500
31
-10.773800
12
2.206990
22
26.237200
32
-12.782300
13
2.206990
23
26.237200
33
-12.782300
0
3DFACE
8
0
62
1
10
7.148440
20
24.042101
30
-14.333700
11
5.155880
21
26.389500
31
-12.783000
12
4.199550
22
23.889799
32
-14.332900
13
4.199550
23
23.889799
33
-14.332900
0
3DFACE
8
0
62
1
10
5.155880
20
26.389500
30
-12.783000
11
2.206990
21
26.237200
31
-12.782300
12
4.199550
22
23.889799
32
-14.332900
13
4.199550
23
23.889799
33
-14.332900
0
3DFACE
8
0
62
1
10
5.155880
20
26.828400
30
-13.240500
11
5.155880
21
26.389500
31
-12.783000
12
7.148440
22
24.481001
32
-14.791100
13
7.148440
23
24.481001
33
-14.791100
0
3DFACE
8
0
62
1
10
5.155880
20
26.389500
30
-12.783000
11
7.148440
21
24.042101
31
-14.333700
12
7.148440
22
24.481001
32
-14.791100
13
7.148440
23
24.481001
33
-14.791100
0
3DFACE
8
0
62
1
10
3.051570
20
30.104799
30
-11.232100
11
3.051570
21
29.665899
31
-10.774600
12
5.155880
22
26.828400
32
-13.240500
13
5.155880
23
26.828400
33
-13.240500
0
3DFACE
8
0
62
1
10
3.051570
20
29.665899
30
-10.774600
11
5.155880
21
26.389500
31
-12.783000
12
5.155880
22
26.828400
32
-13.240500
13
5.155880
23
26.828400
33
-13.240500
0
3DFACE
8
0
62
1
10
3.051570
20
30.104799
30
-11.232100
11
5.155880
21
26.828400
31
-13.240500
12
0.102684
22
29.952499
32
-11.231300
13
0.102684
23
29.952499
33
-11.231300
0
3DFACE
8
0
62
1
10
5.155880
20
26.828400
30
-13.240500
11
2.206990
21
26.676100
31
-13.239800
12
0.102684
22
29.952499
32
-11.231300
13
0.102684
23
29.952499
33
-11.231300
0
3DFACE
8
0
62
1
10
3.051570
20
30.104799
30
-11.232100
11
0.542446
21
33.059399
31
-4.804520
12
3.051570
22
29.665899
32
-10.774600
13
3.051570
23
29.665899
33
-10.774600
0
3DFACE
8
0
62
1
10
0.542446
20
33.059399
30
-4.804520
11
0.542447
21
32.620399
31
-4.347050
12
3.051570
22
29.665899
32
-10.774600
13
3.051570
23
29.665899
33
-10.774600
0
3DFACE
8
0
62
1
10
5.155880
20
26.828400
30
-13.240500
11
7.148440
21
24.481001
31
-14.791100
12
2.206990
22
26.676100
32
-13.239800
13
2.206990
23
26.676100
33
-13.239800
0
3DFACE
8
0
62
1
10
7.148440
20
24.481001
30
-14.791100
11
4.199550
21
24.328699
31
-14.790400
12
2.206990
22
26.676100
32
-13.239800
13
2.206990
23
26.676100
33
-13.239800
0
3DFACE
8
0
62
1
10
10.979800
20
18.177099
30
-17.053400
11
7.148440
21
24.042101
31
-14.333700
12
8.030900
22
18.024799
32
-17.052601
13
8.030900
23
18.024799
33
-17.052601
0
3DFACE
8
0
62
1
10
7.148440
20
24.042101
30
-14.333700
11
4.199550
21
23.889799
31
-14.332900
12
8.030900
22
18.024799
32
-17.052601
13
8.030900
23
18.024799
33
-17.052601
0
3DFACE
8
0
62
1
10
10.979800
20
16.604000
30
-17.706400
11
10.979800
21
18.177099
31
-17.053400
12
8.030900
22
16.451700
32
-17.705601
13
8.030900
23
16.451700
33
-17.705601
0
3DFACE
8
0
62
1
10
10.979800
20
18.177099
30
-17.053400
11
8.030900
21
18.024799
31
-17.052601
12
8.030900
22
16.451700
32
-17.705601
13
8.030900
23
16.451700
33
-17.705601
0
3DFACE
8
0
62
1
10
7.148440
20
24.481001
30
-14.791100
11
7.148440
21
24.042101
31
-14.333700
12
10.979800
22
18.616100
32
-17.510799
13
10.979800
23
18.616100
33
-17.510799
0
3DFACE
8
0
62
1
10
7.148440
20
24.042101
30
-14.333700
11
10.979800
21
18.177099
31
-17.053400
12
10.979800
22
18.616100
32
-17.510799
13
10.979800
23
18.616100
33
-17.510799
0
3DFACE
8
0
62
1
10
10.979800
20
18.616100
30
-17.510799
11
8.030900
21
18.463800
31
-17.510099
12
7.148440
22
24.481001
32
-14.791100
13
7.148440
23
24.481001
33
-14.791100
0
3DFACE
8
0
62
1
10
8.030900
20
18.463800
30
-17.510099
11
4.199550
21
24.328699
31
-14.790400
12
7.148440
22
24.481001
32
-14.791100
13
7.148440
23
24.481001
33
-14.791100
0
3DFACE
8
0
62
1
10
10.979800
20
18.616100
30
-17.510799
11
10.979800
21
16.913099
31
-18.259899
12
8.030900
22
18.463800
32
-17.510099
13
8.030900
23
18.463800
33
-17.510099
0
3DFACE
8
0
62
1
10
10.979800
20
16.913099
30
-18.259899
11
8.030900
21
16.760799
31
-18.259100
12
8.030900
22
18.463800
32
-17.510099
13
8.030900
23
18.463800
33
-17.510099
0
3DFACE
8
0
62
1
10
10.979800
20
15.393700
30
-19.827900
11
10.979800
21
14.759800
31
-19.836500
12
8.030890
22
15.241400
32
-19.827101
13
8.030890
23
15.241400
33
-19.827101
0
3DFACE
8
0
62
1
10
10.979800
20
14.759800
30
-19.836500
11
8.030890
21
14.607500
31
-19.835800
12
8.030890
22
15.241400
32
-19.827101
13
8.030890
23
15.241400
33
-19.827101
0
3DFACE
8
0
62
1
10
10.979800
20
14.759800
30
-19.836500
11
10.979800
21
14.785400
31
-19.032000
12
8.030890
22
14.607500
32
-19.835800
13
8.030890
23
14.607500
33
-19.835800
0
3DFACE
8
0
62
1
10
10.979800
20
14.785400
30
-19.032000
11
8.030900
21
14.633100
31
-19.031200
12
8.030890
22
14.607500
32
-19.835800
13
8.030890
23
14.607500
33
-19.835800
0
3DFACE
8
0
62
1
10
10.979800
20
15.350200
30
-19.319901
11
10.979800
21
15.393700
31
-19.827900
12
8.030900
22
15.197900
32
-19.319099
13
8.030900
23
15.197900
33
-19.319099
0
3DFACE
8
0
62
1
10
10.979800
20
15.393700
30
-19.827900
11
8.030890
21
15.241400
31
-19.827101
12
8.030900
22
15.197900
32
-19.319099
13
8.030900
23
15.197900
33
-19.319099
0
3DFACE
8
0
62
1
10
10.979800
20
18.177099
30
-17.053400
11
10.979800
21
16.604000
31
-17.706400
12
10.979800
22
18.616100
32
-17.510799
13
10.979800
23
18.616100
33
-17.510799
0
3DFACE
8
0
62
1
10
10.979800
20
16.604000
30
-17.706400
11
10.979800
21
14.785400
31
-19.032000
12
10.979800
22
18.616100
32
-17.510799
13
10.979800
23
18.616100
33
-17.510799
0
3DFACE
8
0
62
1
10
10.979800
20
18.616100
30
-17.510799
11
10.979800
21
14.785400
31
-19.032000
12
10.979800
22
16.913099
32
-18.259899
13
10.979800
23
16.913099
33
-18.259899
0
3DFACE
8
0
62
1
10
10.979800
20
14.785400
30
-19.032000
11
10.979800
21
14.759800
31
-19.836500
12
10.979800
22
16.913099
32
-18.259899
13
10.979800
23
16.913099
33
-18.259899
0
3DFACE
8
0
62
1
10
10.979800
20
16.913099
30
-18.259899
11
10.979800
21
14.759800
31
-19.836500
12
10.979800
22
15.350200
32
-19.319901
13
10.979800
23
15.350200
33
-19.319901
0
3DFACE
8
0
62
1
10
10.979800
20
14.759800
30
-19.836500
11
10.979800
21
15.393700
31
-19.827900
12
10.979800
22
15.350200
32
-19.319901
13
10.979800
23
15.350200
33
-19.319901
0
3DFACE
8
0
62
1
10
10.979800
20
14.785400
30
-19.032000
11
10.979800
21
16.604000
31
-17.706400
12
8.030900
22
14.633100
32
-19.031200
13
8.030900
23
14.633100
33
-19.031200
0
3DFACE
8
0
62
1
10
10.979800
20
16.604000
30
-17.706400
11
8.030900
21
16.451700
31
-17.705601
12
8.030900
22
14.633100
32
-19.031200
13
8.030900
23
14.633100
33
-19.031200
0
3DFACE
8
0
62
1
10
10.979800
20
16.913099
30
-18.259899
11
10.979800
21
15.350200
31
-19.319901
12
8.030900
22
16.760799
32
-18.259100
13
8.030900
23
16.760799
33
-18.259100
0
3DFACE
8
0
62
1
10
10.979800
20
15.350200
30
-19.319901
11
8.030900
21
15.197900
31
-19.319099
12
8.030900
22
16.760799
32
-18.259100
13
8.030900
23
16.760799
33
-18.259100
0
3DFACE
8
0
62
1
10
8.030900
20
18.423901
30
17.468599
11
8.030900
21
16.699900
31
17.960600
12
10.979800
22
18.576300
32
17.467800
13
10.979800
23
18.576300
33
17.467800
0
3DFACE
8
0
62
1
10
8.030900
20
16.699900
30
17.960600
11
10.979800
21
16.852200
31
17.959801
12
10.979800
22
18.576300
32
17.467800
13
10.979800
23
18.576300
33
17.467800
0
3DFACE
8
0
62
1
10
4.199550
20
24.288900
30
14.748900
11
8.030900
21
18.423901
31
17.468599
12
7.148440
22
24.441200
32
14.748100
13
7.148440
23
24.441200
33
14.748100
0
3DFACE
8
0
62
1
10
8.030900
20
18.423901
30
17.468599
11
10.979800
21
18.576300
31
17.467800
12
7.148440
22
24.441200
32
14.748100
13
7.148440
23
24.441200
33
14.748100
0
3DFACE
8
0
62
1
10
8.030900
20
18.423901
30
17.468599
11
4.199550
21
24.288900
31
14.748900
12
-32.650501
22
18.423901
32
17.468599
13
-32.650501
23
18.423901
33
17.468599
0
3DFACE
8
0
62
1
10
4.199550
20
24.288900
30
14.748900
11
-28.819201
21
24.288900
31
14.748900
12
-32.650501
22
18.423901
32
17.468599
13
-32.650501
23
18.423901
33
17.468599
0
3DFACE
8
0
62
1
10
2.206990
20
26.636299
30
13.198200
11
4.199550
21
24.288900
31
14.748900
12
5.155880
22
26.788601
32
13.197500
13
5.155880
23
26.788601
33
13.197500
0
3DFACE
8
0
62
1
10
4.199550
20
24.288900
30
14.748900
11
7.148440
21
24.441200
31
14.748100
12
5.155880
22
26.788601
32
13.197500
13
5.155880
23
26.788601
33
13.197500
0
3DFACE
8
0
62
1
10
2.206990
20
26.636299
30
13.198200
11
5.155880
21
26.788601
31
13.197500
12
0.102684
22
29.912600
32
11.189800
13
0.102684
23
29.912600
33
11.189800
0
3DFACE
8
0
62
1
10
5.155880
20
26.788601
30
13.197500
11
3.051570
21
30.065001
31
11.189000
12
0.102684
22
29.912600
32
11.189800
13
0.102684
23
29.912600
33
11.189800
0
3DFACE
8
0
62
1
10
4.199550
20
24.288900
30
14.748900
11
2.206990
21
26.636299
31
13.198200
12
-28.819201
22
24.288900
32
14.748900
13
-28.819201
23
24.288900
33
14.748900
0
3DFACE
8
0
62
1
10
2.206990
20
26.636299
30
13.198200
11
-26.826599
21
26.636299
31
13.198200
12
-28.819201
22
24.288900
32
14.748900
13
-28.819201
23
24.288900
33
14.748900
0
3DFACE
8
0
62
1
10
8.030900
20
18.423901
30
17.468599
11
-32.650501
21
18.423901
31
17.468599
12
8.030900
22
16.699900
32
17.960600
13
8.030900
23
16.699900
33
17.960600
0
3DFACE
8
0
62
1
10
-32.650501
20
18.423901
30
17.468599
11
-32.650501
21
16.699900
31
17.960600
12
8.030900
22
16.699900
32
17.960600
13
8.030900
23
16.699900
33
17.960600
0
3DFACE
8
0
62
1
10
8.030900
20
16.699900
30
17.960600
11
8.030900
21
15.582200
31
18.718399
12
10.979800
22
16.852200
32
17.959801
13
10.979800
23
16.852200
33
17.959801
0
3DFACE
8
0
62
1
10
8.030900
20
15.582200
30
18.718399
11
10.979800
21
15.734500
31
18.717699
12
10.979800
22
16.852200
32
17.959801
13
10.979800
23
16.852200
33
17.959801
0
3DFACE
8
0
62
1
10
0.102684
20
29.912600
30
11.189800
11
-24.130400
21
29.912600
31
11.189800
12
2.206990
22
26.636299
32
13.198200
13
2.206990
23
26.636299
33
13.198200
0
3DFACE
8
0
62
1
10
-24.130400
20
29.912600
30
11.189800
11
-26.826599
21
26.636299
31
13.198200
12
2.206990
22
26.636299
32
13.198200
13
2.206990
23
26.636299
33
13.198200
0
3DFACE
8
0
62
1
10
-2.406440
20
32.867199
30
4.762250
11
0.102684
21
29.912600
31
11.189800
12
0.542447
22
33.019501
32
4.761480
13
0.542447
23
33.019501
33
4.761480
0
3DFACE
8
0
62
1
10
0.102684
20
29.912600
30
11.189800
11
3.051570
21
30.065001
31
11.189000
12
0.542447
22
33.019501
32
4.761480
13
0.542447
23
33.019501
33
4.761480
0
3DFACE
8
0
62
1
10
-2.406440
20
32.867199
30
4.762250
11
0.542447
21
33.019501
31
4.761480
12
-5.056270
22
34.331699
32
0.035000
13
-5.056270
23
34.331699
33
0.035000
0
3DFACE
8
0
62
1
10
0.542447
20
33.019501
30
4.761480
11
-2.107380
21
34.484100
31
0.034237
12
-5.056270
22
34.331699
32
0.035000
13
-5.056270
23
34.331699
33
0.035000
0
3DFACE
8
0
62
1
10
-2.406440
20
32.867199
30
4.762250
11
-22.213200
21
32.867199
31
4.762250
12
0.102684
22
29.912600
32
11.189800
13
0.102684
23
29.912600
33
11.189800
0
3DFACE
8
0
62
1
10
-22.213200
20
32.867199
30
4.762250
11
-24.130400
21
29.912600
31
11.189800
12
0.102684
22
29.912600
32
11.189800
13
0.102684
23
29.912600
33
11.189800
0
3DFACE
8
0
62
1
10
8.030900
20
13.219900
30
19.393600
11
-0.783427
21
14.280000
31
19.393600
12
-0.846954
22
15.194600
32
18.291800
13
-0.846954
23
15.194600
33
18.291800
0
3DFACE
8
0
62
1
10
-0.783427
20
14.280000
30
19.393600
11
8.030900
21
13.219900
31
19.393600
12
-0.783427
22
14.724300
32
19.760900
13
-0.783427
23
14.724300
33
19.760900
0
3DFACE
8
0
62
1
10
8.030900
20
13.219900
30
19.393600
11
8.030900
21
13.664200
31
19.760900
12
-0.783427
22
14.724300
32
19.760900
13
-0.783427
23
14.724300
33
19.760900
0
3DFACE
8
0
62
1
10
-0.783427
20
14.280000
30
19.393600
11
-18.716000
21
14.280000
31
19.393600
12
-0.846954
22
15.194600
32
18.291800
13
-0.846954
23
15.194600
33
18.291800
0
3DFACE
8
0
62
1
10
-18.716000
20
14.280000
30
19.393600
11
-18.590799
21
15.194600
31
18.291800
12
-0.846954
22
15.194600
32
18.291800
13
-0.846954
23
15.194600
33
18.291800
0
3DFACE
8
0
62
1
10
-0.783427
20
14.724300
30
19.760900
11
8.030900
21
13.664200
31
19.760900
12
-0.783427
22
15.582200
32
18.718399
13
-0.783427
23
15.582200
33
18.718399
0
3DFACE
8
0
62
1
10
-18.716000
20
14.724300
30
19.760900
11
-0.783427
21
14.724300
31
19.760900
12
-26.940001
22
15.582200
32
18.718399
13
-26.940001
23
15.582200
33
18.718399
0
3DFACE
8
0
62
1
10
-0.783427
20
14.724300
30
19.760900
11
-0.783427
21
15.582200
31
18.718399
12
-26.940001
22
15.582200
32
18.718399
13
-26.940001
23
15.582200
33
18.718399
0
3DFACE
8
0
62
1
10
-26.940001
20
13.517700
30
19.393600
11
-18.716000
21
14.280000
31
19.393600
12
-26.940001
22
13.962000
32
19.760900
13
-26.940001
23
13.962000
33
19.760900
0
3DFACE
8
0
62
1
10
-18.716000
20
14.280000
30
19.393600
11
-18.716000
21
14.724300
31
19.760900
12
-26.940001
22
13.962000
32
19.760900
13
-26.940001
23
13.962000
33
19.760900
0
3DFACE
8
0
62
1
10
-18.716000
20
14.280000
30
19.393600
11
-0.783427
21
14.280000
31
19.393600
12
-18.716000
22
14.724300
32
19.760900
13
-18.716000
23
14.724300
33
19.760900
0
3DFACE
8
0
62
1
10
-0.783427
20
14.280000
30
19.393600
11
-0.783427
21
14.724300
31
19.760900
12
-18.716000
22
14.724300
32
19.760900
13
-18.716000
23
14.724300
33
19.760900
0
3DFACE
8
0
62
1
10
-18.716000
20
14.280000
30
19.393600
11
-26.940001
21
13.517700
31
19.393600
12
-18.590799
22
15.194600
32
18.291800
13
-18.590799
23
15.194600
33
18.291800
0
3DFACE
8
0
62
1
10
0.102684
20
29.952499
30
-11.231300
11
2.206990
21
26.676100
31
-13.239800
12
-4.206820
22
29.952499
32
-11.231300
13
-4.206820
23
29.952499
33
-11.231300
0
3DFACE
8
0
62
1
10
2.206990
20
26.676100
30
-13.239800
11
-26.826599
21
26.676100
31
-13.239800
12
-4.206820
22
29.952499
32
-11.231300
13
-4.206820
23
29.952499
33
-11.231300
0
3DFACE
8
0
62
1
10
-4.206820
20
29.952499
30
-11.231300
11
-26.826599
21
26.676100
31
-13.239800
12
-24.130400
22
29.952499
32
-11.231300
13
-24.130400
23
29.952499
33
-11.231300
0
3DFACE
8
0
62
1
10
-5.056270
20
34.331699
30
0.035000
11
-2.635750
21
33.551800
31
-4.470660
12
-19.563299
22
34.331699
32
0.035000
13
-19.563299
23
34.331699
33
0.035000
0
3DFACE
8
0
62
1
10
-2.635750
20
33.551800
30
-4.470660
11
-6.376600
21
33.551800
31
-4.470660
12
-19.563299
22
34.331699
32
0.035000
13
-19.563299
23
34.331699
33
0.035000
0
3DFACE
8
0
62
1
10
-19.563299
20
34.331699
30
0.035000
11
-6.376600
21
33.551800
31
-4.470660
12
-22.213200
22
32.907101
32
-4.803760
13
-22.213200
23
32.907101
33
-4.803760
0
3DFACE
8
0
62
1
10
3.051570
20
30.104799
30
-11.232100
11
0.102684
21
29.952499
31
-11.231300
12
0.542446
22
33.059399
32
-4.804520
13
0.542446
23
33.059399
33
-4.804520
0
3DFACE
8
0
62
1
10
0.102684
20
29.952499
30
-11.231300
11
-1.911870
21
31.653799
31
-7.998570
12
0.542446
22
33.059399
32
-4.804520
13
0.542446
23
33.059399
33
-4.804520
0
3DFACE
8
0
62
1
10
0.542446
20
33.059399
30
-4.804520
11
-1.911870
21
31.653799
31
-7.998570
12
-2.635750
22
33.551800
32
-4.470660
13
-2.635750
23
33.551800
33
-4.470660
0
3DFACE
8
0
62
1
10
-1.911870
20
31.653799
30
-7.998570
11
0.102684
21
29.952499
31
-11.231300
12
-4.977410
22
31.653799
32
-7.998570
13
-4.977410
23
31.653799
33
-7.998570
0
3DFACE
8
0
62
1
10
0.102684
20
29.952499
30
-11.231300
11
-4.206820
21
29.952499
31
-11.231300
12
-4.977410
22
31.653799
32
-7.998570
13
-4.977410
23
31.653799
33
-7.998570
0
3DFACE
8
0
62
1
10
-4.977410
20
31.653799
30
-7.998570
11
-4.206820
21
29.952499
31
-11.231300
12
-6.376600
22
33.551800
32
-4.470660
13
-6.376600
23
33.551800
33
-4.470660
0
3DFACE
8
0
62
1
10
-4.206820
20
29.952499
30
-11.231300
11
-24.130400
21
29.952499
31
-11.231300
12
-6.376600
22
33.551800
32
-4.470660
13
-6.376600
23
33.551800
33
-4.470660
0
3DFACE
8
0
62
1
10
-6.376600
20
33.551800
30
-4.470660
11
-24.130400
21
29.952499
31
-11.231300
12
-22.213200
22
32.907101
32
-4.803760
13
-22.213200
23
32.907101
33
-4.803760
0
3DFACE
8
0
62
1
10
-20.418800
20
14.633100
30
-19.031200
11
-20.418800
21
16.451700
31
-17.705601
12
-32.650501
22
13.026000
32
-19.031200
13
-32.650501
23
13.026000
33
-19.031200
0
3DFACE
8
0
62
1
10
-20.418800
20
16.451700
30
-17.705601
11
-32.650501
21
16.451700
31
-17.705601
12
-32.650501
22
13.026000
32
-19.031200
13
-32.650501
23
13.026000
33
-19.031200
0
3DFACE
8
0
62
1
10
-20.418800
20
14.607500
30
-19.835800
11
-20.418800
21
14.633100
31
-19.031200
12
-32.650501
22
13.000400
32
-19.835800
13
-32.650501
23
13.000400
33
-19.835800
0
3DFACE
8
0
62
1
10
-20.418800
20
14.633100
30
-19.031200
11
-32.650501
21
13.026000
31
-19.031200
12
-32.650501
22
13.000400
32
-19.835800
13
-32.650501
23
13.000400
33
-19.835800
0
3DFACE
8
0
62
1
10
-20.418800
20
15.241400
30
-19.827101
11
-20.418800
21
14.607500
31
-19.835800
12
-32.650501
22
15.241400
32
-19.827101
13
-32.650501
23
15.241400
33
-19.827101
0
3DFACE
8
0
62
1
10
-20.418800
20
14.607500
30
-19.835800
11
-32.650501
21
13.000400
31
-19.835800
12
-32.650501
22
15.241400
32
-19.827101
13
-32.650501
23
15.241400
33
-19.827101
0
3DFACE
8
0
62
1
10
-32.650501
20
15.197900
30
-19.319099
11
-32.650501
21
16.760799
31
-18.259100
12
-20.418800
22
15.197900
32
-19.319099
13
-20.418800
23
15.197900
33
-19.319099
0
3DFACE
8
0
62
1
10
-32.650501
20
16.760799
30
-18.259100
11
-20.418800
21
16.760799
31
-18.259100
12
-20.418800
22
15.197900
32
-19.319099
13
-20.418800
23
15.197900
33
-19.319099
0
3DFACE
8
0
62
1
10
-20.418800
20
15.197900
30
-19.319099
11
-20.418800
21
15.241400
31
-19.827101
12
-32.650501
22
15.197900
32
-19.319099
13
-32.650501
23
15.197900
33
-19.319099
0
3DFACE
8
0
62
1
10
-20.418800
20
15.241400
30
-19.827101
11
-32.650501
21
15.241400
31
-19.827101
12
-32.650501
22
15.197900
32
-19.319099
13
-32.650501
23
15.197900
33
-19.319099
0
3DFACE
8
0
62
1
10
-10.061700
20
14.633100
30
-19.031200
11
-10.061700
21
16.451700
31
-17.705601
12
-20.418800
22
14.633100
32
-19.031200
13
-20.418800
23
14.633100
33
-19.031200
0
3DFACE
8
0
62
1
10
-10.061700
20
16.451700
30
-17.705601
11
-20.418800
21
16.451700
31
-17.705601
12
-20.418800
22
14.633100
32
-19.031200
13
-20.418800
23
14.633100
33
-19.031200
0
3DFACE
8
0
62
1
10
-10.061600
20
14.607500
30
-19.835800
11
-10.061700
21
14.633100
31
-19.031200
12
-20.418800
22
14.607500
32
-19.835800
13
-20.418800
23
14.607500
33
-19.835800
0
3DFACE
8
0
62
1
10
-10.061700
20
14.633100
30
-19.031200
11
-20.418800
21
14.633100
31
-19.031200
12
-20.418800
22
14.607500
32
-19.835800
13
-20.418800
23
14.607500
33
-19.835800
0
3DFACE
8
0
62
1
10
-10.061600
20
15.241400
30
-19.827101
11
-10.061600
21
14.607500
31
-19.835800
12
-20.418800
22
15.241400
32
-19.827101
13
-20.418800
23
15.241400
33
-19.827101
0
3DFACE
8
0
62
1
10
-10.061600
20
14.607500
30
-19.835800
11
-20.418800
21
14.607500
31
-19.835800
12
-20.418800
22
15.241400
32
-19.827101
13
-20.418800
23
15.241400
33
-19.827101
0
3DFACE
8
0
62
1
10
-20.418800
20
15.197900
30
-19.319099
11
-20.418800
21
16.760799
31
-18.259100
12
-10.061700
22
15.197900
32
-19.319099
13
-10.061700
23
15.197900
33
-19.319099
0
3DFACE
8
0
62
1
10
-20.418800
20
16.760799
30
-18.259100
11
-10.061700
21
16.760799
31
-18.259100
12
-10.061700
22
15.197900
32
-19.319099
13
-10.061700
23
15.197900
33
-19.319099
0
3DFACE
8
0
62
1
10
-10.061700
20
15.197900
30
-19.319099
11
-10.061600
21
15.241400
31
-19.827101
12
-20.418800
22
15.197900
32
-19.319099
13
-20.418800
23
15.197900
33
-19.319099
0
3DFACE
8
0
62
1
10
-10.061600
20
15.241400
30
-19.827101
11
-20.418800
21
15.241400
31
-19.827101
12
-20.418800
22
15.197900
32
-19.319099
13
-20.418800
23
15.197900
33
-19.319099
0
3DFACE
8
0
62
1
10
8.030900
20
16.451700
30
-17.705601
11
8.030900
21
18.024799
31
-17.052601
12
0.509844
22
14.949800
32
-17.705601
13
0.509844
23
14.949800
33
-17.705601
0
3DFACE
8
0
62
1
10
8.030900
20
18.024799
30
-17.052601
11
-32.650501
21
18.024799
31
-17.052601
12
0.509844
22
14.949800
32
-17.705601
13
0.509844
23
14.949800
33
-17.705601
0
3DFACE
8
0
62
1
10
0.509844
20
14.949800
30
-17.705601
11
-32.650501
21
18.024799
31
-17.052601
12
-10.061700
22
16.451700
32
-17.705601
13
-10.061700
23
16.451700
33
-17.705601
0
3DFACE
8
0
62
1
10
-32.650501
20
18.024799
30
-17.052601
11
-32.650501
21
16.451700
31
-17.705601
12
-10.061700
22
16.451700
32
-17.705601
13
-10.061700
23
16.451700
33
-17.705601
0
3DFACE
8
0
62
1
10
-10.061700
20
16.451700
30
-17.705601
11
-32.650501
21
16.451700
31
-17.705601
12
-20.418800
22
16.451700
32
-17.705601
13
-20.418800
23
16.451700
33
-17.705601
0
3DFACE
8
0
62
1
10
8.030900
20
14.633100
30
-19.031200
11
8.030900
21
16.451700
31
-17.705601
12
0.509844
22
13.131200
32
-19.031200
13
0.509844
23
13.131200
33
-19.031200
0
3DFACE
8
0
62
1
10
8.030900
20
16.451700
30
-17.705601
11
0.509844
21
14.949800
31
-17.705601
12
0.509844
22
13.131200
32
-19.031200
13
0.509844
23
13.131200
33
-19.031200
0
3DFACE
8
0
62
1
10
0.509844
20
13.131200
30
-19.031200
11
0.509844
21
14.949800
31
-17.705601
12
-10.061700
22
14.633100
32
-19.031200
13
-10.061700
23
14.633100
33
-19.031200
0
3DFACE
8
0
62
1
10
0.509844
20
14.949800
30
-17.705601
11
-10.061700
21
16.451700
31
-17.705601
12
-10.061700
22
14.633100
32
-19.031200
13
-10.061700
23
14.633100
33
-19.031200
0
3DFACE
8
0
62
1
10
0.509847
20
13.105700
30
-19.835800
11
8.030890
21
14.607500
31
-19.835800
12
0.509844
22
13.131200
32
-19.031200
13
0.509844
23
13.131200
33
-19.031200
0
3DFACE
8
0
62
1
10
8.030890
20
14.607500
30
-19.835800
11
8.030900
21
14.633100
31
-19.031200
12
0.509844
22
13.131200
32
-19.031200
13
0.509844
23
13.131200
33
-19.031200
0
3DFACE
8
0
62
1
10
0.509847
20
13.105700
30
-19.835800
11
0.509844
21
13.131200
31
-19.031200
12
-10.061600
22
14.607500
32
-19.835800
13
-10.061600
23
14.607500
33
-19.835800
0
3DFACE
8
0
62
1
10
0.509844
20
13.131200
30
-19.031200
11
-10.061700
21
14.633100
31
-19.031200
12
-10.061600
22
14.607500
32
-19.835800
13
-10.061600
23
14.607500
33
-19.835800
0
3DFACE
8
0
62
1
10
0.509847
20
13.739600
30
-19.827101
11
8.030890
21
15.241400
31
-19.827101
12
0.509847
22
13.105700
32
-19.835800
13
0.509847
23
13.105700
33
-19.835800
0
3DFACE
8
0
62
1
10
8.030890
20
15.241400
30
-19.827101
11
8.030890
21
14.607500
31
-19.835800
12
0.509847
22
13.105700
32
-19.835800
13
0.509847
23
13.105700
33
-19.835800
0
3DFACE
8
0
62
1
10
0.509847
20
13.739600
30
-19.827101
11
0.509847
21
13.105700
31
-19.835800
12
-10.061600
22
15.241400
32
-19.827101
13
-10.061600
23
15.241400
33
-19.827101
0
3DFACE
8
0
62
1
10
0.509847
20
13.105700
30
-19.835800
11
-10.061600
21
14.607500
31
-19.835800
12
-10.061600
22
15.241400
32
-19.827101
13
-10.061600
23
15.241400
33
-19.827101
0
3DFACE
8
0
62
1
10
-32.650501
20
16.760799
30
-18.259100
11
-32.650501
21
18.463800
31
-17.510099
12
-20.418800
22
16.760799
32
-18.259100
13
-20.418800
23
16.760799
33
-18.259100
0
3DFACE
8
0
62
1
10
-32.650501
20
18.463800
30
-17.510099
11
8.030900
21
18.463800
31
-17.510099
12
-20.418800
22
16.760799
32
-18.259100
13
-20.418800
23
16.760799
33
-18.259100
0
3DFACE
8
0
62
1
10
-20.418800
20
16.760799
30
-18.259100
11
8.030900
21
18.463800
31
-17.510099
12
-10.061700
22
16.760799
32
-18.259100
13
-10.061700
23
16.760799
33
-18.259100
0
3DFACE
8
0
62
1
10
8.030900
20
18.463800
30
-17.510099
11
8.030900
21
16.760799
31
-18.259100
12
-10.061700
22
16.760799
32
-18.259100
13
-10.061700
23
16.760799
33
-18.259100
0
3DFACE
8
0
62
1
10
-10.061700
20
16.760799
30
-18.259100
11
8.030900
21
16.760799
31
-18.259100
12
0.509844
22
15.259000
32
-18.259100
13
0.509844
23
15.259000
33
-18.259100
0
3DFACE
8
0
62
1
10
-10.061700
20
15.197900
30
-19.319099
11
-10.061700
21
16.760799
31
-18.259100
12
0.509844
22
13.696100
32
-19.319099
13
0.509844
23
13.696100
33
-19.319099
0
3DFACE
8
0
62
1
10
-10.061700
20
16.760799
30
-18.259100
11
0.509844
21
15.259000
31
-18.259100
12
0.509844
22
13.696100
32
-19.319099
13
0.509844
23
13.696100
33
-19.319099
0
3DFACE
8
0
62
1
10
0.509844
20
13.696100
30
-19.319099
11
0.509844
21
15.259000
31
-18.259100
12
8.030900
22
15.197900
32
-19.319099
13
8.030900
23
15.197900
33
-19.319099
0
3DFACE
8
0
62
1
10
0.509844
20
15.259000
30
-18.259100
11
8.030900
21
16.760799
31
-18.259100
12
8.030900
22
15.197900
32
-19.319099
13
8.030900
23
15.197900
33
-19.319099
0
3DFACE
8
0
62
1
10
0.509844
20
13.696100
30
-19.319099
11
8.030900
21
15.197900
31
-19.319099
12
0.509847
22
13.739600
32
-19.827101
13
0.509847
23
13.739600
33
-19.827101
0
3DFACE
8
0
62
1
10
8.030900
20
15.197900
30
-19.319099
11
8.030890
21
15.241400
31
-19.827101
12
0.509847
22
13.739600
32
-19.827101
13
0.509847
23
13.739600
33
-19.827101
0
3DFACE
8
0
62
1
10
0.509844
20
13.696100
30
-19.319099
11
0.509847
21
13.739600
31
-19.827101
12
-10.061700
22
15.197900
32
-19.319099
13
-10.061700
23
15.197900
33
-19.319099
0
3DFACE
8
0
62
1
10
0.509847
20
13.739600
30
-19.827101
11
-10.061600
21
15.241400
31
-19.827101
12
-10.061700
22
15.197900
32
-19.319099
13
-10.061700
23
15.197900
33
-19.319099
0
3DFACE
8
0
62
1
10
8.030900
20
16.460800
30
17.436001
11
-32.650501
21
16.460800
31
17.436001
12
8.030900
22
18.024799
32
17.052601
13
8.030900
23
18.024799
33
17.052601
0
3DFACE
8
0
62
1
10
-32.650501
20
16.460800
30
17.436001
11
-32.650501
21
18.024799
31
17.052601
12
8.030900
22
18.024799
32
17.052601
13
8.030900
23
18.024799
33
17.052601
0
3DFACE
8
0
62
1
10
8.030900
20
18.024799
30
17.052601
11
-32.650501
21
18.024799
31
17.052601
12
-9.375400
22
18.024799
32
17.052601
13
-9.375400
23
18.024799
33
17.052601
0
3DFACE
8
0
62
1
10
-32.650501
20
18.024799
30
17.052601
11
-14.503200
21
18.024799
31
17.052601
12
-9.375400
22
18.024799
32
17.052601
13
-9.375400
23
18.024799
33
17.052601
0
3DFACE
8
0
62
1
10
-6.297230
20
-1.150790
30
-5.040630
11
-6.297230
21
-1.150790
31
5.040630
12
-5.372960
22
-4.229620
32
-6.246660
13
-5.372960
23
-4.229620
33
-6.246660
0
3DFACE
8
0
62
1
10
-6.297230
20
-1.150790
30
5.040630
11
-5.372960
21
-4.229620
31
5.040630
12
-5.372960
22
-4.229620
32
-6.246660
13
-5.372960
23
-4.229620
33
-6.246660
0
3DFACE
8
0
62
1
10
-19.341801
20
-4.229620
30
-6.246660
11
-18.322399
21
-1.150790
31
-5.040630
12
-5.372960
22
-4.229620
32
-6.246660
13
-5.372960
23
-4.229620
33
-6.246660
0
3DFACE
8
0
62
1
10
-18.322399
20
-1.150790
30
-5.040630
11
-6.297230
21
-1.150790
31
-5.040630
12
-5.372960
22
-4.229620
32
-6.246660
13
-5.372960
23
-4.229620
33
-6.246660
0
3DFACE
8
0
62
1
10
-18.322399
20
-1.150790
30
5.040630
11
-18.322399
21
-1.150790
31
-5.040630
12
-19.341801
22
-4.229620
32
5.040630
13
-19.341801
23
-4.229620
33
5.040630
0
3DFACE
8
0
62
1
10
-18.322399
20
-1.150790
30
-5.040630
11
-19.341801
21
-4.229620
31
-6.246660
12
-19.341801
22
-4.229620
32
5.040630
13
-19.341801
23
-4.229620
33
5.040630
0
3DFACE
8
0
62
1
10
-19.106300
20
1.556380
30
5.697840
11
-19.106300
21
1.556380
31
-5.697840
12
-18.322399
22
-1.150790
32
5.040630
13
-18.322399
23
-1.150790
33
5.040630
0
3DFACE
8
0
62
1
10
-19.106300
20
1.556380
30
-5.697840
11
-18.322399
21
-1.150790
31
-5.040630
12
-18.322399
22
-1.150790
32
5.040630
13
-18.322399
23
-1.150790
33
5.040630
0
3DFACE
8
0
62
1
10
-5.513300
20
1.556380
30
-5.697840
11
-6.297230
21
-1.150790
31
-5.040630
12
-19.106300
22
1.556380
32
-5.697840
13
-19.106300
23
1.556380
33
-5.697840
0
3DFACE
8
0
62
1
10
-6.297230
20
-1.150790
30
-5.040630
11
-18.322399
21
-1.150790
31
-5.040630
12
-19.106300
22
1.556380
32
-5.697840
13
-19.106300
23
1.556380
33
-5.697840
0
3DFACE
8
0
62
1
10
-5.513300
20
1.556380
30
-5.697840
11
-5.513300
21
1.556380
31
5.697840
12
-6.297230
22
-1.150790
32
-5.040630
13
-6.297230
23
-1.150790
33
-5.040630
0
3DFACE
8
0
62
1
10
-5.513300
20
1.556380
30
5.697840
11
-6.297230
21
-1.150790
31
5.040630
12
-6.297230
22
-1.150790
32
-5.040630
13
-6.297230
23
-1.150790
33
-5.040630
0
3DFACE
8
0
62
1
10
-20.845100
20
4.731980
30
-7.155550
11
-3.774510
21
4.731980
31
-7.155550
12
-19.106300
22
1.556380
32
-5.697840
13
-19.106300
23
1.556380
33
-5.697840
0
3DFACE
8
0
62
1
10
-3.774510
20
4.731980
30
-7.155550
11
-5.513300
21
1.556380
31
-5.697840
12
-19.106300
22
1.556380
32
-5.697840
13
-19.106300
23
1.556380
33
-5.697840
0
3DFACE
8
0
62
1
10
-3.774510
20
4.731980
30
7.155550
11
-5.513300
21
1.556380
31
5.697840
12
-3.774510
22
4.731980
32
-7.155550
13
-3.774510
23
4.731980
33
-7.155550
0
3DFACE
8
0
62
1
10
-5.513300
20
1.556380
30
5.697840
11
-5.513300
21
1.556380
31
-5.697840
12
-3.774510
22
4.731980
32
-7.155550
13
-3.774510
23
4.731980
33
-7.155550
0
3DFACE
8
0
62
1
10
-1.386220
20
8.119820
30
9.157770
11
-3.774510
21
4.731980
31
7.155550
12
-1.386220
22
8.119820
32
-9.157770
13
-1.386220
23
8.119820
33
-9.157770
0
3DFACE
8
0
62
1
10
-3.774510
20
4.731980
30
7.155550
11
-3.774510
21
4.731980
31
-7.155550
12
-1.386220
22
8.119820
32
-9.157770
13
-1.386220
23
8.119820
33
-9.157770
0
3DFACE
8
0
62
1
10
-1.386220
20
8.119820
30
-9.157770
11
-3.774510
21
4.731980
31
-7.155550
12
-23.233400
22
8.119820
32
-9.157770
13
-23.233400
23
8.119820
33
-9.157770
0
3DFACE
8
0
62
1
10
-3.774510
20
4.731980
30
-7.155550
11
-20.845100
21
4.731980
31
-7.155550
12
-23.233400
22
8.119820
32
-9.157770
13
-23.233400
23
8.119820
33
-9.157770
0
3DFACE
8
0
62
1
10
-20.845100
20
4.731980
30
7.155550
11
-20.845100
21
4.731980
31
-7.155550
12
-19.106300
22
1.556380
32
5.697840
13
-19.106300
23
1.556380
33
5.697840
0
3DFACE
8
0
62
1
10
-20.845100
20
4.731980
30
-7.155550
11
-19.106300
21
1.556380
31
-5.697840
12
-19.106300
22
1.556380
32
5.697840
13
-19.106300
23
1.556380
33
5.697840
0
3DFACE
8
0
62
1
10
-23.233400
20
8.119820
30
9.157770
11
-23.233400
21
8.119820
31
-9.157770
12
-20.845100
22
4.731980
32
7.155550
13
-20.845100
23
4.731980
33
7.155550
0
3DFACE
8
0
62
1
10
-23.233400
20
8.119820
30
-9.157770
11
-20.845100
21
4.731980
31
-7.155550
12
-20.845100
22
4.731980
32
7.155550
13
-20.845100
23
4.731980
33
7.155550
0
3DFACE
8
0
62
1
10
2.733320
20
12.589800
30
-12.611400
11
2.733320
21
12.589800
31
12.611400
12
-1.386220
22
8.119820
32
-9.157770
13
-1.386220
23
8.119820
33
-9.157770
0
3DFACE
8
0
62
1
10
2.733320
20
12.589800
30
12.611400
11
-1.386220
21
8.119820
31
9.157770
12
-1.386220
22
8.119820
32
-9.157770
13
-1.386220
23
8.119820
33
-9.157770
0
3DFACE
8
0
62
1
10
2.733320
20
12.589800
30
-12.611400
11
-1.386220
21
8.119820
31
-9.157770
12
-27.352900
22
12.589800
32
-12.611400
13
-27.352900
23
12.589800
33
-12.611400
0
3DFACE
8
0
62
1
10
-1.386220
20
8.119820
30
-9.157770
11
-23.233400
21
8.119820
31
-9.157770
12
-27.352900
22
12.589800
32
-12.611400
13
-27.352900
23
12.589800
33
-12.611400
0
3DFACE
8
0
62
1
10
-27.352900
20
12.589800
30
12.611400
11
-27.352900
21
12.589800
31
-12.611400
12
-23.233400
22
8.119820
32
9.157770
13
-23.233400
23
8.119820
33
9.157770
0
3DFACE
8
0
62
1
10
-27.352900
20
12.589800
30
-12.611400
11
-23.233400
21
8.119820
31
-9.157770
12
-23.233400
22
8.119820
32
9.157770
13
-23.233400
23
8.119820
33
9.157770
0
3DFACE
8
0
62
1
10
-32.650501
20
18.024799
30
-17.052601
11
8.030900
21
18.024799
31
-17.052601
12
-27.352900
22
12.589800
32
-12.611400
13
-27.352900
23
12.589800
33
-12.611400
0
3DFACE
8
0
62
1
10
8.030900
20
18.024799
30
-17.052601
11
2.733320
21
12.589800
31
-12.611400
12
-27.352900
22
12.589800
32
-12.611400
13
-27.352900
23
12.589800
33
-12.611400
0
3DFACE
8
0
62
1
10
4.199550
20
23.889799
30
-14.332900
11
4.199550
21
23.889799
31
14.332900
12
8.030900
22
18.024799
32
-17.052601
13
8.030900
23
18.024799
33
-17.052601
0
3DFACE
8
0
62
1
10
4.199550
20
23.889799
30
14.332900
11
8.030900
21
18.024799
31
17.052601
12
8.030900
22
18.024799
32
-17.052601
13
8.030900
23
18.024799
33
-17.052601
0
3DFACE
8
0
62
1
10
2.206990
20
26.237200
30
12.782300
11
4.199550
21
23.889799
31
14.332900
12
2.206990
22
26.237200
32
-12.782300
13
2.206990
23
26.237200
33
-12.782300
0
3DFACE
8
0
62
1
10
4.199550
20
23.889799
30
14.332900
11
4.199550
21
23.889799
31
-14.332900
12
2.206990
22
26.237200
32
-12.782300
13
2.206990
23
26.237200
33
-12.782300
0
3DFACE
8
0
62
1
10
-19.563299
20
33.932598
30
0.053904
11
-22.213200
21
32.468102
31
-4.346280
12
-22.213200
22
32.468102
32
4.346280
13
-22.213200
23
32.468102
33
4.346280
0
3DFACE
8
0
62
1
10
-22.213200
20
32.468102
30
-4.346280
11
-24.130400
21
29.513500
31
-10.773800
12
-22.213200
22
32.468102
32
4.346280
13
-22.213200
23
32.468102
33
4.346280
0
3DFACE
8
0
62
1
10
-24.130400
20
29.513500
30
-10.773800
11
-24.130400
21
29.513500
31
10.773800
12
-22.213200
22
32.468102
32
4.346280
13
-22.213200
23
32.468102
33
4.346280
0
3DFACE
8
0
62
1
10
0.102684
20
29.513500
30
-10.773800
11
0.102684
21
29.513500
31
10.773800
12
2.206990
22
26.237200
32
-12.782300
13
2.206990
23
26.237200
33
-12.782300
0
3DFACE
8
0
62
1
10
0.102684
20
29.513500
30
10.773800
11
2.206990
21
26.237200
31
12.782300
12
2.206990
22
26.237200
32
-12.782300
13
2.206990
23
26.237200
33
-12.782300
0
3DFACE
8
0
62
1
10
-5.056270
20
33.932598
30
0.053904
11
-2.406440
21
32.468102
31
4.346280
12
-2.406440
22
32.468102
32
-4.346280
13
-2.406440
23
32.468102
33
-4.346280
0
3DFACE
8
0
62
1
10
-2.406440
20
32.468102
30
4.346280
11
0.102684
21
29.513500
31
10.773800
12
-2.406440
22
32.468102
32
-4.346280
13
-2.406440
23
32.468102
33
-4.346280
0
3DFACE
8
0
62
1
10
0.102684
20
29.513500
30
10.773800
11
0.102684
21
29.513500
31
-10.773800
12
-2.406440
22
32.468102
32
-4.346280
13
-2.406440
23
32.468102
33
-4.346280
0
3DFACE
8
0
62
1
10
-19.106300
20
1.556380
30
5.697840
11
-14.717600
21
3.540830
31
6.581960
12
-20.845100
22
4.731980
32
7.155550
13
-20.845100
23
4.731980
33
7.155550
0
3DFACE
8
0
62
1
10
-14.717600
20
3.540830
30
6.581960
11
-19.106300
21
1.556380
31
5.697840
12
-14.752000
22
1.556380
32
5.697840
13
-14.752000
23
1.556380
33
5.697840
0
3DFACE
8
0
62
1
10
-20.845100
20
4.731980
30
7.155550
11
-14.717600
21
3.540830
31
6.581960
12
-9.018610
22
4.731980
32
7.155550
13
-9.018610
23
4.731980
33
7.155550
0
3DFACE
8
0
62
1
10
-14.925700
20
-1.150790
30
5.040630
11
-14.752000
21
1.556380
31
5.697840
12
-18.322399
22
-1.150790
32
5.040630
13
-18.322399
23
-1.150790
33
5.040630
0
3DFACE
8
0
62
1
10
-14.752000
20
1.556380
30
5.697840
11
-19.106300
21
1.556380
31
5.697840
12
-18.322399
22
-1.150790
32
5.040630
13
-18.322399
23
-1.150790
33
5.040630
0
3DFACE
8
0
62
1
10
-19.341801
20
-4.229620
30
5.040630
11
-14.734000
21
-4.229620
31
5.040630
12
-18.322399
22
-1.150790
32
5.040630
13
-18.322399
23
-1.150790
33
5.040630
0
3DFACE
8
0
62
1
10
-14.734000
20
-4.229620
30
5.040630
11
-14.724200
21
-4.060400
31
5.040630
12
-18.322399
22
-1.150790
32
5.040630
13
-18.322399
23
-1.150790
33
5.040630
0
3DFACE
8
0
62
1
10
-18.322399
20
-1.150790
30
5.040630
11
-14.724200
21
-4.060400
31
5.040630
12
-14.925700
22
-1.150790
32
5.040630
13
-14.925700
23
-1.150790
33
5.040630
0
3DFACE
8
0
62
1
10
-9.019380
20
1.556380
30
5.697840
11
-8.741740
21
-1.150790
31
5.040630
12
-5.513300
22
1.556380
32
5.697840
13
-5.513300
23
1.556380
33
5.697840
0
3DFACE
8
0
62
1
10
-8.741740
20
-1.150790
30
5.040630
11
-6.297230
21
-1.150790
31
5.040630
12
-5.513300
22
1.556380
32
5.697840
13
-5.513300
23
1.556380
33
5.697840
0
3DFACE
8
0
62
1
10
-3.774510
20
4.731980
30
7.155550
11
-9.018610
21
4.731980
31
7.155550
12
-5.513300
22
1.556380
32
5.697840
13
-5.513300
23
1.556380
33
5.697840
0
3DFACE
8
0
62
1
10
-9.018610
20
4.731980
30
7.155550
11
-9.459990
21
3.482420
31
6.581960
12
-5.513300
22
1.556380
32
5.697840
13
-5.513300
23
1.556380
33
5.697840
0
3DFACE
8
0
62
1
10
-5.513300
20
1.556380
30
5.697840
11
-9.459990
21
3.482420
31
6.581960
12
-9.019380
22
1.556380
32
5.697840
13
-9.019380
23
1.556380
33
5.697840
0
3DFACE
8
0
62
1
10
-9.459990
20
3.482420
30
6.581960
11
-9.126010
21
3.482420
31
6.581960
12
-9.019380
22
1.556380
32
5.697840
13
-9.019380
23
1.556380
33
5.697840
0
3DFACE
8
0
62
1
10
-9.019380
20
1.556380
30
5.697840
11
-9.126010
21
3.482420
31
6.581960
12
-9.115880
22
2.965070
32
6.344480
13
-9.115880
23
2.965070
33
6.344480
0
3DFACE
8
0
62
1
10
-9.018610
20
4.731980
30
7.155550
11
-14.717600
21
3.540830
31
6.581960
12
-14.368900
22
3.482420
32
6.581960
13
-14.368900
23
3.482420
33
6.581960
0
3DFACE
8
0
62
1
10
-9.018610
20
4.731980
30
7.155550
11
-14.368900
21
3.482420
31
6.581960
12
-12.961300
22
3.613540
32
6.739080
13
-12.961300
23
3.613540
33
6.739080
0
3DFACE
8
0
62
1
10
-9.018610
20
4.731980
30
7.155550
11
-12.961300
21
3.613540
31
6.739080
12
-11.872600
22
3.572770
32
6.690220
13
-11.872600
23
3.572770
33
6.690220
0
3DFACE
8
0
62
1
10
-9.018610
20
4.731980
30
7.155550
11
-10.645700
21
3.628160
31
6.635170
12
-9.459990
22
3.482420
32
6.581960
13
-9.459990
23
3.482420
33
6.581960
0
3DFACE
8
0
62
1
10
-9.018610
20
4.731980
30
7.155550
11
-11.872600
21
3.572770
31
6.690220
12
-10.645700
22
3.628160
32
6.635170
13
-10.645700
23
3.628160
33
6.635170
0
3DFACE
8
0
62
1
10
-9.504000
20
13.412800
30
12.036700
11
-9.504000
21
9.215850
31
8.835470
12
-9.528770
22
12.858300
32
12.830800
13
-9.528770
23
12.858300
33
12.830800
0
3DFACE
8
0
62
1
10
-9.504000
20
9.215850
30
8.835470
11
-9.504000
21
8.685570
31
9.594880
12
-9.528770
22
12.858300
32
12.830800
13
-9.528770
23
12.858300
33
12.830800
0
3DFACE
8
0
62
1
10
-9.528770
20
12.858300
30
12.830800
11
-9.504000
21
8.685570
31
9.594880
12
-9.504000
22
12.589800
32
12.611400
13
-9.504000
23
12.589800
33
12.611400
0
3DFACE
8
0
62
1
10
-26.826599
20
26.237200
30
12.782300
11
-26.826599
21
26.237200
31
4.411810
12
-28.819201
22
23.889799
32
14.332900
13
-28.819201
23
23.889799
33
14.332900
0
3DFACE
8
0
62
1
10
-26.826599
20
26.237200
30
4.411810
11
-28.819201
21
23.889799
31
4.325300
12
-28.819201
22
23.889799
32
14.332900
13
-28.819201
23
23.889799
33
14.332900
0
3DFACE
8
0
62
1
10
-29.869600
20
22.281799
30
4.266050
11
-29.890499
21
22.249800
31
-1.877980
12
-28.819201
22
23.889799
32
4.325300
13
-28.819201
23
23.889799
33
4.325300
0
3DFACE
8
0
62
1
10
-29.890499
20
22.249800
30
-1.877980
11
-28.819201
21
23.889799
31
-1.817550
12
-28.819201
22
23.889799
32
4.325300
13
-28.819201
23
23.889799
33
4.325300
0
3DFACE
8
0
62
1
10
-28.819201
20
23.889799
30
4.325300
11
-28.819201
21
23.889799
31
-1.817550
12
-28.819201
22
23.889799
32
14.332900
13
-28.819201
23
23.889799
33
14.332900
0
3DFACE
8
0
62
1
10
-28.819201
20
23.889799
30
-1.817550
11
-28.819201
21
23.889799
31
-14.332900
12
-28.819201
22
23.889799
32
14.332900
13
-28.819201
23
23.889799
33
14.332900
0
3DFACE
8
0
62
1
10
-28.819201
20
23.889799
30
14.332900
11
-28.819201
21
23.889799
31
-14.332900
12
-32.650501
22
18.024799
32
17.052601
13
-32.650501
23
18.024799
33
17.052601
0
3DFACE
8
0
62
1
10
-28.819201
20
23.889799
30
-14.332900
11
-32.650501
21
18.024799
31
-17.052601
12
-32.650501
22
18.024799
32
17.052601
13
-32.650501
23
18.024799
33
17.052601
0
3DFACE
8
0
62
1
10
-28.819201
20
23.889799
30
-14.332900
11
-28.819201
21
23.889799
31
-1.817550
12
-26.826599
22
26.237200
32
-12.782300
13
-26.826599
23
26.237200
33
-12.782300
0
3DFACE
8
0
62
1
10
-28.819201
20
23.889799
30
-1.817550
11
-26.826599
21
26.237200
31
-1.731040
12
-26.826599
22
26.237200
32
-12.782300
13
-26.826599
23
26.237200
33
-12.782300
0
3DFACE
8
0
62
1
10
-26.826599
20
26.237200
30
-12.782300
11
-26.826599
21
26.237200
31
-1.731040
12
-24.130400
22
29.513500
32
-10.773800
13
-24.130400
23
29.513500
33
-10.773800
0
3DFACE
8
0
62
1
10
-26.826599
20
26.237200
30
-1.731040
11
-25.767099
21
27.524599
31
-1.683600
12
-24.130400
22
29.513500
32
-10.773800
13
-24.130400
23
29.513500
33
-10.773800
0
3DFACE
8
0
62
1
10
-24.130400
20
29.513500
30
-10.773800
11
-25.767099
21
27.524599
31
-1.683600
12
-24.130400
22
29.513500
32
10.773800
13
-24.130400
23
29.513500
33
10.773800
0
3DFACE
8
0
62
1
10
-25.767099
20
27.524599
30
-1.683600
11
-25.740801
21
27.556601
31
4.460430
12
-24.130400
22
29.513500
32
10.773800
13
-24.130400
23
29.513500
33
10.773800
0
3DFACE
8
0
62
1
10
-24.130400
20
29.513500
30
10.773800
11
-25.740801
21
27.556601
31
4.460430
12
-26.826599
22
26.237200
32
12.782300
13
-26.826599
23
26.237200
33
12.782300
0
3DFACE
8
0
62
1
10
-25.740801
20
27.556601
30
4.460430
11
-26.826599
21
26.237200
31
4.411810
12
-26.826599
22
26.237200
32
12.782300
13
-26.826599
23
26.237200
33
12.782300
0
3DFACE
8
0
62
1
10
-6.376600
20
36.153801
30
-4.706820
11
-6.376600
21
33.551800
31
-4.470660
12
-2.635750
22
36.153801
32
-4.706820
13
-2.635750
23
36.153801
33
-4.706820
0
3DFACE
8
0
62
1
10
-6.376600
20
33.551800
30
-4.470660
11
-2.635750
21
33.551800
31
-4.470660
12
-2.635750
22
36.153801
32
-4.706820
13
-2.635750
23
36.153801
33
-4.706820
0
3DFACE
8
0
62
1
10
-2.635750
20
36.153801
30
-4.706820
11
-2.635750
21
33.551800
31
-4.470660
12
-2.112640
22
36.285702
32
-8.234740
13
-2.112640
23
36.285702
33
-8.234740
0
3DFACE
8
0
62
1
10
-2.635750
20
33.551800
30
-4.470660
11
-1.911870
21
31.653799
31
-7.998570
12
-2.112640
22
36.285702
32
-8.234740
13
-2.112640
23
36.285702
33
-8.234740
0
3DFACE
8
0
62
1
10
-5.853490
20
36.285702
30
-8.234740
11
-4.977410
21
31.653799
31
-7.998570
12
-6.376600
22
36.153801
32
-4.706820
13
-6.376600
23
36.153801
33
-4.706820
0
3DFACE
8
0
62
1
10
-4.977410
20
31.653799
30
-7.998570
11
-6.376600
21
33.551800
31
-4.470660
12
-6.376600
22
36.153801
32
-4.706820
13
-6.376600
23
36.153801
33
-4.706820
0
3DFACE
8
0
62
1
10
-2.112640
20
36.285702
30
-8.234740
11
-1.911870
21
31.653799
31
-7.998570
12
-5.853490
22
36.285702
32
-8.234740
13
-5.853490
23
36.285702
33
-8.234740
0
3DFACE
8
0
62
1
10
-1.911870
20
31.653799
30
-7.998570
11
-4.977410
21
31.653799
31
-7.998570
12
-5.853490
22
36.285702
32
-8.234740
13
-5.853490
23
36.285702
33
-8.234740
0
3DFACE
8
0
62
1
10
-2.112640
20
36.285702
30
-8.234740
11
-5.853490
21
36.285702
31
-8.234740
12
-2.112640
22
39.570499
32
-7.363180
13
-2.112640
23
39.570499
33
-7.363180
0
3DFACE
8
0
62
1
10
-5.853490
20
36.285702
30
-8.234740
11
-5.853490
21
39.570499
31
-7.363180
12
-2.112640
22
39.570499
32
-7.363180
13
-2.112640
23
39.570499
33
-7.363180
0
3DFACE
8
0
62
1
10
-2.635750
20
36.153801
30
-4.706820
11
-2.112640
21
36.285702
31
-8.234740
12
-2.635750
22
37.374599
32
-4.373350
13
-2.635750
23
37.374599
33
-4.373350
0
3DFACE
8
0
62
1
10
-2.112640
20
36.285702
30
-8.234740
11
-2.112640
21
39.570499
31
-7.363180
12
-2.635750
22
37.374599
32
-4.373350
13
-2.635750
23
37.374599
33
-4.373350
0
3DFACE
8
0
62
1
10
-6.376600
20
36.153801
30
-4.706820
11
-2.635750
21
36.153801
31
-4.706820
12
-6.376600
22
37.374599
32
-4.373350
13
-6.376600
23
37.374599
33
-4.373350
0
3DFACE
8
0
62
1
10
-2.635750
20
36.153801
30
-4.706820
11
-2.635750
21
37.374599
31
-4.373350
12
-6.376600
22
37.374599
32
-4.373350
13
-6.376600
23
37.374599
33
-4.373350
0
3DFACE
8
0
62
1
10
-5.853490
20
36.285702
30
-8.234740
11
-6.376600
21
36.153801
31
-4.706820
12
-5.853490
22
39.570499
32
-7.363180
13
-5.853490
23
39.570499
33
-7.363180
0
3DFACE
8
0
62
1
10
-6.376600
20
36.153801
30
-4.706820
11
-6.376600
21
37.374599
31
-4.373350
12
-5.853490
22
39.570499
32
-7.363180
13
-5.853490
23
39.570499
33
-7.363180
0
3DFACE
8
0
62
1
10
-2.112640
20
39.570499
30
-7.363180
11
-5.853490
21
39.570499
31
-7.363180
12
-2.112640
22
41.515202
32
-5.224600
13
-2.112640
23
41.515202
33
-5.224600
0
3DFACE
8
0
62
1
10
-5.853490
20
39.570499
30
-7.363180
11
-5.853490
21
41.515202
31
-5.224600
12
-2.112640
22
41.515202
32
-5.224600
13
-2.112640
23
41.515202
33
-5.224600
0
3DFACE
8
0
62
1
10
-2.635750
20
37.374599
30
-4.373350
11
-2.112640
21
39.570499
31
-7.363180
12
-2.635750
22
37.989300
32
-3.385140
13
-2.635750
23
37.989300
33
-3.385140
0
3DFACE
8
0
62
1
10
-2.112640
20
39.570499
30
-7.363180
11
-2.112640
21
41.515202
31
-5.224600
12
-2.635750
22
37.989300
32
-3.385140
13
-2.635750
23
37.989300
33
-3.385140
0
3DFACE
8
0
62
1
10
-6.376600
20
37.374599
30
-4.373350
11
-2.635750
21
37.374599
31
-4.373350
12
-6.376600
22
37.989300
32
-3.385140
13
-6.376600
23
37.989300
33
-3.385140
0
3DFACE
8
0
62
1
10
-2.635750
20
37.374599
30
-4.373350
11
-2.635750
21
37.989300
31
-3.385140
12
-6.376600
22
37.989300
32
-3.385140
13
-6.376600
23
37.989300
33
-3.385140
0
3DFACE
8
0
62
1
10
-5.853490
20
39.570499
30
-7.363180
11
-6.376600
21
37.374599
31
-4.373350
12
-5.853490
22
41.515202
32
-5.224600
13
-5.853490
23
41.515202
33
-5.224600
0
3DFACE
8
0
62
1
10
-6.376600
20
37.374599
30
-4.373350
11
-6.376600
21
37.989300
31
-3.385140
12
-5.853490
22
41.515202
32
-5.224600
13
-5.853490
23
41.515202
33
-5.224600
0
3DFACE
8
0
62
1
10
-2.112640
20
41.515202
30
-5.224600
11
-5.853490
21
41.515202
31
-5.224600
12
-2.112640
22
42.030998
32
-3.912060
13
-2.112640
23
42.030998
33
-3.912060
0
3DFACE
8
0
62
1
10
-5.853490
20
41.515202
30
-5.224600
11
-5.853490
21
42.030998
31
-3.912060
12
-2.112640
22
42.030998
32
-3.912060
13
-2.112640
23
42.030998
33
-3.912060
0
3DFACE
8
0
62
1
10
-2.635750
20
37.989300
30
-3.385140
11
-2.112640
21
41.515202
31
-5.224600
12
-2.635750
22
38.699402
32
-1.824910
13
-2.635750
23
38.699402
33
-1.824910
0
3DFACE
8
0
62
1
10
-2.112640
20
41.515202
30
-5.224600
11
-2.112640
21
42.030998
31
-3.912060
12
-2.635750
22
38.699402
32
-1.824910
13
-2.635750
23
38.699402
33
-1.824910
0
3DFACE
8
0
62
1
10
-6.376600
20
37.989300
30
-3.385140
11
-2.635750
21
37.989300
31
-3.385140
12
-6.376600
22
38.699402
32
-1.824910
13
-6.376600
23
38.699402
33
-1.824910
0
3DFACE
8
0
62
1
10
-2.635750
20
37.989300
30
-3.385140
11
-2.635750
21
38.699402
31
-1.824910
12
-6.376600
22
38.699402
32
-1.824910
13
-6.376600
23
38.699402
33
-1.824910
0
3DFACE
8
0
62
1
10
-5.853490
20
41.515202
30
-5.224600
11
-6.376600
21
37.989300
31
-3.385140
12
-5.853490
22
42.030998
32
-3.912060
13
-5.853490
23
42.030998
33
-3.912060
0
3DFACE
8
0
62
1
10
-6.376600
20
37.989300
30
-3.385140
11
-6.376600
21
38.699402
31
-1.824910
12
-5.853490
22
42.030998
32
-3.912060
13
-5.853490
23
42.030998
33
-3.912060
0
3DFACE
8
0
62
1
10
-2.112640
20
42.030998
30
-3.912060
11
-5.853490
21
42.030998
31
-3.912060
12
-2.538530
22
44.154099
32
-2.187530
13
-2.538530
23
44.154099
33
-2.187530
0
3DFACE
8
0
62
1
10
-5.853490
20
42.030998
30
-3.912060
11
-5.532100
21
44.154099
31
-2.187530
12
-2.538530
22
44.154099
32
-2.187530
13
-2.538530
23
44.154099
33
-2.187530
0
3DFACE
8
0
62
1
10
-2.635750
20
38.699402
30
-1.824910
11
-2.112640
21
42.030998
31
-3.912060
12
-2.957140
22
42.157501
32
0.063771
13
-2.957140
23
42.157501
33
0.063771
0
3DFACE
8
0
62
1
10
-2.112640
20
42.030998
30
-3.912060
11
-2.538530
21
44.154099
31
-2.187530
12
-2.957140
22
42.157501
32
0.063771
13
-2.957140
23
42.157501
33
0.063771
0
3DFACE
8
0
62
1
10
-6.376600
20
38.699402
30
-1.824910
11
-2.635750
21
38.699402
31
-1.824910
12
-5.950710
22
42.157501
32
0.063772
13
-5.950710
23
42.157501
33
0.063772
0
3DFACE
8
0
62
1
10
-2.635750
20
38.699402
30
-1.824910
11
-2.957140
21
42.157501
31
0.063771
12
-5.950710
22
42.157501
32
0.063772
13
-5.950710
23
42.157501
33
0.063772
0
3DFACE
8
0
62
1
10
-5.853490
20
42.030998
30
-3.912060
11
-6.376600
21
38.699402
31
-1.824910
12
-5.532100
22
44.154099
32
-2.187530
13
-5.532100
23
44.154099
33
-2.187530
0
3DFACE
8
0
62
1
10
-6.376600
20
38.699402
30
-1.824910
11
-5.950710
21
42.157501
31
0.063772
12
-5.532100
22
44.154099
32
-2.187530
13
-5.532100
23
44.154099
33
-2.187530
0
3DFACE
8
0
62
1
10
3.001880
20
12.865300
30
12.836500
11
2.733320
21
12.589800
31
12.611400
12
8.030900
22
18.024799
32
17.052601
13
8.030900
23
18.024799
33
17.052601
0
3DFACE
8
0
62
1
10
2.733320
20
12.589800
30
12.611400
11
2.733320
21
12.589800
31
-12.611400
12
8.030900
22
18.024799
32
17.052601
13
8.030900
23
18.024799
33
17.052601
0
3DFACE
8
0
62
1
10
8.030900
20
18.024799
30
17.052601
11
2.733320
21
12.589800
31
-12.611400
12
8.030900
22
18.024799
32
-17.052601
13
8.030900
23
18.024799
33
-17.052601
0
3DFACE
8
0
62
1
10
-9.528770
20
12.858300
30
12.830800
11
-9.504000
21
12.589800
31
12.611400
12
3.001880
22
12.865300
32
12.836500
13
3.001880
23
12.865300
33
12.836500
0
3DFACE
8
0
62
1
10
-9.504000
20
12.589800
30
12.611400
11
2.733320
21
12.589800
31
12.611400
12
3.001880
22
12.865300
32
12.836500
13
3.001880
23
12.865300
33
12.836500
0
3DFACE
8
0
62
1
10
-9.528770
20
12.858300
30
12.830800
11
3.001880
21
12.865300
31
12.836500
12
-9.375400
22
18.024799
32
17.052601
13
-9.375400
23
18.024799
33
17.052601
0
3DFACE
8
0
62
1
10
3.001880
20
12.865300
30
12.836500
11
8.030900
21
18.024799
31
17.052601
12
-9.375400
22
18.024799
32
17.052601
13
-9.375400
23
18.024799
33
17.052601
0
3DFACE
8
0
62
1
10
-32.650501
20
18.024799
30
-17.052601
11
-27.352900
21
12.589800
31
-12.611400
12
-32.650501
22
18.024799
32
17.052601
13
-32.650501
23
18.024799
33
17.052601
0
3DFACE
8
0
62
1
10
-27.352900
20
12.589800
30
-12.611400
11
-27.352900
21
12.589800
31
12.611400
12
-32.650501
22
18.024799
32
17.052601
13
-32.650501
23
18.024799
33
17.052601
0
3DFACE
8
0
62
1
10
-32.650501
20
18.024799
30
17.052601
11
-27.352900
21
12.589800
31
12.611400
12
-27.752501
22
12.999800
32
12.946400
13
-27.752501
23
12.999800
33
12.946400
0
3DFACE
8
0
62
1
10
-14.385900
20
12.858300
30
12.830800
11
-14.385900
21
12.589800
31
12.611400
12
-14.385900
22
13.412800
32
12.036700
13
-14.385900
23
13.412800
33
12.036700
0
3DFACE
8
0
62
1
10
-14.385900
20
12.589800
30
12.611400
11
-14.385900
21
8.685570
31
9.594880
12
-14.385900
22
13.412800
32
12.036700
13
-14.385900
23
13.412800
33
12.036700
0
3DFACE
8
0
62
1
10
-14.385900
20
13.412800
30
12.036700
11
-14.385900
21
8.685570
31
9.594880
12
-14.385900
22
9.215850
32
8.835470
13
-14.385900
23
9.215850
33
8.835470
0
3DFACE
8
0
62
1
10
-27.752501
20
12.999800
30
12.946400
11
-27.352900
21
12.589800
31
12.611400
12
-14.385900
22
12.858300
32
12.830800
13
-14.385900
23
12.858300
33
12.830800
0
3DFACE
8
0
62
1
10
-27.352900
20
12.589800
30
12.611400
11
-14.385900
21
12.589800
31
12.611400
12
-14.385900
22
12.858300
32
12.830800
13
-14.385900
23
12.858300
33
12.830800
0
3DFACE
8
0
62
1
10
-14.385900
20
13.412800
30
12.036700
11
-9.504000
21
13.412800
31
12.036700
12
-14.385900
22
12.858300
32
12.830800
13
-14.385900
23
12.858300
33
12.830800
0
3DFACE
8
0
62
1
10
-9.504000
20
13.412800
30
12.036700
11
-9.528770
21
12.858300
31
12.830800
12
-14.385900
22
12.858300
32
12.830800
13
-14.385900
23
12.858300
33
12.830800
0
3DFACE
8
0
62
1
10
-27.752501
20
12.999800
30
12.946400
11
-14.385900
21
12.858300
31
12.830800
12
-32.650501
22
18.024799
32
17.052601
13
-32.650501
23
18.024799
33
17.052601
0
3DFACE
8
0
62
1
10
-14.385900
20
12.858300
30
12.830800
11
-14.503200
21
18.024799
31
17.052601
12
-32.650501
22
18.024799
32
17.052601
13
-32.650501
23
18.024799
33
17.052601
0
3DFACE
8
0
62
1
10
-14.503200
20
18.024799
30
17.052601
11
-14.385900
21
12.858300
31
12.830800
12
-9.375400
22
18.024799
32
17.052601
13
-9.375400
23
18.024799
33
17.052601
0
3DFACE
8
0
62
1
10
-14.385900
20
12.858300
30
12.830800
11
-9.528770
21
12.858300
31
12.830800
12
-9.375400
22
18.024799
32
17.052601
13
-9.375400
23
18.024799
33
17.052601
0
3DFACE
8
0
62
1
10
-14.369500
20
8.119820
30
9.157770
11
-14.385900
21
8.685570
31
9.594880
12
-23.233400
22
8.119820
32
9.157770
13
-23.233400
23
8.119820
33
9.157770
0
3DFACE
8
0
62
1
10
-14.385900
20
8.685570
30
9.594880
11
-14.385900
21
12.589800
31
12.611400
12
-23.233400
22
8.119820
32
9.157770
13
-23.233400
23
8.119820
33
9.157770
0
3DFACE
8
0
62
1
10
-23.233400
20
8.119820
30
9.157770
11
-14.385900
21
12.589800
31
12.611400
12
-27.352900
22
12.589800
32
12.611400
13
-27.352900
23
12.589800
33
12.611400
0
3DFACE
8
0
62
1
10
-14.385900
20
9.215850
30
8.835470
11
-14.385900
21
8.685570
31
9.594880
12
-9.504000
22
9.215850
32
8.835470
13
-9.504000
23
9.215850
33
8.835470
0
3DFACE
8
0
62
1
10
-14.385900
20
8.685570
30
9.594880
11
-9.504000
21
8.685570
31
9.594880
12
-9.504000
22
9.215850
32
8.835470
13
-9.504000
23
9.215850
33
8.835470
0
3DFACE
8
0
62
1
10
-9.018610
20
4.731980
30
7.155550
11
-3.774510
21
4.731980
31
7.155550
12
-20.845100
22
4.731980
32
7.155550
13
-20.845100
23
4.731980
33
7.155550
0
3DFACE
8
0
62
1
10
-3.774510
20
4.731980
30
7.155550
11
-1.386220
21
8.119820
31
9.157770
12
-20.845100
22
4.731980
32
7.155550
13
-20.845100
23
4.731980
33
7.155550
0
3DFACE
8
0
62
1
10
-20.845100
20
4.731980
30
7.155550
11
-1.386220
21
8.119820
31
9.157770
12
-23.233400
22
8.119820
32
9.157770
13
-23.233400
23
8.119820
33
9.157770
0
3DFACE
8
0
62
1
10
-1.386220
20
8.119820
30
9.157770
11
-9.385140
21
8.119820
31
9.157770
12
-23.233400
22
8.119820
32
9.157770
13
-23.233400
23
8.119820
33
9.157770
0
3DFACE
8
0
62
1
10
-23.233400
20
8.119820
30
9.157770
11
-9.385140
21
8.119820
31
9.157770
12
-14.369500
22
8.119820
32
9.157770
13
-14.369500
23
8.119820
33
9.157770
0
3DFACE
8
0
62
1
10
-9.385140
20
8.119820
30
9.157770
11
-1.386220
21
8.119820
31
9.157770
12
-9.504000
22
8.685570
32
9.594880
13
-9.504000
23
8.685570
33
9.594880
0
3DFACE
8
0
62
1
10
-1.386220
20
8.119820
30
9.157770
11
2.733320
21
12.589800
31
12.611400
12
-9.504000
22
8.685570
32
9.594880
13
-9.504000
23
8.685570
33
9.594880
0
3DFACE
8
0
62
1
10
-9.504000
20
8.685570
30
9.594880
11
2.733320
21
12.589800
31
12.611400
12
-9.504000
22
12.589800
32
12.611400
13
-9.504000
23
12.589800
33
12.611400
0
3DFACE
8
0
62
1
10
-9.385140
20
8.119820
30
9.157770
11
-9.504000
21
8.685570
31
9.594880
12
-14.369500
22
8.119820
32
9.157770
13
-14.369500
23
8.119820
33
9.157770
0
3DFACE
8
0
62
1
10
-9.504000
20
8.685570
30
9.594880
11
-14.385900
21
8.685570
31
9.594880
12
-14.369500
22
8.119820
32
9.157770
13
-14.369500
23
8.119820
33
9.157770
0
3DFACE
8
0
62
1
10
-9.060540
20
-4.054230
30
5.040630
11
-9.059910
21
-4.229620
31
5.040630
12
-9.058530
22
-4.054160
32
5.040630
13
-9.058530
23
-4.054160
33
5.040630
0
3DFACE
8
0
62
1
10
-9.059910
20
-4.229620
30
5.040630
11
-5.372960
21
-4.229620
31
5.040630
12
-9.058530
22
-4.054160
32
5.040630
13
-9.058530
23
-4.054160
33
5.040630
0
3DFACE
8
0
62
1
10
-9.058530
20
-4.054160
30
5.040630
11
-5.372960
21
-4.229620
31
5.040630
12
-8.741740
22
-1.150790
32
5.040630
13
-8.741740
23
-1.150790
33
5.040630
0
3DFACE
8
0
62
1
10
-5.372960
20
-4.229620
30
5.040630
11
-6.297230
21
-1.150790
31
5.040630
12
-8.741740
22
-1.150790
32
5.040630
13
-8.741740
23
-1.150790
33
5.040630
0
3DFACE
8
0
62
1
10
-14.318800
20
2.961120
30
3.126200
11
-14.318800
21
-4.069540
31
3.126200
12
-9.436940
22
2.961120
32
3.126200
13
-9.436940
23
2.961120
33
3.126200
0
3DFACE
8
0
62
1
10
-14.318800
20
-4.069540
30
3.126200
11
-9.436940
21
-4.069540
31
3.126200
12
-9.436940
22
2.961120
32
3.126200
13
-9.436940
23
2.961120
33
3.126200
0
3DFACE
8
0
62
1
10
-9.504000
20
9.215850
30
8.835470
11
-9.504000
21
13.412800
31
12.036700
12
-14.385900
22
9.215850
32
8.835470
13
-14.385900
23
9.215850
33
8.835470
0
3DFACE
8
0
62
1
10
-9.504000
20
13.412800
30
12.036700
11
-14.385900
21
13.412800
31
12.036700
12
-14.385900
22
9.215850
32
8.835470
13
-14.385900
23
9.215850
33
8.835470
0
3DFACE
8
0
62
1
10
-14.717600
20
3.540830
30
6.581960
11
-14.752000
21
1.556380
31
5.697840
12
-14.667500
22
2.947320
32
6.336330
13
-14.667500
23
2.947320
33
6.336330
0
3DFACE
8
0
62
1
10
-9.436940
20
2.961120
30
3.126200
11
-9.436940
21
-4.069540
31
3.126200
12
-9.075720
22
-1.150790
32
5.040630
13
-9.075720
23
-1.150790
33
5.040630
0
3DFACE
8
0
62
1
10
-9.075720
20
-1.150790
30
5.040630
11
-9.436940
21
-4.069540
31
3.126200
12
-9.505260
22
-4.069540
32
5.040630
13
-9.505260
23
-4.069540
33
5.040630
0
3DFACE
8
0
62
1
10
-9.436940
20
2.961120
30
3.126200
11
-9.075720
21
-1.150790
31
5.040630
12
-9.436940
22
1.556380
32
5.697840
13
-9.436940
23
1.556380
33
5.697840
0
3DFACE
8
0
62
1
10
-9.436940
20
2.961120
30
3.126200
11
-9.436940
21
1.556380
31
5.697840
12
-9.449840
22
2.961120
32
6.342660
13
-9.449840
23
2.961120
33
6.342660
0
3DFACE
8
0
62
1
10
-14.318800
20
2.961120
30
3.126200
11
-14.318800
21
2.961120
31
6.342660
12
-14.318800
22
1.556380
32
5.697840
13
-14.318800
23
1.556380
33
5.697840
0
3DFACE
8
0
62
1
10
-14.318800
20
2.961120
30
6.342660
11
-14.318800
21
2.961120
31
3.126200
12
-9.449840
22
2.961120
32
6.342660
13
-9.449840
23
2.961120
33
6.342660
0
3DFACE
8
0
62
1
10
-14.318800
20
2.961120
30
3.126200
11
-9.436940
21
2.961120
31
3.126200
12
-9.449840
22
2.961120
32
6.342660
13
-9.449840
23
2.961120
33
6.342660
0
3DFACE
8
0
62
1
10
-14.318800
20
2.961120
30
3.126200
11
-14.318800
21
1.556380
31
5.697840
12
-14.577000
22
-1.150790
32
5.040630
13
-14.577000
23
-1.150790
33
5.040630
0
3DFACE
8
0
62
1
10
-14.318800
20
2.961120
30
3.126200
11
-14.577000
21
-1.150790
31
5.040630
12
-14.290400
22
-4.069540
32
5.040630
13
-14.290400
23
-4.069540
33
5.040630
0
3DFACE
8
0
62
1
10
-14.318800
20
2.961120
30
3.126200
11
-14.290400
21
-4.069540
31
5.040630
12
-14.318800
22
-4.069540
32
3.126200
13
-14.318800
23
-4.069540
33
3.126200
0
3DFACE
8
0
62
1
10
-14.319100
20
1.523600
30
6.136650
11
-14.577200
21
-1.183560
31
5.479440
12
-14.318800
22
1.556380
32
5.697840
13
-14.318800
23
1.556380
33
5.697840
0
3DFACE
8
0
62
1
10
-14.577200
20
-1.183560
30
5.479440
11
-14.577000
21
-1.150790
31
5.040630
12
-14.318800
22
1.556380
32
5.697840
13
-14.318800
23
1.556380
33
5.697840
0
3DFACE
8
0
62
1
10
-14.319100
20
1.523600
30
6.136650
11
-14.318800
21
1.556380
31
5.697840
12
-14.319100
22
2.928340
32
6.781470
13
-14.319100
23
2.928340
33
6.781470
0
3DFACE
8
0
62
1
10
-14.318800
20
1.556380
30
5.697840
11
-14.318800
21
2.961120
31
6.342660
12
-14.319100
22
2.928340
32
6.781470
13
-14.319100
23
2.928340
33
6.781470
0
3DFACE
8
0
62
1
10
-14.925900
20
-1.183560
30
5.479440
11
-14.577200
21
-1.183560
31
5.479440
12
-14.752200
22
1.523600
32
6.136650
13
-14.752200
23
1.523600
33
6.136650
0
3DFACE
8
0
62
1
10
-14.577200
20
-1.183560
30
5.479440
11
-14.319100
21
1.523600
31
6.136650
12
-14.752200
22
1.523600
32
6.136650
13
-14.752200
23
1.523600
33
6.136650
0
3DFACE
8
0
62
1
10
-14.752200
20
1.523600
30
6.136650
11
-14.752000
21
1.556380
31
5.697840
12
-14.925900
22
-1.183560
32
5.479440
13
-14.925900
23
-1.183560
33
5.479440
0
3DFACE
8
0
62
1
10
-14.752000
20
1.556380
30
5.697840
11
-14.925700
21
-1.150790
31
5.040630
12
-14.925900
22
-1.183560
32
5.479440
13
-14.925900
23
-1.183560
33
5.479440
0
3DFACE
8
0
62
1
10
-14.925900
20
-1.183560
30
5.479440
11
-14.925700
21
-1.150790
31
5.040630
12
-14.724400
22
-4.093180
32
5.479440
13
-14.724400
23
-4.093180
33
5.479440
0
3DFACE
8
0
62
1
10
-14.925700
20
-1.150790
30
5.040630
11
-14.724200
21
-4.060400
31
5.040630
12
-14.724400
22
-4.093180
32
5.479440
13
-14.724400
23
-4.093180
33
5.479440
0
3DFACE
8
0
62
1
10
-14.319100
20
2.928340
30
6.781470
11
-12.961500
21
3.580760
31
7.177890
12
-14.369100
22
3.449650
32
7.020770
13
-14.369100
23
3.449650
33
7.020770
0
3DFACE
8
0
62
1
10
-14.369100
20
3.449650
30
7.020770
11
-14.717800
21
3.508050
31
7.020770
12
-14.667700
22
2.914540
32
6.775140
13
-14.667700
23
2.914540
33
6.775140
0
3DFACE
8
0
62
1
10
-14.319100
20
1.523600
30
6.136650
11
-14.319100
21
2.928340
31
6.781470
12
-14.752200
22
1.523600
32
6.136650
13
-14.752200
23
1.523600
33
6.136650
0
3DFACE
8
0
62
1
10
-14.319100
20
2.928340
30
6.781470
11
-14.369100
21
3.449650
31
7.020770
12
-14.752200
22
1.523600
32
6.136650
13
-14.752200
23
1.523600
33
6.136650
0
3DFACE
8
0
62
1
10
-14.752200
20
1.523600
30
6.136650
11
-14.369100
21
3.449650
31
7.020770
12
-14.667700
22
2.914540
32
6.775140
13
-14.667700
23
2.914540
33
6.775140
0
3DFACE
8
0
62
1
10
-14.667700
20
2.914540
30
6.775140
11
-14.667500
21
2.947320
31
6.336330
12
-14.752200
22
1.523600
32
6.136650
13
-14.752200
23
1.523600
33
6.136650
0
3DFACE
8
0
62
1
10
-14.667500
20
2.947320
30
6.336330
11
-14.752000
21
1.556380
31
5.697840
12
-14.752200
22
1.523600
32
6.136650
13
-14.752200
23
1.523600
33
6.136650
0
3DFACE
8
0
62
1
10
-14.319100
20
2.928340
30
6.781470
11
-12.911400
21
2.928340
31
6.781470
12
-12.961500
22
3.580760
32
7.177890
13
-12.961500
23
3.580760
33
7.177890
0
3DFACE
8
0
62
1
10
-14.290600
20
-4.102320
30
5.479440
11
-14.290400
21
-4.069540
31
5.040630
12
-14.577200
22
-1.183560
32
5.479440
13
-14.577200
23
-1.183560
33
5.479440
0
3DFACE
8
0
62
1
10
-14.290400
20
-4.069540
30
5.040630
11
-14.577000
21
-1.150790
31
5.040630
12
-14.577200
22
-1.183560
32
5.479440
13
-14.577200
23
-1.183560
33
5.479440
0
3DFACE
8
0
62
1
10
-14.925900
20
-1.183560
30
5.479440
11
-14.724400
21
-4.093180
31
5.479440
12
-14.577200
22
-1.183560
32
5.479440
13
-14.577200
23
-1.183560
33
5.479440
0
3DFACE
8
0
62
1
10
-14.724400
20
-4.093180
30
5.479440
11
-14.734300
21
-4.262390
31
5.479440
12
-14.577200
22
-1.183560
32
5.479440
13
-14.577200
23
-1.183560
33
5.479440
0
3DFACE
8
0
62
1
10
-14.577200
20
-1.183560
30
5.479440
11
-14.734300
21
-4.262390
31
5.479440
12
-14.290600
22
-4.102320
32
5.479440
13
-14.290600
23
-4.102320
33
5.479440
0
3DFACE
8
0
62
1
10
-14.734300
20
-4.262390
30
5.479440
11
-14.300600
21
-4.262390
31
5.479440
12
-14.290600
22
-4.102320
32
5.479440
13
-14.290600
23
-4.102320
33
5.479440
0
3DFACE
8
0
62
1
10
-14.724400
20
-4.093180
30
5.479440
11
-14.724200
21
-4.060400
31
5.040630
12
-14.734300
22
-4.262390
32
5.479440
13
-14.734300
23
-4.262390
33
5.479440
0
3DFACE
8
0
62
1
10
-14.724200
20
-4.060400
30
5.040630
11
-14.734000
21
-4.229620
31
5.040630
12
-14.734300
22
-4.262390
32
5.479440
13
-14.734300
23
-4.262390
33
5.479440
0
3DFACE
8
0
62
1
10
-14.734300
20
-4.262390
30
5.479440
11
-14.734000
21
-4.229620
31
5.040630
12
-14.300600
22
-4.262390
32
5.479440
13
-14.300600
23
-4.262390
33
5.479440
0
3DFACE
8
0
62
1
10
-14.734000
20
-4.229620
30
5.040630
11
-14.300300
21
-4.229620
31
5.040630
12
-14.300600
22
-4.262390
32
5.479440
13
-14.300600
23
-4.262390
33
5.479440
0
3DFACE
8
0
62
1
10
-14.300600
20
-4.262390
30
5.479440
11
-14.300300
21
-4.229620
31
5.040630
12
-14.290600
22
-4.102320
32
5.479440
13
-14.290600
23
-4.102320
33
5.479440
0
3DFACE
8
0
62
1
10
-14.300300
20
-4.229620
30
5.040630
11
-14.290400
21
-4.069540
31
5.040630
12
-14.290600
22
-4.102320
32
5.479440
13
-14.290600
23
-4.102320
33
5.479440
0
3DFACE
8
0
62
1
10
-12.911400
20
2.928340
30
6.781470
11
-11.872800
21
3.539990
31
7.129030
12
-12.961500
22
3.580760
32
7.177890
13
-12.961500
23
3.580760
33
7.177890
0
3DFACE
8
0
62
1
10
-12.911400
20
2.928340
30
6.781470
11
-11.820900
21
2.928340
31
6.781470
12
-11.872800
22
3.539990
32
7.129030
13
-11.872800
23
3.539990
33
7.129030
0
3DFACE
8
0
62
1
10
-11.820900
20
2.928340
30
6.781470
11
-10.646000
21
3.595380
31
7.073980
12
-11.872800
22
3.539990
32
7.129030
13
-11.872800
23
3.539990
33
7.129030
0
3DFACE
8
0
62
1
10
-10.646000
20
3.595380
30
7.073980
11
-11.820900
21
2.928340
31
6.781470
12
-9.450080
22
2.928340
32
6.781470
13
-9.450080
23
2.928340
33
6.781470
0
3DFACE
8
0
62
1
10
-9.450080
20
2.928340
30
6.781470
11
-9.460230
21
3.449650
31
7.020770
12
-10.646000
22
3.595380
32
7.073980
13
-10.646000
23
3.595380
33
7.073980
0
3DFACE
8
0
62
1
10
-9.450080
20
2.928340
30
6.781470
11
-14.319100
21
2.928340
31
6.781470
12
-9.449840
22
2.961120
32
6.342660
13
-9.449840
23
2.961120
33
6.342660
0
3DFACE
8
0
62
1
10
-14.319100
20
2.928340
30
6.781470
11
-14.318800
21
2.961120
31
6.342660
12
-9.449840
22
2.961120
32
6.342660
13
-9.449840
23
2.961120
33
6.342660
0
3DFACE
8
0
62
1
10
-9.450080
20
2.928340
30
6.781470
11
-9.449840
21
2.961120
31
6.342660
12
-9.437180
22
1.523600
32
6.136650
13
-9.437180
23
1.523600
33
6.136650
0
3DFACE
8
0
62
1
10
-9.449840
20
2.961120
30
6.342660
11
-9.436940
21
1.556380
31
5.697840
12
-9.437180
22
1.523600
32
6.136650
13
-9.437180
23
1.523600
33
6.136650
0
3DFACE
8
0
62
1
10
-9.075960
20
-1.183560
30
5.479440
11
-9.075720
21
-1.150790
31
5.040630
12
-9.505500
22
-4.102320
32
5.479440
13
-9.505500
23
-4.102320
33
5.479440
0
3DFACE
8
0
62
1
10
-9.075720
20
-1.150790
30
5.040630
11
-9.505260
21
-4.069540
31
5.040630
12
-9.505500
22
-4.102320
32
5.479440
13
-9.505500
23
-4.102320
33
5.479440
0
3DFACE
8
0
62
1
10
-9.437180
20
1.523600
30
6.136650
11
-9.436940
21
1.556380
31
5.697840
12
-9.075960
22
-1.183560
32
5.479440
13
-9.075960
23
-1.183560
33
5.479440
0
3DFACE
8
0
62
1
10
-9.436940
20
1.556380
30
5.697840
11
-9.075720
21
-1.150790
31
5.040630
12
-9.075960
22
-1.183560
32
5.479440
13
-9.075960
23
-1.183560
33
5.479440
0
3DFACE
8
0
62
1
10
-9.019610
20
1.523600
30
6.136650
11
-9.437180
21
1.523600
31
6.136650
12
-8.741980
22
-1.183560
32
5.479440
13
-8.741980
23
-1.183560
33
5.479440
0
3DFACE
8
0
62
1
10
-9.437180
20
1.523600
30
6.136650
11
-9.075960
21
-1.183560
31
5.479440
12
-8.741980
22
-1.183560
32
5.479440
13
-8.741980
23
-1.183560
33
5.479440
0
3DFACE
8
0
62
1
10
-9.019610
20
1.523600
30
6.136650
11
-8.741980
21
-1.183560
31
5.479440
12
-9.019380
22
1.556380
32
5.697840
13
-9.019380
23
1.556380
33
5.697840
0
3DFACE
8
0
62
1
10
-8.741980
20
-1.183560
30
5.479440
11
-8.741740
21
-1.150790
31
5.040630
12
-9.019380
22
1.556380
32
5.697840
13
-9.019380
23
1.556380
33
5.697840
0
3DFACE
8
0
62
1
10
-9.116120
20
2.932290
30
6.783290
11
-9.126250
21
3.449650
31
7.020770
12
-9.019610
22
1.523600
32
6.136650
13
-9.019610
23
1.523600
33
6.136650
0
3DFACE
8
0
62
1
10
-9.126250
20
3.449650
30
7.020770
11
-9.460230
21
3.449650
31
7.020770
12
-9.019610
22
1.523600
32
6.136650
13
-9.019610
23
1.523600
33
6.136650
0
3DFACE
8
0
62
1
10
-9.019610
20
1.523600
30
6.136650
11
-9.460230
21
3.449650
31
7.020770
12
-9.437180
22
1.523600
32
6.136650
13
-9.437180
23
1.523600
33
6.136650
0
3DFACE
8
0
62
1
10
-9.460230
20
3.449650
30
7.020770
11
-9.450080
21
2.928340
31
6.781470
12
-9.437180
22
1.523600
32
6.136650
13
-9.437180
23
1.523600
33
6.136650
0
3DFACE
8
0
62
1
10
-9.058770
20
-4.086940
30
5.479440
11
-8.741980
21
-1.183560
31
5.479440
12
-9.505500
22
-4.102320
32
5.479440
13
-9.505500
23
-4.102320
33
5.479440
0
3DFACE
8
0
62
1
10
-8.741980
20
-1.183560
30
5.479440
11
-9.075960
21
-1.183560
31
5.479440
12
-9.505500
22
-4.102320
32
5.479440
13
-9.505500
23
-4.102320
33
5.479440
0
3DFACE
8
0
62
1
10
-9.058770
20
-4.086940
30
5.479440
11
-9.058530
21
-4.054160
31
5.040630
12
-8.741980
22
-1.183560
32
5.479440
13
-8.741980
23
-1.183560
33
5.479440
0
3DFACE
8
0
62
1
10
-9.058530
20
-4.054160
30
5.040630
11
-8.741740
21
-1.150790
31
5.040630
12
-8.741980
22
-1.183560
32
5.479440
13
-8.741980
23
-1.183560
33
5.479440
0
3DFACE
8
0
62
1
10
-14.717600
20
3.540830
30
6.581960
11
-14.717800
21
3.508050
31
7.020770
12
-14.368900
22
3.482420
32
6.581960
13
-14.368900
23
3.482420
33
6.581960
0
3DFACE
8
0
62
1
10
-14.717800
20
3.508050
30
7.020770
11
-14.369100
21
3.449650
31
7.020770
12
-14.368900
22
3.482420
32
6.581960
13
-14.368900
23
3.482420
33
6.581960
0
3DFACE
8
0
62
1
10
-14.368900
20
3.482420
30
6.581960
11
-14.369100
21
3.449650
31
7.020770
12
-12.961300
22
3.613540
32
6.739080
13
-12.961300
23
3.613540
33
6.739080
0
3DFACE
8
0
62
1
10
-14.369100
20
3.449650
30
7.020770
11
-12.961500
21
3.580760
31
7.177890
12
-12.961300
22
3.613540
32
6.739080
13
-12.961300
23
3.613540
33
6.739080
0
3DFACE
8
0
62
1
10
-14.667500
20
2.947320
30
6.336330
11
-14.667700
21
2.914540
31
6.775140
12
-14.717600
22
3.540830
32
6.581960
13
-14.717600
23
3.540830
33
6.581960
0
3DFACE
8
0
62
1
10
-14.667700
20
2.914540
30
6.775140
11
-14.717800
21
3.508050
31
7.020770
12
-14.717600
22
3.540830
32
6.581960
13
-14.717600
23
3.540830
33
6.581960
0
3DFACE
8
0
62
1
10
-12.961300
20
3.613540
30
6.739080
11
-12.961500
21
3.580760
31
7.177890
12
-11.872600
22
3.572770
32
6.690220
13
-11.872600
23
3.572770
33
6.690220
0
3DFACE
8
0
62
1
10
-12.961500
20
3.580760
30
7.177890
11
-11.872800
21
3.539990
31
7.129030
12
-11.872600
22
3.572770
32
6.690220
13
-11.872600
23
3.572770
33
6.690220
0
3DFACE
8
0
62
1
10
-9.459990
20
3.482420
30
6.581960
11
-9.460230
21
3.449650
31
7.020770
12
-9.126010
22
3.482420
32
6.581960
13
-9.126010
23
3.482420
33
6.581960
0
3DFACE
8
0
62
1
10
-9.460230
20
3.449650
30
7.020770
11
-9.126250
21
3.449650
31
7.020770
12
-9.126010
22
3.482420
32
6.581960
13
-9.126010
23
3.482420
33
6.581960
0
3DFACE
8
0
62
1
10
-9.126010
20
3.482420
30
6.581960
11
-9.126250
21
3.449650
31
7.020770
12
-9.115880
22
2.965070
32
6.344480
13
-9.115880
23
2.965070
33
6.344480
0
3DFACE
8
0
62
1
10
-9.126250
20
3.449650
30
7.020770
11
-9.116120
21
2.932290
31
6.783290
12
-9.115880
22
2.965070
32
6.344480
13
-9.115880
23
2.965070
33
6.344480
0
3DFACE
8
0
62
1
10
-10.645700
20
3.628160
30
6.635170
11
-10.646000
21
3.595380
31
7.073980
12
-9.459990
22
3.482420
32
6.581960
13
-9.459990
23
3.482420
33
6.581960
0
3DFACE
8
0
62
1
10
-10.646000
20
3.595380
30
7.073980
11
-9.460230
21
3.449650
31
7.020770
12
-9.459990
22
3.482420
32
6.581960
13
-9.459990
23
3.482420
33
6.581960
0
3DFACE
8
0
62
1
10
-11.872600
20
3.572770
30
6.690220
11
-11.872800
21
3.539990
31
7.129030
12
-10.645700
22
3.628160
32
6.635170
13
-10.645700
23
3.628160
33
6.635170
0
3DFACE
8
0
62
1
10
-11.872800
20
3.539990
30
7.129030
11
-10.646000
21
3.595380
31
7.073980
12
-10.645700
22
3.628160
32
6.635170
13
-10.645700
23
3.628160
33
6.635170
0
3DFACE
8
0
62
1
10
-9.115880
20
2.965070
30
6.344480
11
-9.116120
21
2.932290
31
6.783290
12
-9.019380
22
1.556380
32
5.697840
13
-9.019380
23
1.556380
33
5.697840
0
3DFACE
8
0
62
1
10
-9.116120
20
2.932290
30
6.783290
11
-9.019610
21
1.523600
31
6.136650
12
-9.019380
22
1.556380
32
5.697840
13
-9.019380
23
1.556380
33
5.697840
0
3DFACE
8
0
62
1
10
-25.031601
20
27.524599
30
-1.683600
11
-25.767099
21
27.524599
31
-1.683600
12
-25.031601
22
22.249800
32
-1.877980
13
-25.031601
23
22.249800
33
-1.877980
0
3DFACE
8
0
62
1
10
-25.767099
20
27.524599
30
-1.683600
11
-26.826599
21
26.237200
31
-1.731040
12
-25.031601
22
22.249800
32
-1.877980
13
-25.031601
23
22.249800
33
-1.877980
0
3DFACE
8
0
62
1
10
-25.031601
20
22.249800
30
-1.877980
11
-26.826599
21
26.237200
31
-1.731040
12
-29.890499
22
22.249800
32
-1.877980
13
-29.890499
23
22.249800
33
-1.877980
0
3DFACE
8
0
62
1
10
-26.826599
20
26.237200
30
-1.731040
11
-28.819201
21
23.889799
31
-1.817550
12
-29.890499
22
22.249800
32
-1.877980
13
-29.890499
23
22.249800
33
-1.877980
0
3DFACE
8
0
62
1
10
-25.031601
20
22.249800
30
-1.877980
11
-29.890499
21
22.249800
31
-1.877980
12
-25.031601
22
22.281799
32
4.266050
13
-25.031601
23
22.281799
33
4.266050
0
3DFACE
8
0
62
1
10
-29.890499
20
22.249800
30
-1.877980
11
-29.869600
21
22.281799
31
4.266050
12
-25.031601
22
22.281799
32
4.266050
13
-25.031601
23
22.281799
33
4.266050
0
3DFACE
8
0
62
1
10
-28.819201
20
23.889799
30
4.325300
11
-26.826599
21
26.237200
31
4.411810
12
-29.869600
22
22.281799
32
4.266050
13
-29.869600
23
22.281799
33
4.266050
0
3DFACE
8
0
62
1
10
-26.826599
20
26.237200
30
4.411810
11
-25.740801
21
27.556601
31
4.460430
12
-29.869600
22
22.281799
32
4.266050
13
-29.869600
23
22.281799
33
4.266050
0
3DFACE
8
0
62
1
10
-29.869600
20
22.281799
30
4.266050
11
-25.740801
21
27.556601
31
4.460430
12
-25.031601
22
22.281799
32
4.266050
13
-25.031601
23
22.281799
33
4.266050
0
3DFACE
8
0
62
1
10
-25.740801
20
27.556601
30
4.460430
11
-25.031601
21
27.556601
31
4.460430
12
-25.031601
22
22.281799
32
4.266050
13
-25.031601
23
22.281799
33
4.266050
0
3DFACE
8
0
62
1
10
-25.031601
20
27.556601
30
4.460430
11
-25.031601
21
27.524599
31
-1.683600
12
-25.031601
22
22.281799
32
4.266050
13
-25.031601
23
22.281799
33
4.266050
0
3DFACE
8
0
62
1
10
-25.031601
20
27.524599
30
-1.683600
11
-25.031601
21
22.249800
31
-1.877980
12
-25.031601
22
22.281799
32
4.266050
13
-25.031601
23
22.281799
33
4.266050
0
3DFACE
8
0
62
1
10
-25.031601
20
27.556601
30
4.460430
11
-25.740801
21
27.556601
31
4.460430
12
-25.031601
22
27.524599
32
-1.683600
13
-25.031601
23
27.524599
33
-1.683600
0
3DFACE
8
0
62
1
10
-25.740801
20
27.556601
30
4.460430
11
-25.767099
21
27.524599
31
-1.683600
12
-25.031601
22
27.524599
32
-1.683600
13
-25.031601
23
27.524599
33
-1.683600
0
3DFACE
8
0
62
1
10
-9.436940
20
-4.069540
30
3.126200
11
-14.318800
21
-4.069540
31
3.126200
12
-9.505260
22
-4.069540
32
5.040630
13
-9.505260
23
-4.069540
33
5.040630
0
3DFACE
8
0
62
1
10
-14.318800
20
-4.069540
30
3.126200
11
-14.290400
21
-4.069540
31
5.040630
12
-9.505260
22
-4.069540
32
5.040630
13
-9.505260
23
-4.069540
33
5.040630
0
3DFACE
8
0
62
1
10
-9.505260
20
-4.069540
30
5.040630
11
-14.290400
21
-4.069540
31
5.040630
12
-13.379700
22
-4.069540
32
5.040630
13
-13.379700
23
-4.069540
33
5.040630
0
3DFACE
8
0
62
1
10
-9.501410
20
-4.220910
30
5.483060
11
-9.504890
21
-4.229620
31
5.040630
12
-9.054680
22
-4.205530
32
5.483060
13
-9.054680
23
-4.205530
33
5.483060
0
3DFACE
8
0
62
1
10
-9.504890
20
-4.229620
30
5.040630
11
-9.059910
21
-4.229620
31
5.040630
12
-9.054680
22
-4.205530
32
5.483060
13
-9.054680
23
-4.205530
33
5.483060
0
3DFACE
8
0
62
1
10
-13.379300
20
-4.229620
30
5.040630
11
-14.300300
21
-4.229620
31
5.040630
12
-9.504890
22
-4.229620
32
5.040630
13
-9.504890
23
-4.229620
33
5.040630
0
3DFACE
8
0
62
1
10
-14.300300
20
-4.229620
30
5.040630
11
-19.341801
21
-4.229620
31
5.040630
12
-9.504890
22
-4.229620
32
5.040630
13
-9.504890
23
-4.229620
33
5.040630
0
3DFACE
8
0
62
1
10
-9.504890
20
-4.229620
30
5.040630
11
-19.341801
21
-4.229620
31
5.040630
12
-9.059910
22
-4.229620
32
5.040630
13
-9.059910
23
-4.229620
33
5.040630
0
3DFACE
8
0
62
1
10
-19.341801
20
-4.229620
30
5.040630
11
-19.341801
21
-4.229620
31
-6.246660
12
-9.059910
22
-4.229620
32
5.040630
13
-9.059910
23
-4.229620
33
5.040630
0
3DFACE
8
0
62
1
10
-9.059910
20
-4.229620
30
5.040630
11
-19.341801
21
-4.229620
31
-6.246660
12
-5.372960
22
-4.229620
32
5.040630
13
-5.372960
23
-4.229620
33
5.040630
0
3DFACE
8
0
62
1
10
-19.341801
20
-4.229620
30
-6.246660
11
-5.372960
21
-4.229620
31
-6.246660
12
-5.372960
22
-4.229620
32
5.040630
13
-5.372960
23
-4.229620
33
5.040630
0
3DFACE
8
0
62
1
10
-9.059910
20
-4.229620
30
5.040630
11
-9.058530
21
-4.054160
31
5.040630
12
-9.054680
22
-4.205530
32
5.483060
13
-9.054680
23
-4.205530
33
5.483060
0
3DFACE
8
0
62
1
10
-9.058530
20
-4.054160
30
5.040630
11
-9.058770
21
-4.086940
31
5.479440
12
-9.054680
22
-4.205530
32
5.483060
13
-9.054680
23
-4.205530
33
5.483060
0
3DFACE
8
0
62
1
10
-9.060540
20
-4.054230
30
5.040630
11
-9.058530
21
-4.054160
31
5.040630
12
-9.059910
22
-4.229620
32
5.040630
13
-9.059910
23
-4.229620
33
5.040630
0
3DFACE
8
0
62
1
10
-9.501410
20
-4.220910
30
5.483060
11
-9.505500
21
-4.102320
31
5.479440
12
-9.504890
22
-4.229620
32
5.040630
13
-9.504890
23
-4.229620
33
5.040630
0
3DFACE
8
0
62
1
10
-9.505500
20
-4.102320
30
5.479440
11
-9.505260
21
-4.069540
31
5.040630
12
-9.504890
22
-4.229620
32
5.040630
13
-9.504890
23
-4.229620
33
5.040630
0
3DFACE
8
0
62
1
10
-9.054680
20
-4.205530
30
5.483060
11
-9.058770
21
-4.086940
31
5.479440
12
-9.501410
22
-4.220910
32
5.483060
13
-9.501410
23
-4.220910
33
5.483060
0
3DFACE
8
0
62
1
10
-9.058770
20
-4.086940
30
5.479440
11
-9.505500
21
-4.102320
31
5.479440
12
-9.501410
22
-4.220910
32
5.483060
13
-9.501410
23
-4.220910
33
5.483060
0
3DFACE
8
0
62
1
10
-2.538530
20
44.154099
30
-2.187530
11
-5.532100
21
44.154099
31
-2.187530
12
-2.957140
22
42.157501
32
0.063771
13
-2.957140
23
42.157501
33
0.063771
0
3DFACE
8
0
62
1
10
-5.532100
20
44.154099
30
-2.187530
11
-5.950710
21
42.157501
31
0.063772
12
-2.957140
22
42.157501
32
0.063771
13
-2.957140
23
42.157501
33
0.063771
0
ENDSEC
0
EOF
