# Wavefront OBJ file
# Creator: Ultimate Unwrap3D v2.29
# Time: Tue Apr 17 20:03:12 2007
# num_vertices: 76
# num_vertex_normals: 76
# num_uvs: 96
# num_faces: 24
# num_groups: 1

mtllib tumbleweed.mtl

v 2.610160 -1.259270 0.014033
v 0.986928 -1.241550 0.014033
v 2.629480 0.510387 -0.106279
v 1.006250 0.528107 -0.106279
v 2.626250 0.214315 -0.003296
v 1.003010 0.232035 -0.003296
v 2.622130 -0.162455 0.014033
v 0.998902 -0.144735 0.014033
v 1.923370 -1.259270 -0.738091
v 1.651570 -1.241550 0.807414
v 1.766670 0.510386 -0.765637
v 1.494870 0.528107 0.779867
v 1.907180 0.214315 -0.755331
v 1.635390 0.232035 0.790173
v 1.924190 -0.162456 -0.750036
v 1.652390 -0.144735 0.795468
v 1.837790 -1.245680 0.503428
v 1.838610 -0.148870 0.491483
v 1.821600 0.227900 0.486188
v 1.681090 0.523972 0.475881
v 2.244780 -1.259270 0.629270
v 1.264090 -1.241550 -0.664223
v 2.352320 0.510386 0.571977
v 1.371630 0.528107 -0.721516
v 2.268300 0.214315 0.631620
v 1.287610 0.232035 -0.661874
v 2.252010 -0.162456 0.638812
v 1.271320 -0.144736 -0.654682
v 1.003010 0.232035 -0.003296
v 1.006250 0.528107 -0.106279
v 2.629480 0.510387 -0.106279
v 2.626250 0.214315 -0.003296
v 0.986928 -1.241550 0.014033
v 0.998902 -0.144735 0.014033
v 2.622130 -0.162455 0.014033
v 2.610160 -1.259270 0.014033
v 0.998902 -0.144735 0.014033
v 1.003010 0.232035 -0.003296
v 2.626250 0.214315 -0.003296
v 2.622130 -0.162455 0.014033
v 1.821600 0.227900 0.486188
v 1.681090 0.523972 0.475881
v 1.766670 0.510386 -0.765637
v 1.907180 0.214315 -0.755331
v 1.821600 0.227900 0.486188
v 1.635390 0.232035 0.790173
v 1.494870 0.528107 0.779867
v 1.681090 0.523972 0.475881
v 1.837790 -1.245680 0.503428
v 1.838610 -0.148870 0.491483
v 1.924190 -0.162456 -0.750036
v 1.923370 -1.259270 -0.738091
v 1.837790 -1.245680 0.503428
v 1.651570 -1.241550 0.807414
v 1.652390 -0.144735 0.795468
v 1.838610 -0.148870 0.491483
v 1.838610 -0.148870 0.491483
v 1.821600 0.227900 0.486188
v 1.907180 0.214315 -0.755331
v 1.924190 -0.162456 -0.750036
v 1.838610 -0.148870 0.491483
v 1.652390 -0.144735 0.795468
v 1.635390 0.232035 0.790173
v 1.821600 0.227900 0.486188
v 1.287610 0.232035 -0.661874
v 1.371630 0.528107 -0.721516
v 2.352320 0.510386 0.571977
v 2.268300 0.214315 0.631620
v 1.264090 -1.241550 -0.664223
v 1.271320 -0.144736 -0.654682
v 2.252010 -0.162456 0.638812
v 2.244780 -1.259270 0.629270
v 1.271320 -0.144736 -0.654682
v 1.287610 0.232035 -0.661874
v 2.268300 0.214315 0.631620
v 2.252010 -0.162456 0.638812
# num_vertices: 76

vn 0.000000 0.000000 1.000000
vn 0.000000 0.000000 1.000000
vn 0.003586 0.328488 0.944501
vn 0.003586 0.328488 0.944501
vn 0.002065 0.189182 0.981940
vn 0.002065 0.189182 0.981940
vn 0.000251 0.022976 0.999736
vn 0.000251 0.022976 0.999736
vn 0.997633 0.000003 0.068768
vn 0.852738 0.005051 0.522315
vn 0.901158 0.429672 0.057417
vn 0.787439 0.390311 0.477071
vn 0.968007 0.242605 0.064072
vn 0.832875 0.221539 0.507188
vn 0.997386 0.022984 0.068500
vn 0.852602 0.025429 0.521941
vn 0.952575 0.002602 0.304291
vn 0.952358 0.024923 0.303961
vn 0.925526 0.238551 0.294099
vn 0.865161 0.420123 0.273848
vn -0.796863 -0.000003 0.604159
vn -0.796863 -0.000003 0.604159
vn -0.750470 0.328498 0.573485
vn -0.750470 0.328498 0.573485
vn -0.781224 0.189183 0.594894
vn -0.781224 0.189183 0.594894
vn -0.796502 0.022970 0.604200
vn -0.796502 0.022970 0.604200
vn -0.003586 -0.328488 -0.944501
vn -0.003586 -0.328488 -0.944501
vn -0.003586 -0.328488 -0.944501
vn -0.003586 -0.328488 -0.944501
vn 0.000000 0.000000 -1.000000
vn 0.000000 0.000000 -1.000000
vn 0.000000 0.000000 -1.000000
vn 0.000000 0.000000 -1.000000
vn -0.000502 -0.045940 -0.998944
vn -0.000502 -0.045940 -0.998944
vn -0.000502 -0.045940 -0.998944
vn -0.000502 -0.045940 -0.998944
vn -0.901158 -0.429671 -0.057417
vn -0.901158 -0.429671 -0.057417
vn -0.901158 -0.429671 -0.057417
vn -0.901158 -0.429671 -0.057417
vn -0.787449 -0.390315 -0.477052
vn -0.787449 -0.390315 -0.477052
vn -0.787449 -0.390315 -0.477052
vn -0.787449 -0.390315 -0.477052
vn -0.997633 -0.000003 -0.068768
vn -0.997633 -0.000003 -0.068768
vn -0.997633 -0.000003 -0.068768
vn -0.997633 -0.000003 -0.068768
vn -0.852738 -0.005051 -0.522314
vn -0.852738 -0.005051 -0.522314
vn -0.852738 -0.005051 -0.522314
vn -0.852738 -0.005051 -0.522314
vn -0.996613 -0.045953 -0.068195
vn -0.996613 -0.045953 -0.068195
vn -0.996613 -0.045953 -0.068195
vn -0.996613 -0.045953 -0.068195
vn -0.852101 -0.045797 -0.521371
vn -0.852101 -0.045797 -0.521371
vn -0.852101 -0.045797 -0.521371
vn -0.852101 -0.045797 -0.521371
vn 0.750470 -0.328495 -0.573485
vn 0.750470 -0.328495 -0.573485
vn 0.750470 -0.328495 -0.573485
vn 0.750470 -0.328495 -0.573485
vn 0.796863 0.000003 -0.604159
vn 0.796863 0.000003 -0.604159
vn 0.796863 0.000003 -0.604159
vn 0.796863 0.000003 -0.604159
vn 0.795720 -0.045932 -0.603921
vn 0.795720 -0.045932 -0.603921
vn 0.795720 -0.045932 -0.603921
vn 0.795720 -0.045932 -0.603921
# num_vertex_normals: 76

vt 0.000000 0.832695
vt 0.000000 1.000000
vt 1.000000 1.000000
vt 1.000000 0.832695
vt 0.000000 0.000000
vt 0.000000 0.619789
vt 1.000000 0.619789
vt 1.000000 0.000000
vt 0.000000 0.619789
vt 0.000000 0.832695
vt 1.000000 0.832695
vt 1.000000 0.619789
vt 0.000000 0.832695
vt 0.000000 1.000000
vt 0.766659 1.000000
vt 0.766659 0.832695
vt 0.766659 1.000000
vt 1.000000 1.000000
vt 1.000000 0.832695
vt 0.766659 0.832695
vt 0.000000 0.000000
vt 0.000000 0.619789
vt 0.766659 0.619789
vt 0.766659 0.000000
vt 0.766659 0.619789
vt 1.000000 0.619789
vt 1.000000 0.000000
vt 0.766659 0.000000
vt 0.000000 0.619789
vt 0.000000 0.832695
vt 0.766659 0.832695
vt 0.766659 0.619789
vt 0.766659 0.832695
vt 1.000000 0.832695
vt 1.000000 0.619789
vt 0.766659 0.619789
vt 0.000000 0.832695
vt 0.000000 1.000000
vt 1.000000 1.000000
vt 1.000000 0.832695
vt 0.000000 0.000000
vt 0.000000 0.619789
vt 1.000000 0.619789
vt 1.000000 0.000000
vt 0.000000 0.619789
vt 0.000000 0.832695
vt 1.000000 0.832695
vt 1.000000 0.619789
vt 1.000000 0.832695
vt 1.000000 1.000000
vt 0.000000 1.000000
vt 0.000000 0.832695
vt 1.000000 0.000000
vt 1.000000 0.619789
vt 0.000000 0.619789
vt 0.000000 0.000000
vt 1.000000 0.619789
vt 1.000000 0.832695
vt 0.000000 0.832695
vt 0.000000 0.619789
vt 0.766659 0.832695
vt 0.766659 1.000000
vt 0.000000 1.000000
vt 0.000000 0.832695
vt 0.766659 0.832695
vt 1.000000 0.832695
vt 1.000000 1.000000
vt 0.766659 1.000000
vt 0.766659 0.000000
vt 0.766659 0.619789
vt 0.000000 0.619789
vt 0.000000 0.000000
vt 0.766659 0.000000
vt 1.000000 0.000000
vt 1.000000 0.619789
vt 0.766659 0.619789
vt 0.766659 0.619789
vt 0.766659 0.832695
vt 0.000000 0.832695
vt 0.000000 0.619789
vt 0.766659 0.619789
vt 1.000000 0.619789
vt 1.000000 0.832695
vt 0.766659 0.832695
vt 1.000000 0.832695
vt 1.000000 1.000000
vt 0.000000 1.000000
vt 0.000000 0.832695
vt 1.000000 0.000000
vt 1.000000 0.619789
vt 0.000000 0.619789
vt 0.000000 0.000000
vt 1.000000 0.619789
vt 1.000000 0.832695
vt 0.000000 0.832695
vt 0.000000 0.619789
# num_uvs: 96

g tumbleweed
s 1

usemtl tumbleweed
f 5/1/5 3/2/3 4/3/4 6/4/6 
f 1/5/1 7/6/7 8/7/8 2/8/2 
f 7/9/7 5/10/5 6/11/6 8/12/8 
f 13/13/13 11/14/11 20/15/20 19/16/19 
f 20/17/20 12/18/12 14/19/14 19/20/19 
f 9/21/9 15/22/15 18/23/18 17/24/17 
f 18/25/18 16/26/16 10/27/10 17/28/17 
f 15/29/15 13/30/13 19/31/19 18/32/18 
f 19/33/19 14/34/14 16/35/16 18/36/18 
f 25/37/25 23/38/23 24/39/24 26/40/26 
f 21/41/21 27/42/27 28/43/28 22/44/22 
f 27/45/27 25/46/25 26/47/26 28/48/28 
f 29/49/29 30/50/30 31/51/31 32/52/32 
f 33/53/33 34/54/34 35/55/35 36/56/36 
f 37/57/37 38/58/38 39/59/39 40/60/40 
f 41/61/41 42/62/42 43/63/43 44/64/44 
f 45/65/45 46/66/46 47/67/47 48/68/48 
f 49/69/49 50/70/50 51/71/51 52/72/52 
f 53/73/53 54/74/54 55/75/55 56/76/56 
f 57/77/57 58/78/58 59/79/59 60/80/60 
f 61/81/61 62/82/62 63/83/63 64/84/64 
f 65/85/65 66/86/66 67/87/67 68/88/68 
f 69/89/69 70/90/70 71/91/71 72/92/72 
f 73/93/73 74/94/74 75/95/75 76/96/76 
# num_faces: 24

